<svg width="90" height="90" viewBox="0 0 90 90" fill="none" xmlns="http://www.w3.org/2000/svg">
<g clip-path="url(#clip0_558_1282)">
<path d="M90 0H0V90H90V0Z" fill="#874A0E"/>
<path d="M28.2593 60.5971C28.0613 60.5971 27.9083 60.5341 27.8093 60.4171C27.7103 60.2911 27.6562 60.1471 27.6562 59.9851C27.6562 59.8231 27.7103 59.6791 27.8093 59.5531C27.9083 59.4361 28.0613 59.3731 28.2593 59.3731C28.0793 59.3731 27.9353 59.3101 27.8363 59.1931C27.7373 59.0761 27.6923 58.9411 27.6923 58.7881C27.6923 58.6351 27.7373 58.5091 27.8363 58.3921C27.9353 58.2751 28.0703 58.2211 28.2593 58.2211C28.1153 58.2211 28.0073 58.1671 27.9263 58.0591C27.8453 57.9511 27.7823 57.8161 27.7643 57.6631C27.7463 57.5101 27.7373 57.3481 27.7643 57.1951C27.7913 57.0421 27.8453 56.9071 27.9263 56.7991C28.0073 56.6911 28.1243 56.6371 28.2593 56.6371C27.9983 56.6371 27.8273 56.5741 27.7373 56.4571C27.6473 56.3401 27.6473 56.2231 27.7373 56.1061C27.8273 55.9891 27.9983 55.9261 28.2593 55.9261C28.0973 55.9081 27.9803 55.8541 27.8993 55.7461C27.8183 55.6381 27.7912 55.5301 27.7912 55.3951C27.7912 55.2601 27.8453 55.1521 27.9353 55.0621C28.0253 54.9721 28.1512 54.9271 28.3132 54.9361C28.3132 54.7201 28.3763 54.5581 28.5023 54.4501C28.6283 54.3421 28.7723 54.2881 28.9343 54.2881C29.0963 54.2881 29.2403 54.3421 29.3663 54.4501C29.4923 54.5581 29.5553 54.7201 29.5553 54.9361C29.5553 54.7921 29.6092 54.6751 29.7262 54.5851C29.8432 54.5041 29.9783 54.4411 30.1493 54.4141C30.3113 54.3871 30.4823 54.3871 30.6443 54.4141C30.8063 54.4411 30.9503 54.5041 31.0673 54.5851C31.1843 54.6661 31.2383 54.7831 31.2383 54.9361C31.2383 54.7201 31.2923 54.5581 31.3913 54.4591C31.4903 54.3601 31.6163 54.2971 31.7513 54.2971C31.8863 54.2971 32.0032 54.3511 32.1022 54.4591C32.2013 54.5671 32.2553 54.7291 32.2553 54.9541C32.2733 54.7651 32.3273 54.6211 32.4173 54.5401C32.4983 54.4591 32.5973 54.4141 32.6963 54.4321C32.7953 54.4501 32.8763 54.5041 32.9483 54.6031C33.0113 54.7021 33.0383 54.8461 33.0113 55.0351C33.0743 54.8011 33.1643 54.6571 33.2723 54.5941C33.3803 54.5311 33.4703 54.5581 33.5333 54.6661C33.5963 54.7741 33.5963 54.9451 33.5333 55.1791C33.6323 55.0531 33.7583 54.9901 33.9023 54.9901C34.0463 54.9901 34.1633 55.0351 34.2803 55.1251C34.3883 55.2151 34.4603 55.3321 34.4963 55.4581C34.5323 55.5931 34.4963 55.7281 34.3883 55.8541C34.5863 55.8091 34.7483 55.8271 34.8653 55.9171C34.9913 55.9981 35.0633 56.1151 35.0993 56.2501C35.1353 56.3941 35.1173 56.5291 35.0453 56.6551C34.9733 56.7901 34.8383 56.8801 34.6403 56.9161C34.8113 56.9791 34.9283 57.0601 34.9823 57.1591C35.0453 57.2671 35.0543 57.3661 35.0183 57.4561C34.9823 57.5551 34.9103 57.6181 34.7933 57.6631C34.6853 57.7081 34.5413 57.6991 34.3703 57.6271C34.5413 57.8521 34.6133 58.0231 34.5953 58.1581C34.5773 58.2931 34.4963 58.3561 34.3523 58.3561C34.2083 58.3561 34.0553 58.2391 33.8843 58.0141C33.9653 58.1131 34.0103 58.2211 34.0193 58.3381C34.2083 58.4101 34.3793 58.5271 34.5143 58.6891C34.6583 58.8511 34.6763 59.0131 34.5953 59.1661C34.7753 59.1211 34.9193 59.1211 35.0273 59.1661C35.1353 59.2111 35.2073 59.2831 35.2343 59.3821C35.2613 59.4811 35.2343 59.5711 35.1713 59.6701C35.1083 59.7691 34.9823 59.8411 34.8023 59.8951C35.0093 59.9401 35.1533 60.0211 35.2433 60.1381C35.3243 60.2551 35.3603 60.3811 35.3333 60.5071C35.3063 60.6331 35.2343 60.7411 35.1083 60.8221C34.9913 60.9031 34.8203 60.9211 34.6043 60.8761C34.7483 61.0201 34.8293 61.1551 34.8293 61.3081C34.8293 61.4611 34.7843 61.5781 34.6853 61.6771C34.5863 61.7761 34.4693 61.8301 34.3163 61.8301C34.1723 61.8301 34.0193 61.7671 33.8753 61.6231C33.9743 61.8481 34.0013 62.0191 33.9653 62.1271C33.9293 62.2351 33.8663 62.2621 33.7583 62.2171C33.6503 62.1721 33.5513 62.0281 33.4613 61.8031C33.4793 61.9651 33.4433 62.1001 33.3353 62.2081C33.2273 62.3161 33.0923 62.3971 32.9303 62.4511C32.7683 62.5051 32.5973 62.5231 32.4173 62.5051C32.2373 62.4871 32.0933 62.4421 31.9673 62.3521C31.8413 62.2711 31.7693 62.1451 31.7423 61.9831C31.7423 62.1811 31.6793 62.3341 31.5623 62.4331C31.4453 62.5411 31.3103 62.5861 31.1483 62.5861C30.9863 62.5861 30.8513 62.5321 30.7343 62.4331C30.6173 62.3341 30.5543 62.1811 30.5543 61.9831C30.5543 62.1541 30.5093 62.2801 30.4193 62.3611C30.3293 62.4421 30.2212 62.4871 30.0952 62.4871C29.9692 62.4871 29.8613 62.4421 29.7713 62.3611C29.6813 62.2801 29.6363 62.1541 29.6363 61.9831C29.6363 62.1271 29.5912 62.2261 29.5012 62.2981C29.4112 62.3701 29.2943 62.3971 29.1503 62.3791C29.0063 62.3611 28.8713 62.2981 28.7363 62.1721C28.6013 62.0461 28.4842 61.8571 28.3942 61.5871C28.3042 61.3261 28.2593 60.9841 28.2683 60.5521L28.2593 60.5971ZM30.3563 57.1051C30.4733 57.1051 30.5633 57.1501 30.6173 57.2491C30.6713 57.3481 30.7073 57.4561 30.7253 57.5731C30.7433 57.6901 30.7433 57.7801 30.7433 57.8251C30.7613 57.7081 30.8063 57.6271 30.8963 57.5821C30.9863 57.5371 31.0763 57.5371 31.1753 57.5641C31.2743 57.6001 31.3283 57.6631 31.3553 57.7711C31.3373 57.6361 31.4003 57.5371 31.5443 57.4741C31.6883 57.4111 31.8053 57.4021 31.9223 57.4561C31.9043 57.3751 31.9223 57.2941 31.9673 57.2041C32.0123 57.1231 32.0843 57.0601 32.1743 57.0331C32.1023 56.9881 32.0393 56.9161 32.0033 56.8171C31.9583 56.7181 31.9493 56.6281 31.9673 56.5471C31.9043 56.5921 31.8593 56.6011 31.8142 56.5651C31.7692 56.5381 31.7603 56.4841 31.7783 56.4031C31.6883 56.5111 31.5623 56.5651 31.3823 56.5561C31.2023 56.5471 31.0853 56.4841 31.0133 56.3581C31.0133 56.4481 30.9772 56.5201 30.9142 56.5831C30.8512 56.6461 30.7703 56.6731 30.6803 56.6731C30.7163 56.7631 30.7073 56.8531 30.6533 56.9431C30.5993 57.0331 30.5003 57.0781 30.3563 57.0781V57.1051ZM31.3642 60.7861C31.3642 60.6601 31.4093 60.5791 31.5173 60.5251C31.6253 60.4711 31.7243 60.4711 31.8323 60.4981C31.7963 60.3721 31.8053 60.2371 31.8593 60.0931C31.9133 59.9491 31.9943 59.8411 32.1113 59.7691C31.9943 59.7151 31.8863 59.6341 31.7873 59.5351C31.6883 59.4271 31.6343 59.3191 31.6253 59.2111C31.5623 59.3101 31.4723 59.3641 31.3373 59.3911C31.2023 59.4091 31.0763 59.4091 30.9593 59.3731C30.9773 59.4901 30.9503 59.5981 30.8693 59.7061C30.7883 59.8141 30.6802 59.8501 30.5452 59.8411C30.6532 59.9041 30.7253 60.0121 30.7702 60.1651C30.8062 60.3091 30.8153 60.4441 30.7883 60.5611C30.8963 60.5071 31.0223 60.5071 31.1663 60.5431C31.3103 60.5881 31.3733 60.6691 31.3733 60.8041L31.3642 60.7861Z" fill="white"/>
<path d="M36.1873 61.5422C36.1063 61.5422 36.0343 61.4972 35.9803 61.3982C35.9263 61.2992 35.8903 61.1732 35.8633 61.0202C35.8453 60.8672 35.8363 60.7142 35.8453 60.5612C35.8543 60.4082 35.8813 60.2732 35.9263 60.1652C35.9713 60.0572 36.0343 60.0032 36.1243 60.0032C36.0883 59.9402 36.1063 59.8592 36.1783 59.7602C36.2503 59.6612 36.3583 59.5712 36.4933 59.4812C36.6283 59.3912 36.7723 59.3102 36.9253 59.2472C37.0783 59.1842 37.2133 59.1392 37.3303 59.1302C37.4473 59.1212 37.5283 59.1392 37.5643 59.2112C37.5463 59.1122 37.5823 59.0312 37.6723 58.9592C37.7623 58.8872 37.8613 58.8332 37.9963 58.7972C38.1313 58.7612 38.2573 58.7432 38.3923 58.7522C38.5183 58.7522 38.6263 58.7972 38.6983 58.8602C38.6713 58.7432 38.6983 58.6172 38.8063 58.4732C38.6173 58.4732 38.4553 58.4372 38.2933 58.3832C38.1403 58.3292 38.0683 58.2482 38.0683 58.1582C38.0683 58.2662 38.0233 58.3472 37.9333 58.4012C37.8433 58.4552 37.7443 58.4822 37.6273 58.4822C37.5103 58.4822 37.4113 58.4552 37.3213 58.4012C37.2313 58.3472 37.1863 58.2662 37.1863 58.1582C37.1233 58.2662 37.0333 58.3292 36.9343 58.3472C36.8353 58.3652 36.7273 58.3472 36.6283 58.2842C36.5293 58.2212 36.4573 58.1492 36.4123 58.0502C36.3673 57.9512 36.3763 57.8432 36.4483 57.7352C36.3223 57.5912 36.2773 57.4652 36.3133 57.3572C36.3493 57.2402 36.4213 57.1772 36.5383 57.1502C36.6553 57.1322 36.7813 57.1862 36.9073 57.3302C36.8173 57.1592 36.7993 57.0242 36.8443 56.9342C36.8893 56.8352 36.9613 56.7992 37.0603 56.8172C37.1593 56.8352 37.2493 56.9342 37.3393 57.1142C37.3123 56.9972 37.3303 56.8982 37.3843 56.8082C37.4473 56.7272 37.5283 56.6642 37.6363 56.6372C37.7443 56.6102 37.8433 56.6102 37.9423 56.6462C38.0413 56.6822 38.1043 56.7632 38.1313 56.8802C38.1313 56.7362 38.1763 56.6192 38.2753 56.5472C38.3743 56.4662 38.5003 56.4302 38.6443 56.4212C38.7883 56.4212 38.9053 56.4392 39.0223 56.5112C39.1393 56.5832 39.1933 56.6822 39.2023 56.8352C39.2203 56.6372 39.2653 56.5112 39.3553 56.4482C39.4453 56.3942 39.5263 56.3942 39.5983 56.4662C39.6703 56.5382 39.6973 56.6732 39.6883 56.8712C39.7243 56.7362 39.7963 56.6552 39.8953 56.6102C39.9943 56.5652 40.1113 56.5652 40.2193 56.6012C40.3363 56.6372 40.4263 56.7002 40.4893 56.7902C40.5523 56.8802 40.5703 56.9882 40.5343 57.1142C40.6153 57.0062 40.7143 56.9612 40.8223 56.9612C40.9303 56.9612 41.0383 57.0062 41.1283 57.0692C41.2183 57.1412 41.2813 57.2312 41.3083 57.3392C41.3353 57.4472 41.3083 57.5552 41.2273 57.6632C41.4073 57.5822 41.5513 57.5822 41.6593 57.6632C41.7673 57.7442 41.8213 57.8522 41.8033 57.9872C41.7853 58.1222 41.6953 58.2302 41.5153 58.3112C41.6593 58.3112 41.7763 58.3652 41.8483 58.5002C41.9293 58.6352 41.9743 58.7972 41.9833 58.9682C41.9923 59.1392 41.9653 59.3012 41.9023 59.4452C41.8393 59.5892 41.7313 59.6612 41.5783 59.6702C41.6953 59.6702 41.7853 59.7152 41.8393 59.8052C41.9023 59.8952 41.9293 60.0032 41.9293 60.1292C41.9293 60.2552 41.9023 60.3542 41.8393 60.4532C41.7763 60.5432 41.6953 60.5882 41.5783 60.5882C41.7133 60.5882 41.8213 60.6422 41.9023 60.7412C41.9833 60.8402 42.0373 60.9662 42.0733 61.1192C42.1093 61.2722 42.1093 61.4252 42.0913 61.5782C42.0733 61.7312 42.0193 61.8662 41.9473 61.9742C41.8753 62.0822 41.7763 62.1362 41.6503 62.1452C41.6503 62.2622 41.5873 62.3612 41.4793 62.4332C41.3713 62.5052 41.2453 62.5502 41.0833 62.5772C40.9303 62.5952 40.7683 62.5952 40.6153 62.5772C40.4533 62.5502 40.3273 62.4962 40.2193 62.4242C40.1113 62.3432 40.0663 62.2532 40.0663 62.1272C40.0663 62.3162 40.0303 62.4332 39.9403 62.5052C39.8593 62.5682 39.7783 62.5772 39.6973 62.5052C39.6163 62.4332 39.5713 62.3162 39.5713 62.1272C39.4723 62.2442 39.3733 62.3072 39.2743 62.3162C39.1753 62.3162 39.0853 62.2982 39.0133 62.2262C38.9413 62.1542 38.9143 62.0822 38.9233 61.9832C38.8063 62.0822 38.6173 62.1452 38.3563 62.1812C38.0953 62.2172 37.7803 62.1992 37.4023 62.1092C37.0243 62.0282 36.6193 61.8482 36.1783 61.5872L36.1873 61.5422ZM39.0133 61.0022C38.9503 60.9662 38.9233 60.9032 38.9323 60.8042C38.9503 60.7052 38.9863 60.6062 39.0403 60.4982C39.0943 60.3902 39.1573 60.2912 39.2293 60.2192C39.1663 60.2012 39.1033 60.1742 39.0493 60.1202C38.9953 60.0662 38.9593 60.0122 38.9413 59.9402C38.8873 60.0122 38.8153 60.0752 38.7073 60.1202C38.6083 60.1652 38.5003 60.1922 38.3923 60.2012C38.2843 60.2012 38.2033 60.1922 38.1313 60.1472C38.1493 60.2102 38.1313 60.2732 38.0863 60.3272C38.1853 60.3632 38.3023 60.4262 38.4193 60.5252C38.5453 60.6242 38.6533 60.7142 38.7523 60.8132C38.8513 60.9122 38.9323 60.9752 38.9953 61.0022H39.0133Z" fill="white"/>
<path d="M43.0817 61.3082C42.8657 61.3082 42.7217 61.2631 42.6497 61.1731C42.5777 61.0831 42.5777 60.9931 42.6497 60.9121C42.7217 60.8221 42.8657 60.7771 43.0817 60.7771C42.9377 60.7771 42.8207 60.7322 42.7487 60.6332C42.6767 60.5342 42.6407 60.4171 42.6407 60.3001C42.6407 60.1831 42.6767 60.0661 42.7487 59.9671C42.8207 59.8681 42.9287 59.8141 43.0817 59.8141C42.9557 59.8141 42.8567 59.7602 42.7757 59.6342C42.6947 59.5172 42.6497 59.3731 42.6227 59.2021C42.5957 59.0311 42.5957 58.8601 42.6227 58.6891C42.6497 58.5181 42.7037 58.3742 42.7757 58.2572C42.8567 58.1402 42.9557 58.0771 43.0817 58.0771C42.9827 58.0771 42.9107 58.0231 42.8477 57.9151C42.7847 57.8071 42.7487 57.6721 42.7307 57.5191C42.7127 57.3571 42.7127 57.2041 42.7307 57.0421C42.7487 56.8801 42.7937 56.7541 42.8477 56.6461C42.9107 56.5381 42.9917 56.4841 43.0817 56.4841C42.9377 56.4841 42.8207 56.4302 42.7487 56.3221C42.6767 56.2141 42.6407 56.0881 42.6407 55.9531C42.6407 55.8181 42.6767 55.6921 42.7487 55.5841C42.8207 55.4761 42.9287 55.4221 43.0817 55.4221C42.9017 55.4401 42.7847 55.3951 42.7127 55.2871C42.6407 55.1881 42.6317 55.0711 42.6767 54.9541C42.7217 54.8371 42.8387 54.7741 43.0097 54.7561C43.0097 54.6301 43.0547 54.5401 43.1357 54.4771C43.2167 54.4141 43.2977 54.3871 43.3967 54.3871C43.4957 54.3871 43.5767 54.4231 43.6487 54.4951C43.7207 54.5581 43.7567 54.6571 43.7567 54.7831C43.7567 54.6391 43.8107 54.5311 43.9367 54.4501C44.0627 54.3691 44.2157 54.3241 44.3867 54.3151C44.5577 54.3061 44.7107 54.3331 44.8547 54.4051C44.9897 54.4681 45.0617 54.5761 45.0707 54.7111C45.2057 54.7111 45.3047 54.8011 45.3677 54.9451C45.4307 55.0981 45.4577 55.2691 45.4577 55.4671C45.4577 55.6651 45.4217 55.8361 45.3497 55.9891C45.2777 56.1331 45.1787 56.2141 45.0437 56.2141C45.1607 56.2141 45.2507 56.2681 45.3047 56.3851C45.3677 56.5021 45.3947 56.6371 45.3947 56.7901C45.3947 56.9431 45.3677 57.0781 45.3047 57.1951C45.2417 57.3121 45.1607 57.3661 45.0437 57.3661C45.1787 57.3661 45.2777 57.4201 45.3407 57.5461C45.4037 57.6721 45.4397 57.8071 45.4307 57.9421C45.4487 57.9421 45.4667 57.9601 45.4847 57.9781C45.5027 57.8431 45.5747 57.7352 45.7007 57.6452C45.8267 57.5552 45.9527 57.5552 46.0967 57.6452C45.9977 57.5822 45.9527 57.4921 45.9707 57.3841C45.9887 57.2761 46.0427 57.1861 46.1237 57.1231C46.2047 57.0601 46.3037 57.0601 46.4207 57.1231C46.4027 57.0061 46.4477 56.9071 46.5557 56.8171C46.6727 56.7361 46.8077 56.6731 46.9787 56.6371C47.1407 56.6011 47.2937 56.6011 47.4287 56.6371C47.5637 56.6731 47.6447 56.7541 47.6627 56.8711C47.6627 56.7001 47.7077 56.5921 47.7977 56.5381C47.8877 56.4841 47.9777 56.4841 48.0587 56.5381C48.1397 56.5921 48.1937 56.7091 48.1937 56.8711C48.1937 56.6911 48.2387 56.5651 48.3467 56.5021C48.4547 56.4391 48.5627 56.4391 48.6707 56.5021C48.7787 56.5651 48.8327 56.6821 48.8327 56.8711C48.9317 56.9341 48.9677 57.0331 48.9497 57.1591C48.9317 57.2851 48.8867 57.4111 48.7967 57.5281C48.7157 57.6451 48.6167 57.7351 48.5087 57.7891C48.4007 57.8431 48.2927 57.8432 48.2027 57.7712C48.3107 57.8522 48.3467 57.9781 48.3107 58.1491C48.2747 58.3201 48.1937 58.4911 48.0767 58.6531C47.9597 58.8151 47.8247 58.9411 47.6807 59.0131C47.8067 59.0671 47.9057 59.1571 47.9687 59.2921C48.0317 59.4271 48.0587 59.5622 48.0317 59.6972C48.0137 59.8321 47.9237 59.9312 47.7887 59.9942C47.8877 59.9492 48.0047 59.9761 48.1397 60.0661C48.2657 60.1561 48.3827 60.2822 48.4817 60.4442C48.5807 60.6062 48.6437 60.7591 48.6617 60.9121C48.6797 61.0651 48.6437 61.1731 48.5357 61.2361C48.6437 61.1731 48.7607 61.1642 48.8687 61.2092C48.9767 61.2542 49.0667 61.3351 49.1297 61.4431C49.1927 61.5511 49.2287 61.6591 49.2197 61.7761C49.2107 61.8931 49.1567 61.9921 49.0487 62.0641C49.0487 62.2081 48.9857 62.3252 48.8507 62.3972C48.7247 62.4692 48.5717 62.5051 48.4097 62.5051C48.2477 62.5051 48.0947 62.4692 47.9687 62.3972C47.8427 62.3252 47.7797 62.2171 47.7797 62.0641C47.7617 62.2081 47.6987 62.2981 47.5727 62.3611C47.4467 62.4151 47.3117 62.4331 47.1587 62.4151C47.0057 62.3971 46.8797 62.3431 46.7627 62.2621C46.6547 62.1811 46.6007 62.0731 46.6187 61.9291C46.4567 62.0281 46.3307 62.0552 46.2317 62.0192C46.1327 61.9832 46.0967 61.9111 46.1147 61.8121C46.1327 61.7131 46.2137 61.6141 46.3667 61.5151C46.2857 61.5691 46.1867 61.5512 46.0697 61.4702C45.9527 61.3892 45.8447 61.2721 45.7457 61.1281C45.6377 60.9841 45.5567 60.8311 45.5027 60.6781C45.4037 60.7591 45.2957 60.7862 45.1787 60.7592C45.2417 60.8492 45.2867 60.9751 45.2957 61.1371C45.3047 61.2991 45.2957 61.4431 45.2507 61.5781C45.2057 61.7131 45.1337 61.7761 45.0257 61.7761C45.0977 61.9381 45.0977 62.0732 45.0077 62.1722C44.9267 62.2712 44.8187 62.3161 44.6837 62.3161C44.5577 62.3161 44.4497 62.2261 44.3777 62.0641C44.3777 62.1721 44.3327 62.2621 44.2517 62.3161C44.1707 62.3701 44.0717 62.4061 43.9637 62.4061C43.8557 62.4061 43.7567 62.3791 43.6757 62.3161C43.5947 62.2531 43.5497 62.1721 43.5497 62.0641C43.5497 62.2621 43.5047 62.3882 43.4237 62.4332C43.3427 62.4782 43.2617 62.4152 43.1717 62.2442C43.0907 62.0642 43.0457 61.7491 43.0367 61.2901L43.0817 61.3082Z" fill="white"/>
<path d="M52.0194 62.1539C51.9744 62.3069 51.8934 62.4059 51.7764 62.4599C51.6594 62.5049 51.5334 62.5139 51.4074 62.4779C51.2814 62.4419 51.1734 62.3789 51.0924 62.2709C51.0114 62.1719 50.9934 62.0369 51.0384 61.8839C50.9574 61.9919 50.8584 62.0549 50.7504 62.0639C50.6424 62.0729 50.5434 62.0459 50.4444 61.9829C50.3454 61.9199 50.2914 61.8299 50.2644 61.7219C50.2374 61.6139 50.2644 61.5059 50.3544 61.3889C50.2464 61.4429 50.1294 61.4159 50.0214 61.3169C49.9134 61.2179 49.8144 61.0829 49.7424 60.9209C49.6704 60.7589 49.6344 60.5969 49.6344 60.4529C49.6344 60.3089 49.6884 60.2099 49.7964 60.1559C49.6614 60.1559 49.5624 60.0929 49.4994 59.9669C49.4364 59.8409 49.4004 59.6969 49.4004 59.5259C49.4004 59.3549 49.4364 59.2109 49.4994 59.0849C49.5624 58.9589 49.6614 58.8959 49.7874 58.8959C49.5894 58.8419 49.4724 58.7519 49.4364 58.6349C49.4004 58.5179 49.4274 58.4189 49.5174 58.3379C49.6074 58.2569 49.7514 58.2479 49.9494 58.3019C49.8864 58.2479 49.8594 58.1579 49.8864 58.0409C49.9134 57.9239 49.9674 57.8069 50.0574 57.6809C50.1474 57.5549 50.2464 57.4469 50.3544 57.3479C50.4624 57.2489 50.5704 57.1769 50.6784 57.1319C50.7864 57.0869 50.8674 57.0959 50.9394 57.1499C50.9034 57.0239 50.9394 56.9159 51.0474 56.8169C51.1554 56.7179 51.2904 56.6459 51.4524 56.6009C51.6144 56.5559 51.7674 56.5379 51.9024 56.5649C52.0464 56.5919 52.1274 56.6639 52.1634 56.7899C52.1634 56.6459 52.2534 56.5559 52.4154 56.4929C52.5774 56.4389 52.7484 56.4209 52.9464 56.4299C53.1444 56.4389 53.3154 56.4929 53.4594 56.5739C53.6034 56.6549 53.6754 56.7629 53.6574 56.9069C53.7114 56.7629 53.8014 56.6909 53.9094 56.6819C54.0174 56.6729 54.1074 56.7089 54.1704 56.7899C54.2424 56.8709 54.2514 56.9789 54.1974 57.1229C54.2784 57.0419 54.3864 57.0329 54.5214 57.0869C54.6564 57.1409 54.7914 57.2309 54.9174 57.3569C55.0434 57.4829 55.1424 57.6179 55.1964 57.7529C55.2504 57.8879 55.2414 58.0049 55.1604 58.0859C55.2684 58.0679 55.3674 58.1039 55.4664 58.1939C55.5564 58.2929 55.6284 58.4189 55.6824 58.5719C55.7364 58.7249 55.7724 58.8869 55.7724 59.0489C55.7724 59.2109 55.7634 59.3639 55.7184 59.4809C55.6734 59.6069 55.5924 59.6789 55.4754 59.7059C55.6914 59.8049 55.7814 59.8769 55.7634 59.9219C55.7454 59.9669 55.6194 59.9489 55.4124 59.8499C55.4124 59.9489 55.3494 60.0209 55.2324 60.0659C55.1064 60.1109 54.9714 60.1379 54.8184 60.1379C54.6654 60.1379 54.5214 60.1109 54.4044 60.0659C54.2874 60.0209 54.2244 59.9489 54.2244 59.8499C54.2244 59.9759 54.1704 60.0659 54.0534 60.1289C53.9454 60.1919 53.8194 60.2279 53.6754 60.2279C53.5314 60.2279 53.4054 60.2009 53.2974 60.1379C53.1894 60.0749 53.1354 59.9849 53.1354 59.8679C53.1354 59.9939 53.0814 60.0929 52.9554 60.1739C52.8294 60.2549 52.6854 60.2999 52.5234 60.3089C52.5954 60.3989 52.6584 60.4889 52.7034 60.5879C52.7484 60.6869 52.7844 60.7769 52.7934 60.8579C52.8654 60.7769 52.9734 60.7049 53.1264 60.6509C53.2704 60.5879 53.4234 60.5519 53.5764 60.5429C53.7294 60.5249 53.8734 60.5429 53.9904 60.5699C54.1164 60.6059 54.1884 60.6689 54.2064 60.7769C54.2064 60.6509 54.2514 60.5519 54.3504 60.4889C54.4494 60.4259 54.5664 60.3899 54.7014 60.3899C54.8364 60.3899 54.9534 60.4259 55.0524 60.4889C55.1514 60.5519 55.1964 60.6509 55.1964 60.7769C55.3404 60.8039 55.4304 60.8669 55.4664 60.9569C55.4934 61.0469 55.4754 61.1279 55.4124 61.1999C55.3494 61.2719 55.2414 61.2899 55.1064 61.2629C55.1694 61.3619 55.1874 61.4519 55.1424 61.5599C55.0974 61.6589 55.0254 61.7399 54.9264 61.8119C54.8274 61.8839 54.7194 61.9199 54.6204 61.9289C54.5214 61.9379 54.4314 61.8929 54.3594 61.8119C54.4044 61.9559 54.3864 62.0729 54.2964 62.1809C54.2154 62.2799 54.0984 62.3609 53.9634 62.4059C53.8284 62.4509 53.6934 62.4509 53.5584 62.4059C53.4324 62.3609 53.3424 62.2709 53.2974 62.1359C53.3154 62.3339 53.2614 62.4689 53.1354 62.5409C53.0094 62.6129 52.8474 62.6219 52.6494 62.5589C52.4424 62.4959 52.2354 62.3609 52.0104 62.1539H52.0194ZM52.4694 59.0219C52.4694 58.8779 52.5144 58.7879 52.5864 58.7699C52.6674 58.7519 52.7214 58.7969 52.7484 58.9049C52.7664 58.8419 52.8114 58.7789 52.8834 58.7159C52.9464 58.6529 53.0184 58.6169 53.0904 58.5989C53.0004 58.5359 52.9284 58.4369 52.8654 58.3109C52.8024 58.1849 52.7844 58.0769 52.8114 57.9779C52.7484 58.0139 52.6674 58.0409 52.5774 58.0409C52.4874 58.0409 52.4064 58.0409 52.3434 58.0049C52.3614 58.0859 52.3614 58.1849 52.3344 58.2929C52.3074 58.4009 52.2534 58.4999 52.1994 58.5899C52.1364 58.6799 52.0644 58.7249 51.9834 58.7339C52.0824 58.7519 52.1544 58.8059 52.1994 58.8869C52.2444 58.9679 52.3344 59.0039 52.4694 59.0039V59.0219Z" fill="white"/>
<path d="M58.9042 62.1539C58.8592 62.3069 58.7782 62.4059 58.6612 62.4599C58.5442 62.5139 58.4182 62.5139 58.2922 62.4779C58.1662 62.4419 58.0582 62.3789 57.9772 62.2709C57.8962 62.1719 57.8782 62.0369 57.9232 61.8839C57.8422 61.9919 57.7432 62.0549 57.6352 62.0639C57.5272 62.0729 57.4282 62.0459 57.3292 61.9829C57.2392 61.9199 57.1762 61.8299 57.1492 61.7219C57.1222 61.6139 57.1492 61.5059 57.2392 61.3889C57.1312 61.4429 57.0232 61.4159 56.9062 61.3169C56.7982 61.2179 56.6992 61.0829 56.6272 60.9209C56.5552 60.7589 56.5192 60.5969 56.5192 60.4529C56.5192 60.3089 56.5732 60.2099 56.6812 60.1559C56.5462 60.1559 56.4472 60.0929 56.3842 59.9669C56.3212 59.8409 56.2852 59.6969 56.2852 59.5259C56.2852 59.3549 56.3212 59.2109 56.3842 59.0849C56.4472 58.9589 56.5462 58.8959 56.6722 58.8959C56.4742 58.8419 56.3572 58.7519 56.3212 58.6349C56.2852 58.5179 56.3212 58.4189 56.4022 58.3379C56.4922 58.2569 56.6362 58.2479 56.8432 58.3019C56.7802 58.2479 56.7532 58.1579 56.7802 58.0409C56.8072 57.9239 56.8612 57.8069 56.9512 57.6809C57.0412 57.5549 57.1402 57.4469 57.2482 57.3479C57.3562 57.2489 57.4642 57.1769 57.5722 57.1319C57.6802 57.0869 57.7702 57.0959 57.8332 57.1499C57.7972 57.0239 57.8332 56.9159 57.9412 56.8169C58.0492 56.7179 58.1842 56.6459 58.3462 56.6009C58.5082 56.5559 58.6612 56.5379 58.7962 56.5649C58.9312 56.5919 59.0212 56.6639 59.0662 56.7899C59.0662 56.6459 59.1562 56.5559 59.3182 56.4929C59.4802 56.4389 59.6512 56.4209 59.8492 56.4299C60.0472 56.4389 60.2182 56.4929 60.3622 56.5739C60.5062 56.6549 60.5782 56.7629 60.5602 56.9069C60.6232 56.7629 60.7042 56.6909 60.8122 56.6819C60.9202 56.6729 61.0102 56.7089 61.0822 56.7899C61.1542 56.8709 61.1632 56.9789 61.1092 57.1229C61.1902 57.0419 61.2982 57.0329 61.4332 57.0869C61.5682 57.1409 61.7032 57.2309 61.8292 57.3569C61.9552 57.4829 62.0542 57.6179 62.1082 57.7529C62.1622 57.8969 62.1532 58.0049 62.0722 58.0859C62.1802 58.0679 62.2792 58.1039 62.3782 58.1939C62.4682 58.2929 62.5402 58.4189 62.6032 58.5719C62.6662 58.7249 62.6932 58.8869 62.6932 59.0489C62.6932 59.2109 62.6842 59.3639 62.6392 59.4809C62.5942 59.5979 62.5132 59.6789 62.3962 59.7059C62.6122 59.8049 62.7022 59.8769 62.6842 59.9219C62.6662 59.9669 62.5402 59.9489 62.3332 59.8499C62.3332 59.9489 62.2702 60.0209 62.1532 60.0659C62.0362 60.1109 61.8922 60.1379 61.7392 60.1379C61.5862 60.1379 61.4422 60.1109 61.3252 60.0659C61.1992 60.0209 61.1452 59.9489 61.1452 59.8499C61.1452 59.9759 61.0912 60.0659 60.9832 60.1289C60.8752 60.1919 60.7492 60.2279 60.6052 60.2279C60.4612 60.2279 60.3352 60.2009 60.2272 60.1379C60.1192 60.0749 60.0652 59.9849 60.0652 59.8679C60.0652 59.9939 60.0112 60.0929 59.8852 60.1739C59.7592 60.2549 59.6152 60.2999 59.4532 60.3089C59.5252 60.3989 59.5882 60.4889 59.6332 60.5879C59.6782 60.6869 59.7142 60.7769 59.7232 60.8579C59.7952 60.7769 59.9032 60.7049 60.0562 60.6509C60.2092 60.5969 60.3532 60.5519 60.5062 60.5429C60.6592 60.5249 60.7942 60.5429 60.9202 60.5699C61.0372 60.6059 61.1092 60.6689 61.1362 60.7769C61.1362 60.6509 61.1812 60.5519 61.2892 60.4889C61.3882 60.4259 61.5052 60.3899 61.6402 60.3899C61.7752 60.3899 61.8922 60.4259 61.9912 60.4889C62.0902 60.5519 62.1442 60.6509 62.1442 60.7769C62.2882 60.8039 62.3782 60.8669 62.4142 60.9569C62.4412 61.0469 62.4232 61.1279 62.3602 61.1999C62.2972 61.2719 62.1892 61.2899 62.0542 61.2629C62.1172 61.3619 62.1352 61.4519 62.0902 61.5599C62.0452 61.6589 61.9732 61.7399 61.8742 61.8119C61.7752 61.8839 61.6672 61.9199 61.5682 61.9289C61.4602 61.9289 61.3702 61.8929 61.3072 61.8119C61.3522 61.9559 61.3342 62.0729 61.2442 62.1809C61.1632 62.2799 61.0462 62.3609 60.9112 62.4059C60.7672 62.4509 60.6322 62.4509 60.5062 62.4059C60.3802 62.3609 60.2902 62.2709 60.2452 62.1359C60.2632 62.3339 60.2092 62.4689 60.0832 62.5409C59.9662 62.6129 59.8042 62.6219 59.5972 62.5589C59.3902 62.4959 59.1832 62.3609 58.9582 62.1539H58.9042ZM59.3542 59.0219C59.3542 58.8779 59.3992 58.7879 59.4802 58.7699C59.5612 58.7519 59.6152 58.7969 59.6422 58.9049C59.6602 58.8419 59.7052 58.7789 59.7772 58.7159C59.8402 58.6529 59.9122 58.6169 59.9842 58.5989C59.8942 58.5359 59.8222 58.4369 59.7592 58.3109C59.6962 58.1849 59.6782 58.0769 59.7052 57.9779C59.6422 58.0139 59.5612 58.0409 59.4712 58.0409C59.3812 58.0409 59.3002 58.0409 59.2372 58.0049C59.2552 58.0859 59.2552 58.1849 59.2282 58.2929C59.2012 58.4009 59.1562 58.4999 59.0932 58.5899C59.0302 58.6799 58.9582 58.7249 58.8772 58.7339C58.9762 58.7519 59.0482 58.8059 59.0932 58.8869C59.1382 58.9679 59.2282 59.0039 59.3632 59.0039L59.3542 59.0219Z" fill="white"/>
<path d="M28.2593 69.6869C28.0613 69.6869 27.9083 69.6239 27.8093 69.5069C27.7103 69.3809 27.6562 69.2369 27.6562 69.0749C27.6562 68.9129 27.7103 68.7689 27.8093 68.6429C27.9083 68.5259 28.0613 68.4629 28.2593 68.4629C28.0793 68.4629 27.9353 68.3999 27.8363 68.2829C27.7373 68.1659 27.6923 68.0309 27.6923 67.8779C27.6923 67.7249 27.7373 67.5989 27.8363 67.4819C27.9353 67.3649 28.0703 67.3109 28.2593 67.3109C28.1153 67.3109 28.0073 67.2569 27.9263 67.1489C27.8453 67.0409 27.7823 66.9059 27.7643 66.7529C27.7463 66.5999 27.7373 66.4379 27.7643 66.2849C27.7913 66.1319 27.8453 65.9969 27.9263 65.8889C28.0073 65.7809 28.1243 65.7269 28.2593 65.7269C27.9983 65.7269 27.8273 65.6639 27.7373 65.5469C27.6473 65.4299 27.6473 65.3129 27.7373 65.1959C27.8273 65.0789 27.9983 65.0159 28.2593 65.0159C28.0973 64.9979 27.9803 64.9439 27.8993 64.8359C27.8183 64.7279 27.7912 64.6199 27.7912 64.4849C27.7912 64.3499 27.8453 64.2419 27.9353 64.1519C28.0253 64.0619 28.1512 64.0169 28.3132 64.0259C28.3132 63.8099 28.3763 63.6479 28.5023 63.5399C28.6283 63.4319 28.7723 63.3779 28.9343 63.3779C29.0963 63.3779 29.2403 63.4319 29.3663 63.5399C29.4923 63.6479 29.5553 63.8099 29.5553 64.0259C29.5553 63.8819 29.6092 63.7649 29.7262 63.6749C29.8432 63.5939 29.9783 63.5309 30.1493 63.5039C30.3113 63.4769 30.4823 63.4769 30.6443 63.5039C30.8063 63.5309 30.9503 63.5939 31.0673 63.6749C31.1843 63.7559 31.2383 63.8729 31.2383 64.0259C31.2383 63.8099 31.2923 63.6479 31.3913 63.5489C31.4903 63.4499 31.6163 63.3869 31.7513 63.3869C31.8863 63.3869 32.0032 63.4409 32.1022 63.5489C32.2013 63.6569 32.2553 63.8189 32.2553 64.0439C32.2733 63.8549 32.3273 63.7109 32.4173 63.6299C32.4983 63.5489 32.5973 63.5039 32.6963 63.5219C32.7953 63.5399 32.8763 63.5939 32.9483 63.6929C33.0113 63.7919 33.0383 63.9359 33.0113 64.1249C33.0743 63.8909 33.1643 63.7469 33.2723 63.6839C33.3803 63.6209 33.4703 63.6479 33.5333 63.7559C33.5963 63.8639 33.5963 64.0349 33.5333 64.2689C33.6323 64.1429 33.7583 64.0799 33.9023 64.0799C34.0463 64.0799 34.1633 64.1249 34.2803 64.2149C34.3883 64.3049 34.4603 64.4219 34.4963 64.5479C34.5323 64.6829 34.4963 64.8179 34.3883 64.9439C34.5863 64.8989 34.7483 64.9169 34.8653 65.0069C34.9913 65.0879 35.0633 65.2049 35.0993 65.3399C35.1353 65.4839 35.1173 65.6189 35.0453 65.7449C34.9733 65.8799 34.8383 65.9699 34.6403 66.0059C34.8113 66.0689 34.9283 66.1499 34.9823 66.2489C35.0453 66.3569 35.0543 66.4559 35.0183 66.5459C34.9823 66.6449 34.9103 66.7079 34.7933 66.7529C34.6853 66.7979 34.5413 66.7889 34.3703 66.7169C34.5413 66.9419 34.6133 67.1129 34.5953 67.2479C34.5773 67.3829 34.4963 67.4459 34.3523 67.4459C34.2083 67.4459 34.0553 67.3289 33.8843 67.1039C33.9653 67.2029 34.0103 67.3109 34.0193 67.4279C34.2083 67.4999 34.3793 67.6169 34.5143 67.7789C34.6583 67.9409 34.6763 68.1029 34.5953 68.2559C34.7753 68.2109 34.9193 68.2109 35.0273 68.2559C35.1353 68.3009 35.2073 68.3729 35.2343 68.4719C35.2613 68.5709 35.2343 68.6609 35.1713 68.7599C35.1083 68.8589 34.9823 68.9309 34.8023 68.9849C35.0093 69.0299 35.1533 69.1109 35.2433 69.2279C35.3243 69.3449 35.3603 69.4709 35.3333 69.5969C35.3063 69.7229 35.2343 69.8309 35.1083 69.9119C34.9913 69.9929 34.8203 70.0109 34.6043 69.9659C34.7483 70.1099 34.8293 70.2449 34.8293 70.3979C34.8293 70.5509 34.7843 70.6679 34.6853 70.7669C34.5863 70.8659 34.4693 70.9199 34.3163 70.9199C34.1723 70.9199 34.0193 70.8569 33.8753 70.7129C33.9743 70.9379 34.0013 71.1089 33.9653 71.2169C33.9293 71.3249 33.8663 71.3519 33.7583 71.3069C33.6503 71.2619 33.5513 71.1179 33.4613 70.8929C33.4793 71.0549 33.4433 71.1899 33.3353 71.2979C33.2273 71.4059 33.0923 71.4869 32.9303 71.5409C32.7683 71.5949 32.5973 71.6129 32.4173 71.5949C32.2373 71.5769 32.0933 71.5319 31.9673 71.4419C31.8413 71.3609 31.7693 71.2349 31.7423 71.0729C31.7423 71.2709 31.6793 71.4239 31.5623 71.5229C31.4453 71.6309 31.3103 71.6759 31.1483 71.6759C30.9863 71.6759 30.8513 71.6219 30.7343 71.5229C30.6173 71.4239 30.5543 71.2709 30.5543 71.0729C30.5543 71.2439 30.5093 71.3699 30.4193 71.4509C30.3293 71.5319 30.2212 71.5769 30.0952 71.5769C29.9692 71.5769 29.8613 71.5319 29.7713 71.4509C29.6813 71.3699 29.6363 71.2439 29.6363 71.0729C29.6363 71.2169 29.5912 71.3159 29.5012 71.3879C29.4112 71.4599 29.2943 71.4869 29.1503 71.4689C29.0063 71.4509 28.8713 71.3879 28.7363 71.2619C28.6013 71.1359 28.4842 70.9469 28.3942 70.6769C28.3042 70.4159 28.2593 70.0739 28.2683 69.6419L28.2593 69.6869ZM30.3563 66.1949C30.4733 66.1949 30.5633 66.2399 30.6173 66.3389C30.6713 66.4379 30.7073 66.5459 30.7253 66.6629C30.7433 66.7799 30.7433 66.8699 30.7433 66.9149C30.7613 66.7979 30.8063 66.7169 30.8963 66.6719C30.9863 66.6269 31.0763 66.6269 31.1753 66.6539C31.2743 66.6899 31.3283 66.7529 31.3553 66.8609C31.3373 66.7259 31.4003 66.6269 31.5443 66.5639C31.6883 66.5009 31.8053 66.4919 31.9223 66.5459C31.9043 66.4649 31.9223 66.3839 31.9673 66.2939C32.0123 66.2129 32.0843 66.1499 32.1743 66.1229C32.1023 66.0779 32.0393 66.0059 32.0033 65.9069C31.9583 65.8079 31.9493 65.7179 31.9673 65.6369C31.9043 65.6819 31.8593 65.6909 31.8142 65.6549C31.7692 65.6279 31.7603 65.5739 31.7783 65.4929C31.6883 65.6009 31.5623 65.6549 31.3823 65.6459C31.2023 65.6369 31.0853 65.5739 31.0133 65.4479C31.0133 65.5379 30.9772 65.6099 30.9142 65.6729C30.8512 65.7359 30.7703 65.7629 30.6803 65.7629C30.7163 65.8529 30.7073 65.9429 30.6533 66.0329C30.5993 66.1229 30.5003 66.1679 30.3563 66.1679V66.1949ZM31.3642 69.8759C31.3642 69.7499 31.4093 69.6689 31.5173 69.6149C31.6253 69.5609 31.7243 69.5609 31.8323 69.5879C31.7963 69.4619 31.8053 69.3269 31.8593 69.1829C31.9133 69.0389 31.9943 68.9309 32.1113 68.8589C31.9943 68.8049 31.8863 68.7239 31.7873 68.6249C31.6883 68.5169 31.6343 68.4089 31.6253 68.3009C31.5623 68.3999 31.4723 68.4539 31.3373 68.4809C31.2023 68.4989 31.0763 68.4989 30.9593 68.4629C30.9773 68.5799 30.9503 68.6879 30.8693 68.7959C30.7883 68.9039 30.6802 68.9399 30.5452 68.9309C30.6532 68.9939 30.7253 69.1019 30.7702 69.2549C30.8062 69.3989 30.8153 69.5339 30.7883 69.6509C30.8963 69.5969 31.0223 69.5969 31.1663 69.6329C31.3103 69.6779 31.3733 69.7589 31.3733 69.8939L31.3642 69.8759Z" fill="white"/>
<path d="M36.1873 70.6227C36.1063 70.6227 36.0343 70.5777 35.9803 70.4787C35.9263 70.3797 35.8903 70.2537 35.8633 70.1007C35.8453 69.9477 35.8363 69.7947 35.8453 69.6417C35.8543 69.4887 35.8813 69.3537 35.9263 69.2457C35.9713 69.1377 36.0343 69.0837 36.1243 69.0837C36.0883 69.0207 36.1063 68.9397 36.1783 68.8407C36.2503 68.7417 36.3583 68.6517 36.4933 68.5617C36.6283 68.4717 36.7723 68.3907 36.9253 68.3277C37.0783 68.2647 37.2133 68.2197 37.3303 68.2107C37.4473 68.2017 37.5283 68.2197 37.5643 68.2917C37.5463 68.1927 37.5823 68.1117 37.6723 68.0397C37.7623 67.9677 37.8613 67.9137 37.9963 67.8777C38.1313 67.8417 38.2573 67.8237 38.3923 67.8327C38.5183 67.8327 38.6263 67.8777 38.6983 67.9407C38.6713 67.8237 38.6983 67.6977 38.8063 67.5537C38.6173 67.5537 38.4553 67.5177 38.2933 67.4637C38.1403 67.4097 38.0683 67.3287 38.0683 67.2387C38.0683 67.3467 38.0233 67.4277 37.9333 67.4817C37.8433 67.5357 37.7443 67.5627 37.6273 67.5627C37.5103 67.5627 37.4113 67.5357 37.3213 67.4817C37.2313 67.4277 37.1863 67.3467 37.1863 67.2387C37.1233 67.3467 37.0333 67.4097 36.9343 67.4277C36.8353 67.4457 36.7273 67.4277 36.6283 67.3647C36.5293 67.3017 36.4573 67.2297 36.4123 67.1307C36.3673 67.0317 36.3763 66.9237 36.4483 66.8157C36.3223 66.6717 36.2773 66.5457 36.3133 66.4377C36.3493 66.3207 36.4213 66.2577 36.5383 66.2307C36.6553 66.2127 36.7813 66.2667 36.9073 66.4107C36.8173 66.2397 36.7993 66.1047 36.8443 66.0147C36.8893 65.9157 36.9613 65.8797 37.0603 65.8977C37.1593 65.9157 37.2493 66.0147 37.3393 66.1947C37.3123 66.0777 37.3303 65.9787 37.3843 65.8887C37.4473 65.8077 37.5283 65.7447 37.6363 65.7177C37.7443 65.6907 37.8433 65.6907 37.9423 65.7267C38.0413 65.7627 38.1043 65.8437 38.1313 65.9607C38.1313 65.8167 38.1763 65.6997 38.2753 65.6277C38.3743 65.5467 38.5003 65.5107 38.6443 65.5017C38.7883 65.5017 38.9053 65.5197 39.0223 65.5917C39.1393 65.6637 39.1933 65.7627 39.2023 65.9157C39.2203 65.7177 39.2653 65.5917 39.3553 65.5287C39.4453 65.4747 39.5263 65.4747 39.5983 65.5467C39.6703 65.6187 39.6973 65.7537 39.6883 65.9517C39.7243 65.8167 39.7963 65.7357 39.8953 65.6907C39.9943 65.6457 40.1113 65.6457 40.2193 65.6817C40.3363 65.7177 40.4263 65.7807 40.4893 65.8707C40.5523 65.9607 40.5703 66.0687 40.5343 66.1947C40.6153 66.0867 40.7143 66.0417 40.8223 66.0417C40.9303 66.0417 41.0383 66.0867 41.1283 66.1497C41.2183 66.2217 41.2813 66.3117 41.3083 66.4197C41.3353 66.5277 41.3083 66.6357 41.2273 66.7437C41.4073 66.6627 41.5513 66.6627 41.6593 66.7437C41.7673 66.8247 41.8213 66.9327 41.8033 67.0677C41.7853 67.2027 41.6953 67.3107 41.5153 67.3917C41.6593 67.3917 41.7763 67.4457 41.8483 67.5807C41.9293 67.7157 41.9743 67.8777 41.9833 68.0487C41.9923 68.2197 41.9653 68.3817 41.9023 68.5257C41.8393 68.6697 41.7313 68.7417 41.5783 68.7507C41.6953 68.7507 41.7853 68.7957 41.8393 68.8857C41.9023 68.9757 41.9293 69.0837 41.9293 69.2097C41.9293 69.3357 41.9023 69.4347 41.8393 69.5337C41.7763 69.6237 41.6953 69.6687 41.5783 69.6687C41.7133 69.6687 41.8213 69.7227 41.9023 69.8217C41.9833 69.9207 42.0373 70.0467 42.0733 70.1997C42.1093 70.3527 42.1093 70.5057 42.0913 70.6587C42.0733 70.8117 42.0193 70.9467 41.9473 71.0547C41.8753 71.1627 41.7763 71.2167 41.6503 71.2257C41.6503 71.3427 41.5873 71.4417 41.4793 71.5137C41.3713 71.5857 41.2453 71.6307 41.0833 71.6577C40.9303 71.6757 40.7683 71.6757 40.6153 71.6577C40.4533 71.6307 40.3273 71.5767 40.2193 71.5047C40.1113 71.4237 40.0663 71.3337 40.0663 71.2077C40.0663 71.3967 40.0303 71.5137 39.9403 71.5857C39.8593 71.6487 39.7783 71.6577 39.6973 71.5857C39.6163 71.5137 39.5713 71.3967 39.5713 71.2077C39.4723 71.3247 39.3733 71.3877 39.2743 71.3967C39.1753 71.3967 39.0853 71.3787 39.0133 71.3067C38.9413 71.2347 38.9143 71.1627 38.9233 71.0637C38.8063 71.1627 38.6173 71.2257 38.3563 71.2617C38.0953 71.2977 37.7803 71.2797 37.4023 71.1897C37.0243 71.1087 36.6193 70.9287 36.1783 70.6677L36.1873 70.6227ZM39.0133 70.0827C38.9503 70.0467 38.9233 69.9837 38.9323 69.8847C38.9503 69.7857 38.9863 69.6867 39.0403 69.5787C39.0943 69.4707 39.1573 69.3717 39.2293 69.2997C39.1663 69.2817 39.1033 69.2547 39.0493 69.2007C38.9953 69.1467 38.9593 69.0927 38.9413 69.0207C38.8873 69.0927 38.8153 69.1557 38.7073 69.2007C38.6083 69.2457 38.5003 69.2727 38.3923 69.2817C38.2843 69.2817 38.2033 69.2727 38.1313 69.2277C38.1493 69.2907 38.1313 69.3537 38.0863 69.4077C38.1853 69.4437 38.3023 69.5067 38.4193 69.6057C38.5453 69.7047 38.6533 69.7947 38.7523 69.8937C38.8513 69.9927 38.9323 70.0557 38.9953 70.0827H39.0133Z" fill="white"/>
<path d="M43.0817 70.398C42.8657 70.398 42.7217 70.353 42.6497 70.263C42.5777 70.173 42.5777 70.083 42.6497 70.002C42.7217 69.912 42.8657 69.867 43.0817 69.867C42.9377 69.867 42.8207 69.822 42.7487 69.723C42.6767 69.624 42.6407 69.507 42.6407 69.39C42.6407 69.273 42.6767 69.156 42.7487 69.057C42.8207 68.958 42.9287 68.904 43.0817 68.904C42.9557 68.904 42.8567 68.85 42.7757 68.724C42.6947 68.607 42.6497 68.463 42.6227 68.292C42.5957 68.121 42.5957 67.95 42.6227 67.779C42.6497 67.608 42.7037 67.464 42.7757 67.347C42.8567 67.23 42.9557 67.167 43.0817 67.167C42.9827 67.167 42.9107 67.113 42.8477 67.005C42.7847 66.897 42.7487 66.762 42.7307 66.609C42.7127 66.447 42.7127 66.294 42.7307 66.132C42.7487 65.97 42.7937 65.844 42.8477 65.736C42.9107 65.628 42.9917 65.574 43.0817 65.574C42.9377 65.574 42.8207 65.52 42.7487 65.412C42.6767 65.304 42.6407 65.178 42.6407 65.043C42.6407 64.908 42.6767 64.782 42.7487 64.674C42.8207 64.566 42.9287 64.512 43.0817 64.512C42.9017 64.53 42.7847 64.485 42.7127 64.377C42.6407 64.278 42.6317 64.161 42.6767 64.044C42.7217 63.927 42.8387 63.864 43.0097 63.846C43.0097 63.72 43.0547 63.63 43.1357 63.567C43.2167 63.504 43.2977 63.477 43.3967 63.477C43.4957 63.477 43.5767 63.513 43.6487 63.585C43.7207 63.648 43.7567 63.747 43.7567 63.873C43.7567 63.729 43.8107 63.621 43.9367 63.54C44.0627 63.459 44.2157 63.414 44.3867 63.405C44.5577 63.396 44.7107 63.423 44.8547 63.495C44.9897 63.558 45.0617 63.666 45.0707 63.801C45.2057 63.801 45.3047 63.891 45.3677 64.035C45.4307 64.188 45.4577 64.359 45.4577 64.557C45.4577 64.755 45.4217 64.926 45.3497 65.079C45.2777 65.223 45.1787 65.304 45.0437 65.304C45.1607 65.304 45.2507 65.358 45.3047 65.475C45.3677 65.592 45.3947 65.727 45.3947 65.88C45.3947 66.033 45.3677 66.168 45.3047 66.285C45.2417 66.402 45.1607 66.456 45.0437 66.456C45.1787 66.456 45.2777 66.51 45.3407 66.636C45.4037 66.762 45.4397 66.897 45.4307 67.032C45.4487 67.032 45.4667 67.05 45.4847 67.068C45.5027 66.933 45.5747 66.825 45.7007 66.735C45.8267 66.645 45.9527 66.645 46.0967 66.735C45.9977 66.672 45.9527 66.582 45.9707 66.474C45.9887 66.366 46.0427 66.276 46.1237 66.213C46.2047 66.15 46.3037 66.15 46.4207 66.213C46.4027 66.096 46.4477 65.997 46.5557 65.907C46.6727 65.826 46.8077 65.763 46.9787 65.727C47.1407 65.691 47.2937 65.691 47.4287 65.727C47.5637 65.763 47.6447 65.844 47.6627 65.961C47.6627 65.79 47.7077 65.682 47.7977 65.628C47.8877 65.574 47.9777 65.574 48.0587 65.628C48.1397 65.682 48.1937 65.799 48.1937 65.961C48.1937 65.781 48.2387 65.655 48.3467 65.592C48.4547 65.529 48.5627 65.529 48.6707 65.592C48.7787 65.655 48.8327 65.772 48.8327 65.961C48.9317 66.024 48.9677 66.123 48.9497 66.249C48.9317 66.375 48.8867 66.501 48.7967 66.618C48.7157 66.735 48.6167 66.825 48.5087 66.879C48.4007 66.933 48.2927 66.933 48.2027 66.861C48.3107 66.942 48.3467 67.068 48.3107 67.239C48.2747 67.41 48.1937 67.581 48.0767 67.743C47.9597 67.905 47.8247 68.031 47.6807 68.103C47.8067 68.157 47.9057 68.247 47.9687 68.382C48.0317 68.517 48.0587 68.652 48.0317 68.787C48.0137 68.922 47.9237 69.021 47.7887 69.084C47.8877 69.039 48.0047 69.066 48.1397 69.156C48.2657 69.246 48.3827 69.372 48.4817 69.534C48.5807 69.696 48.6437 69.849 48.6617 70.002C48.6797 70.155 48.6437 70.263 48.5357 70.326C48.6437 70.263 48.7607 70.254 48.8687 70.299C48.9767 70.344 49.0667 70.425 49.1297 70.533C49.1927 70.641 49.2287 70.749 49.2197 70.866C49.2107 70.983 49.1567 71.082 49.0487 71.154C49.0487 71.298 48.9857 71.415 48.8507 71.487C48.7247 71.559 48.5717 71.595 48.4097 71.595C48.2477 71.595 48.0947 71.559 47.9687 71.487C47.8427 71.415 47.7797 71.307 47.7797 71.154C47.7617 71.298 47.6987 71.388 47.5727 71.451C47.4467 71.505 47.3117 71.523 47.1587 71.505C47.0057 71.487 46.8797 71.433 46.7627 71.352C46.6547 71.271 46.6007 71.163 46.6187 71.019C46.4567 71.118 46.3307 71.145 46.2317 71.109C46.1327 71.073 46.0967 71.001 46.1147 70.902C46.1327 70.803 46.2137 70.704 46.3667 70.605C46.2857 70.659 46.1867 70.641 46.0697 70.56C45.9527 70.479 45.8447 70.362 45.7457 70.218C45.6377 70.074 45.5567 69.921 45.5027 69.768C45.4037 69.849 45.2957 69.876 45.1787 69.849C45.2417 69.939 45.2867 70.065 45.2957 70.227C45.3047 70.389 45.2957 70.533 45.2507 70.668C45.2057 70.803 45.1337 70.866 45.0257 70.866C45.0977 71.028 45.0977 71.163 45.0077 71.262C44.9267 71.361 44.8187 71.406 44.6837 71.406C44.5577 71.406 44.4497 71.316 44.3777 71.154C44.3777 71.262 44.3327 71.352 44.2517 71.406C44.1707 71.46 44.0717 71.496 43.9637 71.496C43.8557 71.496 43.7567 71.469 43.6757 71.406C43.5947 71.343 43.5497 71.262 43.5497 71.154C43.5497 71.352 43.5047 71.478 43.4237 71.523C43.3427 71.568 43.2617 71.505 43.1717 71.334C43.0907 71.154 43.0457 70.839 43.0367 70.38L43.0817 70.398Z" fill="white"/>
<path d="M52.0194 71.2438C51.9744 71.3968 51.8934 71.4958 51.7764 71.5498C51.6594 71.5948 51.5334 71.6038 51.4074 71.5678C51.2814 71.5318 51.1734 71.4688 51.0924 71.3608C51.0114 71.2618 50.9934 71.1268 51.0384 70.9738C50.9574 71.0818 50.8584 71.1448 50.7504 71.1538C50.6424 71.1628 50.5434 71.1358 50.4444 71.0728C50.3454 71.0098 50.2914 70.9198 50.2644 70.8118C50.2374 70.7038 50.2644 70.5958 50.3544 70.4788C50.2464 70.5328 50.1294 70.5058 50.0214 70.4068C49.9134 70.3078 49.8144 70.1728 49.7424 70.0108C49.6704 69.8488 49.6344 69.6868 49.6344 69.5428C49.6344 69.3988 49.6884 69.2998 49.7964 69.2458C49.6614 69.2458 49.5624 69.1828 49.4994 69.0568C49.4364 68.9308 49.4004 68.7868 49.4004 68.6158C49.4004 68.4448 49.4364 68.3008 49.4994 68.1748C49.5624 68.0488 49.6614 67.9858 49.7874 67.9858C49.5894 67.9318 49.4724 67.8418 49.4364 67.7248C49.4004 67.6078 49.4274 67.5088 49.5174 67.4278C49.6074 67.3468 49.7514 67.3378 49.9494 67.3918C49.8864 67.3378 49.8594 67.2478 49.8864 67.1308C49.9134 67.0138 49.9674 66.8968 50.0574 66.7708C50.1474 66.6448 50.2464 66.5368 50.3544 66.4378C50.4624 66.3388 50.5704 66.2668 50.6784 66.2218C50.7864 66.1768 50.8674 66.1858 50.9394 66.2398C50.9034 66.1138 50.9394 66.0058 51.0474 65.9068C51.1554 65.8078 51.2904 65.7358 51.4524 65.6908C51.6144 65.6458 51.7674 65.6278 51.9024 65.6548C52.0464 65.6818 52.1274 65.7538 52.1634 65.8798C52.1634 65.7358 52.2534 65.6458 52.4154 65.5828C52.5774 65.5288 52.7484 65.5108 52.9464 65.5198C53.1444 65.5288 53.3154 65.5828 53.4594 65.6638C53.6034 65.7448 53.6754 65.8528 53.6574 65.9968C53.7114 65.8528 53.8014 65.7808 53.9094 65.7718C54.0174 65.7628 54.1074 65.7988 54.1704 65.8798C54.2424 65.9608 54.2514 66.0688 54.1974 66.2128C54.2784 66.1318 54.3864 66.1228 54.5214 66.1768C54.6564 66.2308 54.7914 66.3208 54.9174 66.4468C55.0434 66.5728 55.1424 66.7078 55.1964 66.8428C55.2504 66.9778 55.2414 67.0948 55.1604 67.1758C55.2684 67.1578 55.3674 67.1938 55.4664 67.2838C55.5564 67.3828 55.6284 67.5088 55.6824 67.6618C55.7364 67.8148 55.7724 67.9768 55.7724 68.1388C55.7724 68.3008 55.7634 68.4538 55.7184 68.5708C55.6734 68.6968 55.5924 68.7688 55.4754 68.7958C55.6914 68.8948 55.7814 68.9668 55.7634 69.0118C55.7454 69.0568 55.6194 69.0388 55.4124 68.9398C55.4124 69.0388 55.3494 69.1108 55.2324 69.1558C55.1064 69.2008 54.9714 69.2278 54.8184 69.2278C54.6654 69.2278 54.5214 69.2008 54.4044 69.1558C54.2874 69.1108 54.2244 69.0388 54.2244 68.9398C54.2244 69.0658 54.1704 69.1558 54.0534 69.2188C53.9454 69.2818 53.8194 69.3178 53.6754 69.3178C53.5314 69.3178 53.4054 69.2908 53.2974 69.2278C53.1894 69.1648 53.1354 69.0748 53.1354 68.9578C53.1354 69.0838 53.0814 69.1828 52.9554 69.2638C52.8294 69.3448 52.6854 69.3898 52.5234 69.3988C52.5954 69.4888 52.6584 69.5788 52.7034 69.6778C52.7484 69.7768 52.7844 69.8668 52.7934 69.9478C52.8654 69.8668 52.9734 69.7948 53.1264 69.7408C53.2704 69.6778 53.4234 69.6418 53.5764 69.6328C53.7294 69.6148 53.8734 69.6328 53.9904 69.6598C54.1164 69.6958 54.1884 69.7588 54.2064 69.8668C54.2064 69.7408 54.2514 69.6418 54.3504 69.5788C54.4494 69.5158 54.5664 69.4798 54.7014 69.4798C54.8364 69.4798 54.9534 69.5158 55.0524 69.5788C55.1514 69.6418 55.1964 69.7408 55.1964 69.8668C55.3404 69.8938 55.4304 69.9568 55.4664 70.0468C55.4934 70.1368 55.4754 70.2178 55.4124 70.2898C55.3494 70.3618 55.2414 70.3798 55.1064 70.3528C55.1694 70.4518 55.1874 70.5418 55.1424 70.6498C55.0974 70.7488 55.0254 70.8298 54.9264 70.9018C54.8274 70.9738 54.7194 71.0098 54.6204 71.0188C54.5214 71.0278 54.4314 70.9828 54.3594 70.9018C54.4044 71.0458 54.3864 71.1628 54.2964 71.2708C54.2154 71.3698 54.0984 71.4508 53.9634 71.4958C53.8284 71.5408 53.6934 71.5408 53.5584 71.4958C53.4324 71.4508 53.3424 71.3608 53.2974 71.2258C53.3154 71.4238 53.2614 71.5588 53.1354 71.6308C53.0094 71.7028 52.8474 71.7118 52.6494 71.6488C52.4424 71.5858 52.2354 71.4508 52.0104 71.2438H52.0194ZM52.4694 68.1118C52.4694 67.9678 52.5144 67.8778 52.5864 67.8598C52.6674 67.8418 52.7214 67.8868 52.7484 67.9948C52.7664 67.9318 52.8114 67.8688 52.8834 67.8058C52.9464 67.7428 53.0184 67.7068 53.0904 67.6888C53.0004 67.6258 52.9284 67.5268 52.8654 67.4008C52.8024 67.2748 52.7844 67.1668 52.8114 67.0678C52.7484 67.1038 52.6674 67.1308 52.5774 67.1308C52.4874 67.1308 52.4064 67.1308 52.3434 67.0948C52.3614 67.1758 52.3614 67.2748 52.3344 67.3828C52.3074 67.4908 52.2534 67.5898 52.1994 67.6798C52.1364 67.7698 52.0644 67.8148 51.9834 67.8238C52.0824 67.8418 52.1544 67.8958 52.1994 67.9768C52.2444 68.0578 52.3344 68.0938 52.4694 68.0938V68.1118Z" fill="white"/>
<path d="M58.9042 71.2438C58.8592 71.3968 58.7782 71.4958 58.6612 71.5498C58.5442 71.6038 58.4182 71.6038 58.2922 71.5678C58.1662 71.5318 58.0582 71.4688 57.9772 71.3608C57.8962 71.2618 57.8782 71.1268 57.9232 70.9738C57.8422 71.0818 57.7432 71.1448 57.6352 71.1538C57.5272 71.1628 57.4282 71.1358 57.3292 71.0728C57.2392 71.0098 57.1762 70.9198 57.1492 70.8118C57.1222 70.7038 57.1492 70.5958 57.2392 70.4788C57.1312 70.5328 57.0232 70.5058 56.9062 70.4068C56.7982 70.3078 56.6992 70.1728 56.6272 70.0108C56.5552 69.8488 56.5192 69.6868 56.5192 69.5428C56.5192 69.3988 56.5732 69.2998 56.6812 69.2458C56.5462 69.2458 56.4472 69.1828 56.3842 69.0568C56.3212 68.9308 56.2852 68.7868 56.2852 68.6158C56.2852 68.4448 56.3212 68.3008 56.3842 68.1748C56.4472 68.0488 56.5462 67.9858 56.6722 67.9858C56.4742 67.9318 56.3572 67.8418 56.3212 67.7248C56.2852 67.6078 56.3212 67.5088 56.4022 67.4278C56.4922 67.3468 56.6362 67.3378 56.8432 67.3918C56.7802 67.3378 56.7532 67.2478 56.7802 67.1308C56.8072 67.0138 56.8612 66.8968 56.9512 66.7708C57.0412 66.6448 57.1402 66.5368 57.2482 66.4378C57.3562 66.3388 57.4642 66.2668 57.5722 66.2218C57.6802 66.1768 57.7702 66.1858 57.8332 66.2398C57.7972 66.1138 57.8332 66.0058 57.9412 65.9068C58.0492 65.8078 58.1842 65.7358 58.3462 65.6908C58.5082 65.6458 58.6612 65.6278 58.7962 65.6548C58.9312 65.6818 59.0212 65.7538 59.0662 65.8798C59.0662 65.7358 59.1562 65.6458 59.3182 65.5828C59.4802 65.5288 59.6512 65.5108 59.8492 65.5198C60.0472 65.5288 60.2182 65.5828 60.3622 65.6638C60.5062 65.7448 60.5782 65.8528 60.5602 65.9968C60.6232 65.8528 60.7042 65.7808 60.8122 65.7718C60.9202 65.7628 61.0102 65.7988 61.0822 65.8798C61.1542 65.9608 61.1632 66.0688 61.1092 66.2128C61.1902 66.1318 61.2982 66.1228 61.4332 66.1768C61.5682 66.2308 61.7032 66.3208 61.8292 66.4468C61.9552 66.5728 62.0542 66.7078 62.1082 66.8428C62.1622 66.9868 62.1532 67.0948 62.0722 67.1758C62.1802 67.1578 62.2792 67.1938 62.3782 67.2838C62.4682 67.3828 62.5402 67.5088 62.6032 67.6618C62.6662 67.8148 62.6932 67.9768 62.6932 68.1388C62.6932 68.3008 62.6842 68.4538 62.6392 68.5708C62.5942 68.6878 62.5132 68.7688 62.3962 68.7958C62.6122 68.8948 62.7022 68.9668 62.6842 69.0118C62.6662 69.0568 62.5402 69.0388 62.3332 68.9398C62.3332 69.0388 62.2702 69.1108 62.1532 69.1558C62.0362 69.2008 61.8922 69.2278 61.7392 69.2278C61.5862 69.2278 61.4422 69.2008 61.3252 69.1558C61.1992 69.1108 61.1452 69.0388 61.1452 68.9398C61.1452 69.0658 61.0912 69.1558 60.9832 69.2188C60.8752 69.2818 60.7492 69.3178 60.6052 69.3178C60.4612 69.3178 60.3352 69.2908 60.2272 69.2278C60.1192 69.1648 60.0652 69.0748 60.0652 68.9578C60.0652 69.0838 60.0112 69.1828 59.8852 69.2638C59.7592 69.3448 59.6152 69.3898 59.4532 69.3988C59.5252 69.4888 59.5882 69.5788 59.6332 69.6778C59.6782 69.7768 59.7142 69.8668 59.7232 69.9478C59.7952 69.8668 59.9032 69.7948 60.0562 69.7408C60.2092 69.6868 60.3532 69.6418 60.5062 69.6328C60.6592 69.6148 60.7942 69.6328 60.9202 69.6598C61.0372 69.6958 61.1092 69.7588 61.1362 69.8668C61.1362 69.7408 61.1812 69.6418 61.2892 69.5788C61.3882 69.5158 61.5052 69.4798 61.6402 69.4798C61.7752 69.4798 61.8922 69.5158 61.9912 69.5788C62.0902 69.6418 62.1442 69.7408 62.1442 69.8668C62.2882 69.8938 62.3782 69.9568 62.4142 70.0468C62.4412 70.1368 62.4232 70.2178 62.3602 70.2898C62.2972 70.3618 62.1892 70.3798 62.0542 70.3528C62.1172 70.4518 62.1352 70.5418 62.0902 70.6498C62.0452 70.7488 61.9732 70.8298 61.8742 70.9018C61.7752 70.9738 61.6672 71.0098 61.5682 71.0188C61.4602 71.0188 61.3702 70.9828 61.3072 70.9018C61.3522 71.0458 61.3342 71.1628 61.2442 71.2708C61.1632 71.3698 61.0462 71.4508 60.9112 71.4958C60.7672 71.5408 60.6322 71.5408 60.5062 71.4958C60.3802 71.4508 60.2902 71.3608 60.2452 71.2258C60.2632 71.4238 60.2092 71.5588 60.0832 71.6308C59.9662 71.7028 59.8042 71.7118 59.5972 71.6488C59.3902 71.5858 59.1832 71.4508 58.9582 71.2438H58.9042ZM59.3542 68.1118C59.3542 67.9678 59.3992 67.8778 59.4802 67.8598C59.5612 67.8418 59.6152 67.8868 59.6422 67.9948C59.6602 67.9318 59.7052 67.8688 59.7772 67.8058C59.8402 67.7428 59.9122 67.7068 59.9842 67.6888C59.8942 67.6258 59.8222 67.5268 59.7592 67.4008C59.6962 67.2748 59.6782 67.1668 59.7052 67.0678C59.6422 67.1038 59.5612 67.1308 59.4712 67.1308C59.3812 67.1308 59.3002 67.1308 59.2372 67.0948C59.2552 67.1758 59.2552 67.2748 59.2282 67.3828C59.2012 67.4908 59.1562 67.5898 59.0932 67.6798C59.0302 67.7698 58.9582 67.8148 58.8772 67.8238C58.9762 67.8418 59.0482 67.8958 59.0932 67.9768C59.1382 68.0578 59.2282 68.0938 59.3632 68.0938L59.3542 68.1118Z" fill="white"/>
<path d="M28.2593 78.849C28.0613 78.849 27.9083 78.786 27.8093 78.669C27.7103 78.543 27.6562 78.399 27.6562 78.237C27.6562 78.075 27.7103 77.931 27.8093 77.805C27.9083 77.688 28.0613 77.625 28.2593 77.625C28.0793 77.625 27.9353 77.562 27.8363 77.445C27.7373 77.328 27.6923 77.193 27.6923 77.04C27.6923 76.887 27.7373 76.761 27.8363 76.644C27.9353 76.527 28.0703 76.473 28.2593 76.473C28.1153 76.473 28.0073 76.419 27.9263 76.311C27.8453 76.203 27.7823 76.068 27.7643 75.915C27.7463 75.762 27.7373 75.6 27.7643 75.447C27.7913 75.294 27.8453 75.159 27.9263 75.051C28.0073 74.943 28.1243 74.889 28.2593 74.889C27.9983 74.889 27.8273 74.826 27.7373 74.709C27.6473 74.592 27.6473 74.475 27.7373 74.358C27.8273 74.241 27.9983 74.178 28.2593 74.178C28.0973 74.16 27.9803 74.106 27.8993 73.998C27.8183 73.89 27.7912 73.782 27.7912 73.647C27.7912 73.512 27.8453 73.404 27.9353 73.314C28.0253 73.224 28.1512 73.179 28.3132 73.188C28.3132 72.972 28.3763 72.81 28.5023 72.702C28.6283 72.594 28.7723 72.54 28.9343 72.54C29.0963 72.54 29.2403 72.594 29.3663 72.702C29.4923 72.81 29.5553 72.972 29.5553 73.188C29.5553 73.044 29.6092 72.927 29.7262 72.837C29.8432 72.756 29.9783 72.693 30.1493 72.666C30.3113 72.639 30.4823 72.639 30.6443 72.666C30.8063 72.693 30.9503 72.756 31.0673 72.837C31.1843 72.918 31.2383 73.035 31.2383 73.188C31.2383 72.972 31.2923 72.81 31.3913 72.711C31.4903 72.612 31.6163 72.549 31.7513 72.549C31.8863 72.549 32.0032 72.603 32.1022 72.711C32.2013 72.819 32.2553 72.981 32.2553 73.206C32.2733 73.017 32.3273 72.873 32.4173 72.792C32.4983 72.711 32.5973 72.666 32.6963 72.684C32.7953 72.702 32.8763 72.756 32.9483 72.855C33.0113 72.954 33.0383 73.098 33.0113 73.287C33.0743 73.053 33.1643 72.909 33.2723 72.846C33.3803 72.783 33.4703 72.81 33.5333 72.918C33.5963 73.026 33.5963 73.197 33.5333 73.431C33.6323 73.305 33.7583 73.242 33.9023 73.242C34.0463 73.242 34.1633 73.287 34.2803 73.377C34.3883 73.467 34.4603 73.584 34.4963 73.71C34.5323 73.845 34.4963 73.98 34.3883 74.106C34.5863 74.061 34.7483 74.079 34.8653 74.169C34.9913 74.25 35.0633 74.367 35.0993 74.502C35.1353 74.646 35.1173 74.781 35.0453 74.907C34.9733 75.042 34.8383 75.132 34.6403 75.168C34.8113 75.231 34.9283 75.312 34.9823 75.411C35.0453 75.519 35.0543 75.618 35.0183 75.708C34.9823 75.807 34.9103 75.87 34.7933 75.915C34.6853 75.96 34.5413 75.951 34.3703 75.879C34.5413 76.104 34.6133 76.275 34.5953 76.41C34.5773 76.545 34.4963 76.608 34.3523 76.608C34.2083 76.608 34.0553 76.491 33.8843 76.266C33.9653 76.365 34.0103 76.473 34.0193 76.59C34.2083 76.662 34.3793 76.779 34.5143 76.941C34.6583 77.103 34.6763 77.265 34.5953 77.418C34.7753 77.373 34.9193 77.373 35.0273 77.418C35.1353 77.463 35.2073 77.535 35.2343 77.634C35.2613 77.733 35.2343 77.823 35.1713 77.922C35.1083 78.021 34.9823 78.093 34.8023 78.147C35.0093 78.192 35.1533 78.273 35.2433 78.39C35.3243 78.507 35.3603 78.633 35.3333 78.759C35.3063 78.885 35.2343 78.993 35.1083 79.074C34.9913 79.155 34.8203 79.173 34.6043 79.128C34.7483 79.272 34.8293 79.407 34.8293 79.56C34.8293 79.713 34.7843 79.83 34.6853 79.929C34.5863 80.028 34.4693 80.082 34.3163 80.082C34.1723 80.082 34.0193 80.019 33.8753 79.875C33.9743 80.1 34.0013 80.271 33.9653 80.379C33.9293 80.487 33.8663 80.514 33.7583 80.469C33.6503 80.424 33.5513 80.28 33.4613 80.055C33.4793 80.217 33.4433 80.352 33.3353 80.46C33.2273 80.568 33.0923 80.649 32.9303 80.703C32.7683 80.757 32.5973 80.775 32.4173 80.757C32.2373 80.739 32.0933 80.694 31.9673 80.604C31.8413 80.523 31.7693 80.397 31.7423 80.235C31.7423 80.433 31.6793 80.586 31.5623 80.685C31.4453 80.793 31.3103 80.838 31.1483 80.838C30.9863 80.838 30.8513 80.784 30.7343 80.685C30.6173 80.586 30.5543 80.433 30.5543 80.235C30.5543 80.406 30.5093 80.532 30.4193 80.613C30.3293 80.694 30.2212 80.739 30.0952 80.739C29.9692 80.739 29.8613 80.694 29.7713 80.613C29.6813 80.532 29.6363 80.406 29.6363 80.235C29.6363 80.379 29.5912 80.478 29.5012 80.55C29.4112 80.622 29.2943 80.649 29.1503 80.631C29.0063 80.613 28.8713 80.55 28.7363 80.424C28.6013 80.298 28.4842 80.109 28.3942 79.839C28.3042 79.578 28.2593 79.236 28.2683 78.804L28.2593 78.849ZM30.3563 75.357C30.4733 75.357 30.5633 75.402 30.6173 75.501C30.6713 75.6 30.7073 75.708 30.7253 75.825C30.7433 75.942 30.7433 76.032 30.7433 76.077C30.7613 75.96 30.8063 75.879 30.8963 75.834C30.9863 75.789 31.0763 75.789 31.1753 75.816C31.2743 75.852 31.3283 75.915 31.3553 76.023C31.3373 75.888 31.4003 75.789 31.5443 75.726C31.6883 75.663 31.8053 75.654 31.9223 75.708C31.9043 75.627 31.9223 75.546 31.9673 75.456C32.0123 75.375 32.0843 75.312 32.1743 75.285C32.1023 75.24 32.0393 75.168 32.0033 75.069C31.9583 74.97 31.9493 74.88 31.9673 74.799C31.9043 74.844 31.8593 74.853 31.8142 74.817C31.7692 74.79 31.7603 74.736 31.7783 74.655C31.6883 74.763 31.5623 74.817 31.3823 74.808C31.2023 74.799 31.0853 74.736 31.0133 74.61C31.0133 74.7 30.9772 74.772 30.9142 74.835C30.8512 74.898 30.7703 74.925 30.6803 74.925C30.7163 75.015 30.7073 75.105 30.6533 75.195C30.5993 75.285 30.5003 75.33 30.3563 75.33V75.357ZM31.3642 79.038C31.3642 78.912 31.4093 78.831 31.5173 78.777C31.6253 78.723 31.7243 78.723 31.8323 78.75C31.7963 78.624 31.8053 78.489 31.8593 78.345C31.9133 78.201 31.9943 78.093 32.1113 78.021C31.9943 77.967 31.8863 77.886 31.7873 77.787C31.6883 77.679 31.6343 77.571 31.6253 77.463C31.5623 77.562 31.4723 77.616 31.3373 77.643C31.2023 77.661 31.0763 77.661 30.9593 77.625C30.9773 77.742 30.9503 77.85 30.8693 77.958C30.7883 78.066 30.6802 78.102 30.5452 78.093C30.6532 78.156 30.7253 78.264 30.7702 78.417C30.8062 78.561 30.8153 78.696 30.7883 78.813C30.8963 78.759 31.0223 78.759 31.1663 78.795C31.3103 78.84 31.3733 78.921 31.3733 79.056L31.3642 79.038Z" fill="white"/>
<path d="M36.1873 79.7848C36.1063 79.7848 36.0343 79.7398 35.9803 79.6408C35.9263 79.5418 35.8903 79.4158 35.8633 79.2628C35.8453 79.1098 35.8363 78.9568 35.8453 78.8038C35.8543 78.6508 35.8813 78.5158 35.9263 78.4078C35.9713 78.2998 36.0343 78.2458 36.1243 78.2458C36.0883 78.1828 36.1063 78.1018 36.1783 78.0028C36.2503 77.9038 36.3583 77.8138 36.4933 77.7238C36.6283 77.6338 36.7723 77.5528 36.9253 77.4898C37.0783 77.4268 37.2133 77.3818 37.3303 77.3728C37.4473 77.3638 37.5283 77.3818 37.5643 77.4538C37.5463 77.3548 37.5823 77.2738 37.6723 77.2018C37.7623 77.1298 37.8613 77.0758 37.9963 77.0398C38.1313 77.0038 38.2573 76.9858 38.3923 76.9948C38.5183 76.9948 38.6263 77.0398 38.6983 77.1028C38.6713 76.9858 38.6983 76.8598 38.8063 76.7158C38.6173 76.7158 38.4553 76.6798 38.2933 76.6258C38.1403 76.5718 38.0683 76.4908 38.0683 76.4008C38.0683 76.5088 38.0233 76.5898 37.9333 76.6438C37.8433 76.6978 37.7443 76.7248 37.6273 76.7248C37.5103 76.7248 37.4113 76.6978 37.3213 76.6438C37.2313 76.5898 37.1863 76.5088 37.1863 76.4008C37.1233 76.5088 37.0333 76.5718 36.9343 76.5898C36.8353 76.6078 36.7273 76.5898 36.6283 76.5268C36.5293 76.4638 36.4573 76.3918 36.4123 76.2928C36.3673 76.1938 36.3763 76.0858 36.4483 75.9778C36.3223 75.8338 36.2773 75.7078 36.3133 75.5998C36.3493 75.4828 36.4213 75.4198 36.5383 75.3928C36.6553 75.3748 36.7813 75.4288 36.9073 75.5728C36.8173 75.4018 36.7993 75.2668 36.8443 75.1768C36.8893 75.0778 36.9613 75.0418 37.0603 75.0598C37.1593 75.0778 37.2493 75.1768 37.3393 75.3568C37.3123 75.2398 37.3303 75.1408 37.3843 75.0508C37.4473 74.9698 37.5283 74.9068 37.6363 74.8798C37.7443 74.8528 37.8433 74.8528 37.9423 74.8888C38.0413 74.9248 38.1043 75.0058 38.1313 75.1228C38.1313 74.9788 38.1763 74.8618 38.2753 74.7898C38.3743 74.7088 38.5003 74.6728 38.6443 74.6638C38.7883 74.6638 38.9053 74.6818 39.0223 74.7538C39.1393 74.8258 39.1933 74.9248 39.2023 75.0778C39.2203 74.8798 39.2653 74.7538 39.3553 74.6908C39.4453 74.6368 39.5263 74.6368 39.5983 74.7088C39.6703 74.7808 39.6973 74.9158 39.6883 75.1138C39.7243 74.9788 39.7963 74.8978 39.8953 74.8528C39.9943 74.8078 40.1113 74.8078 40.2193 74.8438C40.3363 74.8798 40.4263 74.9428 40.4893 75.0328C40.5523 75.1228 40.5703 75.2308 40.5343 75.3568C40.6153 75.2488 40.7143 75.2038 40.8223 75.2038C40.9303 75.2038 41.0383 75.2488 41.1283 75.3118C41.2183 75.3838 41.2813 75.4738 41.3083 75.5818C41.3353 75.6898 41.3083 75.7978 41.2273 75.9058C41.4073 75.8248 41.5513 75.8248 41.6593 75.9058C41.7673 75.9868 41.8213 76.0948 41.8033 76.2298C41.7853 76.3648 41.6953 76.4728 41.5153 76.5538C41.6593 76.5538 41.7763 76.6078 41.8483 76.7428C41.9293 76.8778 41.9743 77.0398 41.9833 77.2108C41.9923 77.3818 41.9653 77.5438 41.9023 77.6878C41.8393 77.8318 41.7313 77.9038 41.5783 77.9128C41.6953 77.9128 41.7853 77.9578 41.8393 78.0478C41.9023 78.1378 41.9293 78.2458 41.9293 78.3718C41.9293 78.4978 41.9023 78.5968 41.8393 78.6958C41.7763 78.7858 41.6953 78.8308 41.5783 78.8308C41.7133 78.8308 41.8213 78.8848 41.9023 78.9838C41.9833 79.0828 42.0373 79.2088 42.0733 79.3618C42.1093 79.5148 42.1093 79.6678 42.0913 79.8208C42.0733 79.9738 42.0193 80.1088 41.9473 80.2168C41.8753 80.3248 41.7763 80.3788 41.6503 80.3878C41.6503 80.5048 41.5873 80.6038 41.4793 80.6758C41.3713 80.7478 41.2453 80.7928 41.0833 80.8198C40.9303 80.8378 40.7683 80.8378 40.6153 80.8198C40.4533 80.7928 40.3273 80.7388 40.2193 80.6668C40.1113 80.5858 40.0663 80.4958 40.0663 80.3698C40.0663 80.5588 40.0303 80.6758 39.9403 80.7478C39.8593 80.8108 39.7783 80.8198 39.6973 80.7478C39.6163 80.6758 39.5713 80.5588 39.5713 80.3698C39.4723 80.4868 39.3733 80.5498 39.2743 80.5588C39.1753 80.5588 39.0853 80.5408 39.0133 80.4688C38.9413 80.3968 38.9143 80.3248 38.9233 80.2258C38.8063 80.3248 38.6173 80.3878 38.3563 80.4238C38.0953 80.4598 37.7803 80.4418 37.4023 80.3518C37.0243 80.2708 36.6193 80.0908 36.1783 79.8298L36.1873 79.7848ZM39.0133 79.2448C38.9503 79.2088 38.9233 79.1458 38.9323 79.0468C38.9503 78.9478 38.9863 78.8488 39.0403 78.7408C39.0943 78.6328 39.1573 78.5338 39.2293 78.4618C39.1663 78.4438 39.1033 78.4168 39.0493 78.3628C38.9953 78.3088 38.9593 78.2548 38.9413 78.1828C38.8873 78.2548 38.8153 78.3178 38.7073 78.3628C38.6083 78.4078 38.5003 78.4348 38.3923 78.4438C38.2843 78.4438 38.2033 78.4348 38.1313 78.3898C38.1493 78.4528 38.1313 78.5158 38.0863 78.5698C38.1853 78.6058 38.3023 78.6688 38.4193 78.7678C38.5453 78.8668 38.6533 78.9568 38.7523 79.0558C38.8513 79.1548 38.9323 79.2178 38.9953 79.2448H39.0133Z" fill="white"/>
<path d="M43.0817 79.5601C42.8657 79.5601 42.7217 79.5151 42.6497 79.4251C42.5777 79.3351 42.5777 79.2451 42.6497 79.1641C42.7217 79.0741 42.8657 79.0291 43.0817 79.0291C42.9377 79.0291 42.8207 78.9841 42.7487 78.8851C42.6767 78.7861 42.6407 78.6691 42.6407 78.5521C42.6407 78.4351 42.6767 78.3181 42.7487 78.2191C42.8207 78.1201 42.9287 78.0661 43.0817 78.0661C42.9557 78.0661 42.8567 78.0121 42.7757 77.8861C42.6947 77.7691 42.6497 77.6251 42.6227 77.4541C42.5957 77.2831 42.5957 77.1121 42.6227 76.9411C42.6497 76.7701 42.7037 76.6261 42.7757 76.5091C42.8567 76.3921 42.9557 76.3291 43.0817 76.3291C42.9827 76.3291 42.9107 76.2751 42.8477 76.1671C42.7847 76.0591 42.7487 75.9241 42.7307 75.7711C42.7127 75.6091 42.7127 75.4561 42.7307 75.2941C42.7487 75.1321 42.7937 75.0061 42.8477 74.8981C42.9107 74.7901 42.9917 74.7361 43.0817 74.7361C42.9377 74.7361 42.8207 74.6821 42.7487 74.5741C42.6767 74.4661 42.6407 74.3401 42.6407 74.2051C42.6407 74.0701 42.6767 73.9441 42.7487 73.8361C42.8207 73.7281 42.9287 73.6741 43.0817 73.6741C42.9017 73.6921 42.7847 73.6471 42.7127 73.5391C42.6407 73.4401 42.6317 73.3231 42.6767 73.2061C42.7217 73.0891 42.8387 73.0261 43.0097 73.0081C43.0097 72.8821 43.0547 72.7921 43.1357 72.7291C43.2167 72.6661 43.2977 72.6391 43.3967 72.6391C43.4957 72.6391 43.5767 72.6751 43.6487 72.7471C43.7207 72.8101 43.7567 72.9091 43.7567 73.0351C43.7567 72.8911 43.8107 72.7831 43.9367 72.7021C44.0627 72.6211 44.2157 72.5761 44.3867 72.5671C44.5577 72.5581 44.7107 72.5851 44.8547 72.6571C44.9897 72.7201 45.0617 72.8281 45.0707 72.9631C45.2057 72.9631 45.3047 73.0531 45.3677 73.1971C45.4307 73.3501 45.4577 73.5211 45.4577 73.7191C45.4577 73.9171 45.4217 74.0881 45.3497 74.2411C45.2777 74.3851 45.1787 74.4661 45.0437 74.4661C45.1607 74.4661 45.2507 74.5201 45.3047 74.6371C45.3677 74.7541 45.3947 74.8891 45.3947 75.0421C45.3947 75.1951 45.3677 75.3301 45.3047 75.4471C45.2417 75.5641 45.1607 75.6181 45.0437 75.6181C45.1787 75.6181 45.2777 75.6721 45.3407 75.7981C45.4037 75.9241 45.4397 76.0591 45.4307 76.1941C45.4487 76.1941 45.4667 76.2121 45.4847 76.2301C45.5027 76.0951 45.5747 75.9871 45.7007 75.8971C45.8267 75.8071 45.9527 75.8071 46.0967 75.8971C45.9977 75.8341 45.9527 75.7441 45.9707 75.6361C45.9887 75.5281 46.0427 75.4381 46.1237 75.3751C46.2047 75.3121 46.3037 75.3121 46.4207 75.3751C46.4027 75.2581 46.4477 75.1591 46.5557 75.0691C46.6727 74.9881 46.8077 74.9251 46.9787 74.8891C47.1407 74.8531 47.2937 74.8531 47.4287 74.8891C47.5637 74.9251 47.6447 75.0061 47.6627 75.1231C47.6627 74.9521 47.7077 74.8441 47.7977 74.7901C47.8877 74.7361 47.9777 74.7361 48.0587 74.7901C48.1397 74.8441 48.1937 74.9611 48.1937 75.1231C48.1937 74.9431 48.2387 74.8171 48.3467 74.7541C48.4547 74.6911 48.5627 74.6911 48.6707 74.7541C48.7787 74.8171 48.8327 74.9341 48.8327 75.1231C48.9317 75.1861 48.9677 75.2851 48.9497 75.4111C48.9317 75.5371 48.8867 75.6631 48.7967 75.7801C48.7157 75.8971 48.6167 75.9871 48.5087 76.0411C48.4007 76.0951 48.2927 76.0951 48.2027 76.0231C48.3107 76.1041 48.3467 76.2301 48.3107 76.4011C48.2747 76.5721 48.1937 76.7431 48.0767 76.9051C47.9597 77.0671 47.8247 77.1931 47.6807 77.2651C47.8067 77.3191 47.9057 77.4091 47.9687 77.5441C48.0317 77.6791 48.0587 77.8141 48.0317 77.9491C48.0137 78.0841 47.9237 78.1831 47.7887 78.2461C47.8877 78.2011 48.0047 78.2281 48.1397 78.3181C48.2657 78.4081 48.3827 78.5341 48.4817 78.6961C48.5807 78.8581 48.6437 79.0111 48.6617 79.1641C48.6797 79.3171 48.6437 79.4251 48.5357 79.4881C48.6437 79.4251 48.7607 79.4161 48.8687 79.4611C48.9767 79.5061 49.0667 79.5871 49.1297 79.6951C49.1927 79.8031 49.2287 79.9111 49.2197 80.0281C49.2107 80.1451 49.1567 80.2441 49.0487 80.3161C49.0487 80.4601 48.9857 80.5771 48.8507 80.6491C48.7247 80.7211 48.5717 80.7571 48.4097 80.7571C48.2477 80.7571 48.0947 80.7211 47.9687 80.6491C47.8427 80.5771 47.7797 80.4691 47.7797 80.3161C47.7617 80.4601 47.6987 80.5501 47.5727 80.6131C47.4467 80.6671 47.3117 80.6851 47.1587 80.6671C47.0057 80.6491 46.8797 80.5951 46.7627 80.5141C46.6547 80.4331 46.6007 80.3251 46.6187 80.1811C46.4567 80.2801 46.3307 80.3071 46.2317 80.2711C46.1327 80.2351 46.0967 80.1631 46.1147 80.0641C46.1327 79.9651 46.2137 79.8661 46.3667 79.7671C46.2857 79.8211 46.1867 79.8031 46.0697 79.7221C45.9527 79.6411 45.8447 79.5241 45.7457 79.3801C45.6377 79.2361 45.5567 79.0831 45.5027 78.9301C45.4037 79.0111 45.2957 79.0381 45.1787 79.0111C45.2417 79.1011 45.2867 79.2271 45.2957 79.3891C45.3047 79.5511 45.2957 79.6951 45.2507 79.8301C45.2057 79.9651 45.1337 80.0281 45.0257 80.0281C45.0977 80.1901 45.0977 80.3251 45.0077 80.4241C44.9267 80.5231 44.8187 80.5681 44.6837 80.5681C44.5577 80.5681 44.4497 80.4781 44.3777 80.3161C44.3777 80.4241 44.3327 80.5141 44.2517 80.5681C44.1707 80.6221 44.0717 80.6581 43.9637 80.6581C43.8557 80.6581 43.7567 80.6311 43.6757 80.5681C43.5947 80.5051 43.5497 80.4241 43.5497 80.3161C43.5497 80.5141 43.5047 80.6401 43.4237 80.6851C43.3427 80.7301 43.2617 80.6671 43.1717 80.4961C43.0907 80.3161 43.0457 80.0011 43.0367 79.5421L43.0817 79.5601Z" fill="white"/>
<path d="M52.0194 80.4059C51.9744 80.5589 51.8934 80.6579 51.7764 80.7119C51.6594 80.7569 51.5334 80.7659 51.4074 80.7299C51.2814 80.6939 51.1734 80.6309 51.0924 80.5229C51.0114 80.4239 50.9934 80.2889 51.0384 80.1359C50.9574 80.2439 50.8584 80.3069 50.7504 80.3159C50.6424 80.3249 50.5434 80.2979 50.4444 80.2349C50.3454 80.1719 50.2914 80.0819 50.2644 79.9739C50.2374 79.8659 50.2644 79.7579 50.3544 79.6409C50.2464 79.6949 50.1294 79.6679 50.0214 79.5689C49.9134 79.4699 49.8144 79.3349 49.7424 79.1729C49.6704 79.0109 49.6344 78.8489 49.6344 78.7049C49.6344 78.5609 49.6884 78.4619 49.7964 78.4079C49.6614 78.4079 49.5624 78.3449 49.4994 78.2189C49.4364 78.0929 49.4004 77.9489 49.4004 77.7779C49.4004 77.6069 49.4364 77.4629 49.4994 77.3369C49.5624 77.2109 49.6614 77.1479 49.7874 77.1479C49.5894 77.0939 49.4724 77.0039 49.4364 76.8869C49.4004 76.7699 49.4274 76.6709 49.5174 76.5899C49.6074 76.5089 49.7514 76.4999 49.9494 76.5539C49.8864 76.4999 49.8594 76.4099 49.8864 76.2929C49.9134 76.1759 49.9674 76.0589 50.0574 75.9329C50.1474 75.8069 50.2464 75.6989 50.3544 75.5999C50.4624 75.5009 50.5704 75.4289 50.6784 75.3839C50.7864 75.3389 50.8674 75.3479 50.9394 75.4019C50.9034 75.2759 50.9394 75.1679 51.0474 75.0689C51.1554 74.9699 51.2904 74.8979 51.4524 74.8529C51.6144 74.8079 51.7674 74.7899 51.9024 74.8169C52.0464 74.8439 52.1274 74.9159 52.1634 75.0419C52.1634 74.8979 52.2534 74.8079 52.4154 74.7449C52.5774 74.6909 52.7484 74.6729 52.9464 74.6819C53.1444 74.6909 53.3154 74.7449 53.4594 74.8259C53.6034 74.9069 53.6754 75.0149 53.6574 75.1589C53.7114 75.0149 53.8014 74.9429 53.9094 74.9339C54.0174 74.9249 54.1074 74.9609 54.1704 75.0419C54.2424 75.1229 54.2514 75.2309 54.1974 75.3749C54.2784 75.2939 54.3864 75.2849 54.5214 75.3389C54.6564 75.3929 54.7914 75.4829 54.9174 75.6089C55.0434 75.7349 55.1424 75.8699 55.1964 76.0049C55.2504 76.1399 55.2414 76.2569 55.1604 76.3379C55.2684 76.3199 55.3674 76.3559 55.4664 76.4459C55.5564 76.5449 55.6284 76.6709 55.6824 76.8239C55.7364 76.9769 55.7724 77.1389 55.7724 77.3009C55.7724 77.4629 55.7634 77.6159 55.7184 77.7329C55.6734 77.8589 55.5924 77.9309 55.4754 77.9579C55.6914 78.0569 55.7814 78.1289 55.7634 78.1739C55.7454 78.2189 55.6194 78.2009 55.4124 78.1019C55.4124 78.2009 55.3494 78.2729 55.2324 78.3179C55.1064 78.3629 54.9714 78.3899 54.8184 78.3899C54.6654 78.3899 54.5214 78.3629 54.4044 78.3179C54.2874 78.2729 54.2244 78.2009 54.2244 78.1019C54.2244 78.2279 54.1704 78.3179 54.0534 78.3809C53.9454 78.4439 53.8194 78.4799 53.6754 78.4799C53.5314 78.4799 53.4054 78.4529 53.2974 78.3899C53.1894 78.3269 53.1354 78.2369 53.1354 78.1199C53.1354 78.2459 53.0814 78.3449 52.9554 78.4259C52.8294 78.5069 52.6854 78.5519 52.5234 78.5609C52.5954 78.6509 52.6584 78.7409 52.7034 78.8399C52.7484 78.9389 52.7844 79.0289 52.7934 79.1099C52.8654 79.0289 52.9734 78.9569 53.1264 78.9029C53.2704 78.8399 53.4234 78.8039 53.5764 78.7949C53.7294 78.7769 53.8734 78.7949 53.9904 78.8219C54.1164 78.8579 54.1884 78.9209 54.2064 79.0289C54.2064 78.9029 54.2514 78.8039 54.3504 78.7409C54.4494 78.6779 54.5664 78.6419 54.7014 78.6419C54.8364 78.6419 54.9534 78.6779 55.0524 78.7409C55.1514 78.8039 55.1964 78.9029 55.1964 79.0289C55.3404 79.0559 55.4304 79.1189 55.4664 79.2089C55.4934 79.2989 55.4754 79.3799 55.4124 79.4519C55.3494 79.5239 55.2414 79.5419 55.1064 79.5149C55.1694 79.6139 55.1874 79.7039 55.1424 79.8119C55.0974 79.9109 55.0254 79.9919 54.9264 80.0639C54.8274 80.1359 54.7194 80.1719 54.6204 80.1809C54.5214 80.1899 54.4314 80.1449 54.3594 80.0639C54.4044 80.2079 54.3864 80.3249 54.2964 80.4329C54.2154 80.5319 54.0984 80.6129 53.9634 80.6579C53.8284 80.7029 53.6934 80.7029 53.5584 80.6579C53.4324 80.6129 53.3424 80.5229 53.2974 80.3879C53.3154 80.5859 53.2614 80.7209 53.1354 80.7929C53.0094 80.8649 52.8474 80.8739 52.6494 80.8109C52.4424 80.7479 52.2354 80.6129 52.0104 80.4059H52.0194ZM52.4694 77.2739C52.4694 77.1299 52.5144 77.0399 52.5864 77.0219C52.6674 77.0039 52.7214 77.0489 52.7484 77.1569C52.7664 77.0939 52.8114 77.0309 52.8834 76.9679C52.9464 76.9049 53.0184 76.8689 53.0904 76.8509C53.0004 76.7879 52.9284 76.6889 52.8654 76.5629C52.8024 76.4369 52.7844 76.3289 52.8114 76.2299C52.7484 76.2659 52.6674 76.2929 52.5774 76.2929C52.4874 76.2929 52.4064 76.2929 52.3434 76.2569C52.3614 76.3379 52.3614 76.4369 52.3344 76.5449C52.3074 76.6529 52.2534 76.7519 52.1994 76.8419C52.1364 76.9319 52.0644 76.9769 51.9834 76.9859C52.0824 77.0039 52.1544 77.0579 52.1994 77.1389C52.2444 77.2199 52.3344 77.2559 52.4694 77.2559V77.2739Z" fill="white"/>
<path d="M58.9042 80.4059C58.8592 80.5589 58.7782 80.6579 58.6612 80.7119C58.5442 80.7659 58.4182 80.7659 58.2922 80.7299C58.1662 80.6939 58.0582 80.6309 57.9772 80.5229C57.8962 80.4239 57.8782 80.2889 57.9232 80.1359C57.8422 80.2439 57.7432 80.3069 57.6352 80.3159C57.5272 80.3249 57.4282 80.2979 57.3292 80.2349C57.2392 80.1719 57.1762 80.0819 57.1492 79.9739C57.1222 79.8659 57.1492 79.7579 57.2392 79.6409C57.1312 79.6949 57.0232 79.6679 56.9062 79.5689C56.7982 79.4699 56.6992 79.3349 56.6272 79.1729C56.5552 79.0109 56.5192 78.8489 56.5192 78.7049C56.5192 78.5609 56.5732 78.4619 56.6812 78.4079C56.5462 78.4079 56.4472 78.3449 56.3842 78.2189C56.3212 78.0929 56.2852 77.9489 56.2852 77.7779C56.2852 77.6069 56.3212 77.4629 56.3842 77.3369C56.4472 77.2109 56.5462 77.1479 56.6722 77.1479C56.4742 77.0939 56.3572 77.0039 56.3212 76.8869C56.2852 76.7699 56.3212 76.6709 56.4022 76.5899C56.4922 76.5089 56.6362 76.4999 56.8432 76.5539C56.7802 76.4999 56.7532 76.4099 56.7802 76.2929C56.8072 76.1759 56.8612 76.0589 56.9512 75.9329C57.0412 75.8069 57.1402 75.6989 57.2482 75.5999C57.3562 75.5009 57.4642 75.4289 57.5722 75.3839C57.6802 75.3389 57.7702 75.3479 57.8332 75.4019C57.7972 75.2759 57.8332 75.1679 57.9412 75.0689C58.0492 74.9699 58.1842 74.8979 58.3462 74.8529C58.5082 74.8079 58.6612 74.7899 58.7962 74.8169C58.9312 74.8439 59.0212 74.9159 59.0662 75.0419C59.0662 74.8979 59.1562 74.8079 59.3182 74.7449C59.4802 74.6909 59.6512 74.6729 59.8492 74.6819C60.0472 74.6909 60.2182 74.7449 60.3622 74.8259C60.5062 74.9069 60.5782 75.0149 60.5602 75.1589C60.6232 75.0149 60.7042 74.9429 60.8122 74.9339C60.9202 74.9249 61.0102 74.9609 61.0822 75.0419C61.1542 75.1229 61.1632 75.2309 61.1092 75.3749C61.1902 75.2939 61.2982 75.2849 61.4332 75.3389C61.5682 75.3929 61.7032 75.4829 61.8292 75.6089C61.9552 75.7349 62.0542 75.8699 62.1082 76.0049C62.1622 76.1489 62.1532 76.2569 62.0722 76.3379C62.1802 76.3199 62.2792 76.3559 62.3782 76.4459C62.4682 76.5449 62.5402 76.6709 62.6032 76.8239C62.6662 76.9769 62.6932 77.1389 62.6932 77.3009C62.6932 77.4629 62.6842 77.6159 62.6392 77.7329C62.5942 77.8499 62.5132 77.9309 62.3962 77.9579C62.6122 78.0569 62.7022 78.1289 62.6842 78.1739C62.6662 78.2189 62.5402 78.2009 62.3332 78.1019C62.3332 78.2009 62.2702 78.2729 62.1532 78.3179C62.0362 78.3629 61.8922 78.3899 61.7392 78.3899C61.5862 78.3899 61.4422 78.3629 61.3252 78.3179C61.1992 78.2729 61.1452 78.2009 61.1452 78.1019C61.1452 78.2279 61.0912 78.3179 60.9832 78.3809C60.8752 78.4439 60.7492 78.4799 60.6052 78.4799C60.4612 78.4799 60.3352 78.4529 60.2272 78.3899C60.1192 78.3269 60.0652 78.2369 60.0652 78.1199C60.0652 78.2459 60.0112 78.3449 59.8852 78.4259C59.7592 78.5069 59.6152 78.5519 59.4532 78.5609C59.5252 78.6509 59.5882 78.7409 59.6332 78.8399C59.6782 78.9389 59.7142 79.0289 59.7232 79.1099C59.7952 79.0289 59.9032 78.9569 60.0562 78.9029C60.2092 78.8489 60.3532 78.8039 60.5062 78.7949C60.6592 78.7769 60.7942 78.7949 60.9202 78.8219C61.0372 78.8579 61.1092 78.9209 61.1362 79.0289C61.1362 78.9029 61.1812 78.8039 61.2892 78.7409C61.3882 78.6779 61.5052 78.6419 61.6402 78.6419C61.7752 78.6419 61.8922 78.6779 61.9912 78.7409C62.0902 78.8039 62.1442 78.9029 62.1442 79.0289C62.2882 79.0559 62.3782 79.1189 62.4142 79.2089C62.4412 79.2989 62.4232 79.3799 62.3602 79.4519C62.2972 79.5239 62.1892 79.5419 62.0542 79.5149C62.1172 79.6139 62.1352 79.7039 62.0902 79.8119C62.0452 79.9109 61.9732 79.9919 61.8742 80.0639C61.7752 80.1359 61.6672 80.1719 61.5682 80.1809C61.4602 80.1809 61.3702 80.1449 61.3072 80.0639C61.3522 80.2079 61.3342 80.3249 61.2442 80.4329C61.1632 80.5319 61.0462 80.6129 60.9112 80.6579C60.7672 80.7029 60.6322 80.7029 60.5062 80.6579C60.3802 80.6129 60.2902 80.5229 60.2452 80.3879C60.2632 80.5859 60.2092 80.7209 60.0832 80.7929C59.9662 80.8649 59.8042 80.8739 59.5972 80.8109C59.3902 80.7479 59.1832 80.6129 58.9582 80.4059H58.9042ZM59.3542 77.2739C59.3542 77.1299 59.3992 77.0399 59.4802 77.0219C59.5612 77.0039 59.6152 77.0489 59.6422 77.1569C59.6602 77.0939 59.7052 77.0309 59.7772 76.9679C59.8402 76.9049 59.9122 76.8689 59.9842 76.8509C59.8942 76.7879 59.8222 76.6889 59.7592 76.5629C59.6962 76.4369 59.6782 76.3289 59.7052 76.2299C59.6422 76.2659 59.5612 76.2929 59.4712 76.2929C59.3812 76.2929 59.3002 76.2929 59.2372 76.2569C59.2552 76.3379 59.2552 76.4369 59.2282 76.5449C59.2012 76.6529 59.1562 76.7519 59.0932 76.8419C59.0302 76.9319 58.9582 76.9769 58.8772 76.9859C58.9762 77.0039 59.0482 77.0579 59.0932 77.1389C59.1382 77.2199 59.2282 77.2559 59.3632 77.2559L59.3542 77.2739Z" fill="white"/>
<path d="M59.6785 50.454C53.4325 51.291 47.0965 51.696 40.7965 51.237C37.6465 51.003 34.5145 50.544 31.4365 49.815C28.7725 49.176 25.6585 48.492 23.6875 46.449C21.7435 44.442 21.1135 41.418 20.7175 38.745C20.2945 35.892 20.2945 32.931 20.9605 30.123C22.1575 25.074 25.8565 20.475 31.1305 19.404C32.3995 19.143 33.8035 19.107 35.0635 19.449C36.5485 19.854 37.4305 20.889 37.8445 22.347C38.2135 23.643 38.4925 25.245 38.1505 26.568C37.8625 27.675 36.4675 29.007 35.3875 27.927C34.4965 27.036 34.5145 25.353 34.6495 24.201C34.8115 22.788 35.3605 21.411 36.2155 20.277C37.8895 18.045 40.6885 16.929 43.4335 17.181C44.9455 17.316 46.5205 17.748 47.9245 18.306C49.3285 18.864 50.2105 19.773 50.5615 21.213C50.8675 22.464 50.7955 23.814 50.7325 25.092C50.6785 26.235 50.4175 28.278 49.0135 28.62C48.3565 28.782 48.3565 27.702 48.3025 27.207C48.2395 26.622 48.2395 26.028 48.3025 25.443C48.4195 24.228 48.7885 23.031 49.3645 21.96C50.6065 19.638 52.7485 18.081 55.3135 17.496C58.2025 16.839 61.2175 17.46 63.8455 18.738C65.1415 19.368 66.4645 20.124 67.5355 21.096C68.6065 22.068 69.2185 23.4 69.5335 24.831C70.7935 30.582 69.1735 36.873 66.7345 42.093C66.1225 43.407 65.4385 44.685 64.7005 45.945C64.2865 46.647 65.3845 47.286 65.7895 46.584C69.3445 40.518 71.8285 33.426 71.0365 26.307C70.8655 24.768 70.5505 23.211 69.7675 21.861C68.9305 20.412 67.5715 19.431 66.1675 18.576C63.3145 16.839 59.9575 15.705 56.5825 16.029C53.5495 16.326 50.7865 17.712 48.9865 20.196C47.3485 22.455 46.6645 25.398 47.1775 28.143C47.2855 28.692 47.3935 29.403 47.8885 29.754C48.4465 30.15 49.2385 29.943 49.8055 29.655C51.1465 28.962 51.7495 27.495 51.9295 26.073C52.2805 23.283 52.3255 19.593 49.7335 17.829C48.4015 16.92 46.6375 16.488 45.0805 16.173C43.4425 15.831 41.7685 15.768 40.1395 16.218C37.1425 17.046 34.7395 19.341 33.7855 22.302C33.0925 24.453 32.8225 29.133 35.9455 29.574C37.2145 29.754 38.4655 28.908 39.0415 27.819C39.7975 26.388 39.5815 24.642 39.3115 23.112C39.0415 21.582 38.5195 20.106 37.2775 19.152C36.0355 18.198 34.5145 17.964 33.0475 17.973C30.1405 17.982 27.3775 19.17 25.1365 20.979C19.8805 25.227 18.5845 32.301 19.4575 38.7C19.8805 41.769 20.6365 45.189 22.9045 47.457C25.2715 49.824 28.9795 50.607 32.1385 51.291C39.4825 52.902 47.0695 53.01 54.5305 52.335C56.3755 52.173 58.2025 51.948 60.0385 51.705C60.8395 51.597 60.4975 50.373 59.7055 50.481L59.6785 50.454Z" fill="white"/>
<path d="M38.4209 37.7006C39.2309 37.7006 39.2399 36.4316 38.4209 36.4316C37.6019 36.4316 37.6019 37.7006 38.4209 37.7006Z" fill="white"/>
<path d="M50.4267 36.5849C51.2367 36.5849 51.2457 35.3159 50.4267 35.3159C49.6078 35.3159 49.6078 36.5849 50.4267 36.5849Z" fill="white"/>
<path d="M34.7031 42.3089C35.3601 44.1719 36.8991 45.3869 38.6271 46.2149C40.7421 47.2229 43.0641 47.9159 45.3951 48.1499C49.4631 48.5639 53.5311 47.1149 56.5821 44.4329C58.2561 42.9569 59.5431 41.1299 60.4071 39.0779C60.7221 38.3309 59.4981 37.9979 59.1831 38.7449C57.4461 42.8849 53.5131 45.9179 49.1301 46.7549C46.5831 47.2409 43.9821 46.8359 41.5431 46.0259C39.4101 45.3239 36.7191 44.2889 35.9091 41.9759C35.6391 41.2109 34.4151 41.5439 34.6851 42.3089H34.7031Z" fill="white"/>
<path d="M59.6525 11.8888C59.8865 11.5198 60.1295 11.1598 60.3815 10.7998C60.4445 10.7098 60.5075 10.6288 60.5705 10.5388C60.6065 10.4938 60.6335 10.4488 60.6695 10.4128C60.6875 10.3948 60.7055 10.3678 60.7145 10.3498C60.7685 10.2868 60.6335 10.4488 60.6875 10.3858C60.8225 10.2148 60.9665 10.0348 61.1015 9.87285C61.2095 9.73785 61.2905 9.60285 61.2905 9.42285C61.2905 9.26985 61.2185 9.08085 61.1015 8.97285C60.8675 8.75685 60.4355 8.70285 60.2105 8.97285C59.6075 9.69285 59.0585 10.4488 58.5545 11.2498C58.3745 11.5288 58.4825 11.9608 58.7795 12.1138C59.0945 12.2758 59.4545 12.1858 59.6435 11.8888H59.6525Z" fill="white"/>
<path d="M62.4774 14.121C62.5404 14.112 62.6124 14.103 62.6754 14.094L62.5044 14.121C63.1344 14.04 63.7734 14.022 64.4124 14.076C64.5654 14.085 64.7544 13.995 64.8624 13.887C64.9704 13.779 65.0514 13.599 65.0514 13.437C65.0334 13.068 64.7724 12.834 64.4214 12.807C63.6564 12.744 62.9004 12.78 62.1444 12.897C62.0004 12.924 61.8384 13.068 61.7664 13.185C61.6854 13.32 61.6494 13.518 61.7034 13.671C61.7574 13.824 61.8474 13.968 61.9914 14.049C62.1534 14.13 62.2974 14.139 62.4774 14.112V14.121Z" fill="white"/>
</g>
<defs>
<clipPath id="clip0_558_1282">
<rect width="90" height="90" fill="white"/>
</clipPath>
</defs>
</svg>
