<svg width="28" height="30" viewBox="0 0 28 30" fill="none" xmlns="http://www.w3.org/2000/svg">
<g filter="url(#filter0_dd_346_2180)">
<path d="M14.1 18.55L14 18.65L13.89 18.55C9.14 14.24 6 11.39 6 8.5C6 6.5 7.5 5 9.5 5C11.04 5 12.54 6 13.07 7.36H14.93C15.46 6 16.96 5 18.5 5C20.5 5 22 6.5 22 8.5C22 11.39 18.86 14.24 14.1 18.55ZM18.5 3C16.76 3 15.09 3.81 14 5.08C12.91 3.81 11.24 3 9.5 3C6.42 3 4 5.41 4 8.5C4 12.27 7.4 15.36 12.55 20.03L14 21.35L15.45 20.03C20.6 15.36 24 12.27 24 8.5C24 5.41 21.58 3 18.5 3Z" fill="#603913"/>
</g>
<defs>
<filter id="filter0_dd_346_2180" x="-2" y="0" width="32" height="32" filterUnits="userSpaceOnUse" color-interpolation-filters="sRGB">
<feFlood flood-opacity="0" result="BackgroundImageFix"/>
<feColorMatrix in="SourceAlpha" type="matrix" values="0 0 0 0 0 0 0 0 0 0 0 0 0 0 0 0 0 0 127 0" result="hardAlpha"/>
<feOffset dy="4"/>
<feGaussianBlur stdDeviation="2"/>
<feComposite in2="hardAlpha" operator="out"/>
<feColorMatrix type="matrix" values="0 0 0 0 0 0 0 0 0 0 0 0 0 0 0 0 0 0 0.25 0"/>
<feBlend mode="normal" in2="BackgroundImageFix" result="effect1_dropShadow_346_2180"/>
<feColorMatrix in="SourceAlpha" type="matrix" values="0 0 0 0 0 0 0 0 0 0 0 0 0 0 0 0 0 0 127 0" result="hardAlpha"/>
<feOffset dy="4"/>
<feGaussianBlur stdDeviation="2"/>
<feComposite in2="hardAlpha" operator="out"/>
<feColorMatrix type="matrix" values="0 0 0 0 0 0 0 0 0 0 0 0 0 0 0 0 0 0 0.25 0"/>
<feBlend mode="normal" in2="effect1_dropShadow_346_2180" result="effect2_dropShadow_346_2180"/>
<feBlend mode="normal" in="SourceGraphic" in2="effect2_dropShadow_346_2180" result="shape"/>
</filter>
</defs>
</svg>
