<svg width="22" height="22" viewBox="0 0 22 22" fill="none" xmlns="http://www.w3.org/2000/svg">
<path d="M7.87155 7.54945L10.2531 2.75345C10.3224 2.61465 10.429 2.49791 10.561 2.41632C10.6929 2.33472 10.845 2.2915 11.0001 2.2915C11.1553 2.2915 11.3074 2.33472 11.4393 2.41632C11.5713 2.49791 11.6779 2.61465 11.7472 2.75345L14.1287 7.54945L19.4527 8.32312C19.6063 8.34441 19.7508 8.40845 19.8697 8.50793C19.9886 8.6074 20.0771 8.73831 20.1252 8.8857C20.1733 9.03309 20.179 9.19103 20.1416 9.34149C20.1042 9.49195 20.0253 9.62887 19.9138 9.73662L16.062 13.4675L16.9713 18.7383C17.0877 19.4148 16.3727 19.93 15.7613 19.611L11.0001 17.1213L6.23805 19.611C5.62755 19.9309 4.91255 19.4148 5.02897 18.7374L5.9383 13.4665L2.08647 9.7357C1.97554 9.62788 1.89709 9.4911 1.86002 9.3409C1.82296 9.19071 1.82877 9.03314 1.8768 8.88608C1.92483 8.73903 2.01315 8.6084 2.13172 8.50905C2.2503 8.40969 2.39437 8.34559 2.54755 8.32403L7.87155 7.54945Z" fill="#FFE100" stroke="#FFE100" stroke-linecap="round" stroke-linejoin="round"/>
</svg>
