<svg width="100" height="100" viewBox="0 0 100 100" fill="none" xmlns="http://www.w3.org/2000/svg">
<g clip-path="url(#clip0_458_3812)">
<path d="M31.2203 67.56C31.0003 67.56 30.8303 67.49 30.7203 67.36C30.6103 67.22 30.5503 67.06 30.5503 66.88C30.5503 66.7 30.6103 66.54 30.7203 66.4C30.8303 66.27 31.0003 66.2 31.2203 66.2C31.0203 66.2 30.8603 66.13 30.7503 66C30.6403 65.87 30.5903 65.72 30.5903 65.55C30.5903 65.38 30.6403 65.24 30.7503 65.11C30.8603 64.98 31.0103 64.92 31.2203 64.92C31.0603 64.92 30.9403 64.86 30.8503 64.74C30.7603 64.62 30.6903 64.47 30.6703 64.3C30.6503 64.13 30.6403 63.95 30.6703 63.78C30.7003 63.61 30.7603 63.46 30.8503 63.34C30.9403 63.22 31.0703 63.16 31.2203 63.16C30.9303 63.16 30.7403 63.09 30.6403 62.96C30.5403 62.83 30.5403 62.7 30.6403 62.57C30.7403 62.44 30.9303 62.37 31.2203 62.37C31.0403 62.35 30.9103 62.29 30.8203 62.17C30.7303 62.05 30.7003 61.93 30.7003 61.78C30.7003 61.63 30.7603 61.51 30.8603 61.41C30.9603 61.31 31.1003 61.26 31.2803 61.27C31.2803 61.03 31.3503 60.85 31.4903 60.73C31.6303 60.61 31.7903 60.55 31.9703 60.55C32.1503 60.55 32.3103 60.61 32.4503 60.73C32.5903 60.85 32.6603 61.03 32.6603 61.27C32.6603 61.11 32.7203 60.98 32.8503 60.88C32.9803 60.79 33.1303 60.72 33.3203 60.69C33.5003 60.66 33.6903 60.66 33.8703 60.69C34.0503 60.72 34.2103 60.79 34.3403 60.88C34.4703 60.97 34.5303 61.1 34.5303 61.27C34.5303 61.03 34.5903 60.85 34.7003 60.74C34.8103 60.63 34.9503 60.56 35.1003 60.56C35.2503 60.56 35.3803 60.62 35.4903 60.74C35.6003 60.86 35.6603 61.04 35.6603 61.29C35.6803 61.08 35.7403 60.92 35.8403 60.83C35.9303 60.74 36.0403 60.69 36.1503 60.71C36.2603 60.73 36.3503 60.79 36.4303 60.9C36.5003 61.01 36.5303 61.17 36.5003 61.38C36.5703 61.12 36.6703 60.96 36.7903 60.89C36.9103 60.82 37.0103 60.85 37.0803 60.97C37.1503 61.09 37.1503 61.28 37.0803 61.54C37.1903 61.4 37.3303 61.33 37.4903 61.33C37.6503 61.33 37.7803 61.38 37.9103 61.48C38.0303 61.58 38.1103 61.71 38.1503 61.85C38.1903 62 38.1503 62.15 38.0303 62.29C38.2503 62.24 38.4303 62.26 38.5603 62.36C38.7003 62.45 38.7803 62.58 38.8203 62.73C38.8603 62.89 38.8403 63.04 38.7603 63.18C38.6803 63.33 38.5303 63.43 38.3103 63.47C38.5003 63.54 38.6303 63.63 38.6903 63.74C38.7603 63.86 38.7703 63.97 38.7303 64.07C38.6903 64.18 38.6103 64.25 38.4803 64.3C38.3603 64.35 38.2003 64.34 38.0103 64.26C38.2003 64.51 38.2803 64.7 38.2603 64.85C38.2403 65 38.1503 65.07 37.9903 65.07C37.8303 65.07 37.6603 64.94 37.4703 64.69C37.5603 64.8 37.6103 64.92 37.6203 65.05C37.8303 65.13 38.0203 65.26 38.1703 65.44C38.3303 65.62 38.3503 65.8 38.2603 65.97C38.4603 65.92 38.6203 65.92 38.7403 65.97C38.8603 66.02 38.9403 66.1 38.9703 66.21C39.0003 66.32 38.9703 66.42 38.9003 66.53C38.8303 66.64 38.6903 66.72 38.4903 66.78C38.7203 66.83 38.8803 66.92 38.9803 67.05C39.0703 67.18 39.1103 67.32 39.0803 67.46C39.0503 67.6 38.9703 67.72 38.8303 67.81C38.7003 67.9 38.5103 67.92 38.2703 67.87C38.4303 68.03 38.5203 68.18 38.5203 68.35C38.5203 68.52 38.4703 68.65 38.3603 68.76C38.2503 68.87 38.1203 68.93 37.9503 68.93C37.7903 68.93 37.6203 68.86 37.4603 68.7C37.5703 68.95 37.6003 69.14 37.5603 69.26C37.5203 69.38 37.4503 69.41 37.3303 69.36C37.2103 69.31 37.1003 69.15 37.0003 68.9C37.0203 69.08 36.9803 69.23 36.8603 69.35C36.7403 69.47 36.5903 69.56 36.4103 69.62C36.2303 69.68 36.0403 69.7 35.8403 69.68C35.6403 69.66 35.4803 69.61 35.3403 69.51C35.2003 69.42 35.1203 69.28 35.0903 69.1C35.0903 69.32 35.0203 69.49 34.8903 69.6C34.7603 69.72 34.6103 69.77 34.4303 69.77C34.2503 69.77 34.1003 69.71 33.9703 69.6C33.8403 69.49 33.7703 69.32 33.7703 69.1C33.7703 69.29 33.7203 69.43 33.6203 69.52C33.5203 69.61 33.4003 69.66 33.2603 69.66C33.1203 69.66 33.0003 69.61 32.9003 69.52C32.8003 69.43 32.7503 69.29 32.7503 69.1C32.7503 69.26 32.7003 69.37 32.6003 69.45C32.5003 69.53 32.3703 69.56 32.2103 69.54C32.0503 69.52 31.9003 69.45 31.7503 69.31C31.6003 69.17 31.4703 68.96 31.3703 68.66C31.2703 68.37 31.2203 67.99 31.2303 67.51L31.2203 67.56ZM33.5503 63.68C33.6803 63.68 33.7803 63.73 33.8403 63.84C33.9003 63.95 33.9403 64.07 33.9603 64.2C33.9803 64.33 33.9803 64.43 33.9803 64.48C34.0003 64.35 34.0503 64.26 34.1503 64.21C34.2503 64.16 34.3503 64.16 34.4603 64.19C34.5703 64.23 34.6303 64.3 34.6603 64.42C34.6403 64.27 34.7103 64.16 34.8703 64.09C35.0303 64.02 35.1603 64.01 35.2903 64.07C35.2703 63.98 35.2903 63.89 35.3403 63.79C35.3903 63.7 35.4703 63.63 35.5703 63.6C35.4903 63.55 35.4203 63.47 35.3803 63.36C35.3303 63.25 35.3203 63.15 35.3403 63.06C35.2703 63.11 35.2203 63.12 35.1703 63.08C35.1203 63.05 35.1103 62.99 35.1303 62.9C35.0303 63.02 34.8903 63.08 34.6903 63.07C34.4903 63.06 34.3603 62.99 34.2803 62.85C34.2803 62.95 34.2403 63.03 34.1703 63.1C34.1003 63.17 34.0103 63.2 33.9103 63.2C33.9503 63.3 33.9403 63.4 33.8803 63.5C33.8203 63.6 33.7103 63.65 33.5503 63.65V63.68ZM34.6703 67.77C34.6703 67.63 34.7203 67.54 34.8403 67.48C34.9603 67.42 35.0703 67.42 35.1903 67.45C35.1503 67.31 35.1603 67.16 35.2203 67C35.2803 66.84 35.3703 66.72 35.5003 66.64C35.3703 66.58 35.2503 66.49 35.1403 66.38C35.0303 66.26 34.9703 66.14 34.9603 66.02C34.8903 66.13 34.7903 66.19 34.6403 66.22C34.4903 66.24 34.3503 66.24 34.2203 66.2C34.2403 66.33 34.2103 66.45 34.1203 66.57C34.0303 66.69 33.9103 66.73 33.7603 66.72C33.8803 66.79 33.9603 66.91 34.0103 67.08C34.0503 67.24 34.0603 67.39 34.0303 67.52C34.1503 67.46 34.2903 67.46 34.4503 67.5C34.6103 67.55 34.6803 67.64 34.6803 67.79L34.6703 67.77Z" fill="#603913"/>
<path d="M40.0202 68.6C39.9302 68.6 39.8502 68.55 39.7902 68.44C39.7302 68.33 39.6902 68.19 39.6602 68.02C39.6402 67.85 39.6302 67.68 39.6402 67.51C39.6502 67.34 39.6802 67.19 39.7302 67.07C39.7802 66.95 39.8502 66.89 39.9502 66.89C39.9102 66.82 39.9302 66.73 40.0102 66.62C40.0902 66.51 40.2102 66.41 40.3602 66.31C40.5102 66.21 40.6702 66.12 40.8402 66.05C41.0102 65.98 41.1602 65.93 41.2902 65.92C41.4202 65.91 41.5102 65.93 41.5502 66.01C41.5302 65.9 41.5702 65.81 41.6702 65.73C41.7702 65.65 41.8802 65.59 42.0302 65.55C42.1802 65.51 42.3202 65.49 42.4702 65.5C42.6102 65.5 42.7302 65.55 42.8102 65.62C42.7802 65.49 42.8102 65.35 42.9302 65.19C42.7202 65.19 42.5402 65.15 42.3602 65.09C42.1902 65.03 42.1102 64.94 42.1102 64.84C42.1102 64.96 42.0602 65.05 41.9602 65.11C41.8602 65.17 41.7502 65.2 41.6202 65.2C41.4902 65.2 41.3802 65.17 41.2802 65.11C41.1802 65.05 41.1302 64.96 41.1302 64.84C41.0602 64.96 40.9602 65.03 40.8502 65.05C40.7402 65.07 40.6202 65.05 40.5102 64.98C40.4002 64.91 40.3202 64.83 40.2702 64.72C40.2202 64.61 40.2302 64.49 40.3102 64.37C40.1702 64.21 40.1202 64.07 40.1602 63.95C40.2002 63.82 40.2802 63.75 40.4102 63.72C40.5402 63.7 40.6802 63.76 40.8202 63.92C40.7202 63.73 40.7002 63.58 40.7502 63.48C40.8002 63.37 40.8802 63.33 40.9902 63.35C41.1002 63.37 41.2002 63.48 41.3002 63.68C41.2702 63.55 41.2902 63.44 41.3502 63.34C41.4202 63.25 41.5102 63.18 41.6302 63.15C41.7502 63.12 41.8602 63.12 41.9702 63.16C42.0802 63.2 42.1502 63.29 42.1802 63.42C42.1802 63.26 42.2302 63.13 42.3402 63.05C42.4502 62.96 42.5902 62.92 42.7502 62.91C42.9102 62.91 43.0402 62.93 43.1702 63.01C43.3002 63.09 43.3602 63.2 43.3702 63.37C43.3902 63.15 43.4402 63.01 43.5402 62.94C43.6402 62.88 43.7302 62.88 43.8102 62.96C43.8902 63.04 43.9202 63.19 43.9102 63.41C43.9502 63.26 44.0302 63.17 44.1402 63.12C44.2502 63.07 44.3802 63.07 44.5002 63.11C44.6302 63.15 44.7302 63.22 44.8002 63.32C44.8702 63.42 44.8902 63.54 44.8502 63.68C44.9402 63.56 45.0502 63.51 45.1702 63.51C45.2902 63.51 45.4102 63.56 45.5102 63.63C45.6102 63.71 45.6802 63.81 45.7102 63.93C45.7402 64.05 45.7102 64.17 45.6202 64.29C45.8202 64.2 45.9802 64.2 46.1002 64.29C46.2202 64.38 46.2802 64.5 46.2602 64.65C46.2402 64.8 46.1402 64.92 45.9402 65.01C46.1002 65.01 46.2302 65.07 46.3102 65.22C46.4002 65.37 46.4502 65.55 46.4602 65.74C46.4702 65.93 46.4402 66.11 46.3702 66.27C46.3002 66.43 46.1802 66.51 46.0102 66.52C46.1402 66.52 46.2402 66.57 46.3002 66.67C46.3702 66.77 46.4002 66.89 46.4002 67.03C46.4002 67.17 46.3702 67.28 46.3002 67.39C46.2302 67.49 46.1402 67.54 46.0102 67.54C46.1602 67.54 46.2802 67.6 46.3702 67.71C46.4602 67.82 46.5202 67.96 46.5602 68.13C46.6002 68.3 46.6002 68.47 46.5802 68.64C46.5602 68.81 46.5002 68.96 46.4202 69.08C46.3402 69.2 46.2302 69.26 46.0902 69.27C46.0902 69.4 46.0202 69.51 45.9002 69.59C45.7802 69.67 45.6402 69.72 45.4602 69.75C45.2902 69.77 45.1102 69.77 44.9402 69.75C44.7602 69.72 44.6202 69.66 44.5002 69.58C44.3802 69.49 44.3302 69.39 44.3302 69.25C44.3302 69.46 44.2902 69.59 44.1902 69.67C44.1002 69.74 44.0102 69.75 43.9202 69.67C43.8302 69.59 43.7802 69.46 43.7802 69.25C43.6702 69.38 43.5602 69.45 43.4502 69.46C43.3402 69.46 43.2402 69.44 43.1602 69.36C43.0802 69.28 43.0502 69.2 43.0602 69.09C42.9302 69.2 42.7202 69.27 42.4302 69.31C42.1402 69.35 41.7902 69.33 41.3702 69.23C40.9502 69.14 40.5002 68.94 40.0102 68.65L40.0202 68.6ZM43.1602 68C43.0902 67.96 43.0602 67.89 43.0702 67.78C43.0902 67.67 43.1302 67.56 43.1902 67.44C43.2502 67.32 43.3202 67.21 43.4002 67.13C43.3302 67.11 43.2602 67.08 43.2002 67.02C43.1402 66.96 43.1002 66.9 43.0802 66.82C43.0202 66.9 42.9402 66.97 42.8202 67.02C42.7102 67.07 42.5902 67.1 42.4702 67.11C42.3502 67.11 42.2602 67.1 42.1802 67.05C42.2002 67.12 42.1802 67.19 42.1302 67.25C42.2402 67.29 42.3702 67.36 42.5002 67.47C42.6402 67.58 42.7602 67.68 42.8702 67.79C42.9802 67.9 43.0702 67.97 43.1402 68H43.1602Z" fill="#603913"/>
<path d="M47.6801 68.34C47.4401 68.34 47.2801 68.29 47.2001 68.19C47.1201 68.09 47.1201 67.99 47.2001 67.9C47.2801 67.8 47.4401 67.75 47.6801 67.75C47.5201 67.75 47.3901 67.7 47.3101 67.59C47.2301 67.48 47.1901 67.35 47.1901 67.22C47.1901 67.09 47.2301 66.96 47.3101 66.85C47.3901 66.74 47.5101 66.68 47.6801 66.68C47.5401 66.68 47.4301 66.62 47.3401 66.48C47.2501 66.35 47.2001 66.19 47.1701 66C47.1401 65.81 47.1401 65.62 47.1701 65.43C47.2001 65.24 47.2601 65.08 47.3401 64.95C47.4301 64.82 47.5401 64.75 47.6801 64.75C47.5701 64.75 47.4901 64.69 47.4201 64.57C47.3501 64.45 47.3101 64.3 47.2901 64.13C47.2701 63.95 47.2701 63.78 47.2901 63.6C47.3101 63.42 47.3601 63.28 47.4201 63.16C47.4901 63.04 47.5801 62.98 47.6801 62.98C47.5201 62.98 47.3901 62.92 47.3101 62.8C47.2301 62.68 47.1901 62.54 47.1901 62.39C47.1901 62.24 47.2301 62.1 47.3101 61.98C47.3901 61.86 47.5101 61.8 47.6801 61.8C47.4801 61.82 47.3501 61.77 47.2701 61.65C47.1901 61.54 47.1801 61.41 47.2301 61.28C47.2801 61.15 47.4101 61.08 47.6001 61.06C47.6001 60.92 47.6501 60.82 47.7401 60.75C47.8301 60.68 47.9201 60.65 48.0301 60.65C48.1401 60.65 48.2301 60.69 48.3101 60.77C48.3901 60.84 48.4301 60.95 48.4301 61.09C48.4301 60.93 48.4901 60.81 48.6301 60.72C48.7701 60.63 48.9401 60.58 49.1301 60.57C49.3201 60.56 49.4901 60.59 49.6501 60.67C49.8001 60.74 49.8801 60.86 49.8901 61.01C50.0401 61.01 50.1501 61.11 50.2201 61.27C50.2901 61.44 50.3201 61.63 50.3201 61.85C50.3201 62.07 50.2801 62.26 50.2001 62.43C50.1201 62.59 50.0101 62.68 49.8601 62.68C49.9901 62.68 50.0901 62.74 50.1501 62.87C50.2201 63 50.2501 63.15 50.2501 63.32C50.2501 63.49 50.2201 63.64 50.1501 63.77C50.0801 63.9 49.9901 63.96 49.8601 63.96C50.0101 63.96 50.1201 64.02 50.1901 64.16C50.2601 64.3 50.3001 64.45 50.2901 64.6C50.3101 64.6 50.3301 64.62 50.3501 64.64C50.3701 64.49 50.4501 64.37 50.5901 64.27C50.7301 64.17 50.8701 64.17 51.0301 64.27C50.9201 64.2 50.8701 64.1 50.8901 63.98C50.9101 63.86 50.9701 63.76 51.0601 63.69C51.1501 63.62 51.2601 63.62 51.3901 63.69C51.3701 63.56 51.4201 63.45 51.5401 63.35C51.6701 63.26 51.8201 63.19 52.0101 63.15C52.1901 63.11 52.3601 63.11 52.5101 63.15C52.6601 63.19 52.7501 63.28 52.7701 63.41C52.7701 63.22 52.8201 63.1 52.9201 63.04C53.0201 62.98 53.1201 62.98 53.2101 63.04C53.3001 63.1 53.3601 63.23 53.3601 63.41C53.3601 63.21 53.4101 63.07 53.5301 63C53.6501 62.93 53.7701 62.93 53.8901 63C54.0101 63.07 54.0701 63.2 54.0701 63.41C54.1801 63.48 54.2201 63.59 54.2001 63.73C54.1801 63.87 54.1301 64.01 54.0301 64.14C53.9401 64.27 53.8301 64.37 53.7101 64.43C53.5901 64.49 53.4701 64.49 53.3701 64.41C53.4901 64.5 53.5301 64.64 53.4901 64.83C53.4501 65.02 53.3601 65.21 53.2301 65.39C53.1001 65.57 52.9501 65.71 52.7901 65.79C52.9301 65.85 53.0401 65.95 53.1101 66.1C53.1801 66.25 53.2101 66.4 53.1801 66.55C53.1601 66.7 53.0601 66.81 52.9101 66.88C53.0201 66.83 53.1501 66.86 53.3001 66.96C53.4401 67.06 53.5701 67.2 53.6801 67.38C53.7901 67.56 53.8601 67.73 53.8801 67.9C53.9001 68.07 53.8601 68.19 53.7401 68.26C53.8601 68.19 53.9901 68.18 54.1101 68.23C54.2301 68.28 54.3301 68.37 54.4001 68.49C54.4701 68.61 54.5101 68.73 54.5001 68.86C54.4901 68.99 54.4301 69.1 54.3101 69.18C54.3101 69.34 54.2401 69.47 54.0901 69.55C53.9501 69.63 53.7801 69.67 53.6001 69.67C53.4201 69.67 53.2501 69.63 53.1101 69.55C52.9701 69.47 52.9001 69.35 52.9001 69.18C52.8801 69.34 52.8101 69.44 52.6701 69.51C52.5301 69.57 52.3801 69.59 52.2101 69.57C52.0401 69.55 51.9001 69.49 51.7701 69.4C51.6501 69.31 51.5901 69.19 51.6101 69.03C51.4301 69.14 51.2901 69.17 51.1801 69.13C51.0701 69.09 51.0301 69.01 51.0501 68.9C51.0701 68.79 51.1601 68.68 51.3301 68.57C51.2401 68.63 51.1301 68.61 51.0001 68.52C50.8701 68.43 50.7501 68.3 50.6401 68.14C50.5201 67.98 50.4301 67.81 50.3701 67.64C50.2601 67.73 50.1401 67.76 50.0101 67.73C50.0801 67.83 50.1301 67.97 50.1401 68.15C50.1501 68.33 50.1401 68.49 50.0901 68.64C50.0401 68.79 49.9601 68.86 49.8401 68.86C49.9201 69.04 49.9201 69.19 49.8201 69.3C49.7301 69.41 49.6101 69.46 49.4601 69.46C49.3201 69.46 49.2001 69.36 49.1201 69.18C49.1201 69.3 49.0701 69.4 48.9801 69.46C48.8901 69.52 48.7801 69.56 48.6601 69.56C48.5401 69.56 48.4301 69.53 48.3401 69.46C48.2501 69.39 48.2001 69.3 48.2001 69.18C48.2001 69.4 48.1501 69.54 48.0601 69.59C47.9701 69.64 47.8801 69.57 47.7801 69.38C47.6901 69.18 47.6401 68.83 47.6301 68.32L47.6801 68.34Z" fill="#603913"/>
<path d="M57.6204 69.29C57.5704 69.46 57.4804 69.57 57.3504 69.63C57.2204 69.68 57.0804 69.69 56.9404 69.65C56.8004 69.61 56.6805 69.54 56.5905 69.42C56.5005 69.31 56.4804 69.16 56.5304 68.99C56.4404 69.11 56.3304 69.18 56.2104 69.19C56.0904 69.2 55.9804 69.17 55.8704 69.1C55.7604 69.03 55.7004 68.93 55.6704 68.81C55.6404 68.69 55.6705 68.57 55.7705 68.44C55.6505 68.5 55.5205 68.47 55.4005 68.36C55.2805 68.25 55.1705 68.1 55.0905 67.92C55.0105 67.74 54.9705 67.56 54.9705 67.4C54.9705 67.24 55.0305 67.13 55.1505 67.07C55.0005 67.07 54.8904 67 54.8204 66.86C54.7504 66.72 54.7104 66.56 54.7104 66.37C54.7104 66.18 54.7504 66.02 54.8204 65.88C54.8904 65.74 55.0004 65.67 55.1404 65.67C54.9204 65.61 54.7905 65.51 54.7505 65.38C54.7105 65.25 54.7405 65.14 54.8405 65.05C54.9405 64.96 55.1004 64.95 55.3204 65.01C55.2504 64.95 55.2205 64.85 55.2505 64.72C55.2805 64.59 55.3404 64.46 55.4404 64.32C55.5404 64.18 55.6505 64.06 55.7705 63.95C55.8905 63.84 56.0105 63.76 56.1305 63.71C56.2505 63.66 56.3404 63.67 56.4204 63.73C56.3804 63.59 56.4205 63.47 56.5405 63.36C56.6605 63.25 56.8105 63.17 56.9905 63.12C57.1705 63.07 57.3405 63.05 57.4905 63.08C57.6505 63.11 57.7404 63.19 57.7804 63.33C57.7804 63.17 57.8805 63.07 58.0605 63C58.2405 62.94 58.4305 62.92 58.6505 62.93C58.8705 62.94 59.0605 63 59.2205 63.09C59.3805 63.18 59.4604 63.3 59.4404 63.46C59.5004 63.3 59.6005 63.22 59.7205 63.21C59.8405 63.2 59.9404 63.24 60.0104 63.33C60.0904 63.42 60.1005 63.54 60.0405 63.7C60.1305 63.61 60.2505 63.6 60.4005 63.66C60.5505 63.72 60.7005 63.82 60.8405 63.96C60.9805 64.1 61.0905 64.25 61.1505 64.4C61.2105 64.55 61.2005 64.68 61.1105 64.77C61.2305 64.75 61.3405 64.79 61.4505 64.89C61.5505 65 61.6304 65.14 61.6904 65.31C61.7504 65.48 61.7905 65.66 61.7905 65.84C61.7905 66.02 61.7804 66.19 61.7304 66.32C61.6804 66.46 61.5904 66.54 61.4604 66.57C61.7004 66.68 61.8004 66.76 61.7804 66.81C61.7604 66.86 61.6204 66.84 61.3904 66.73C61.3904 66.84 61.3204 66.92 61.1904 66.97C61.0504 67.02 60.9004 67.05 60.7304 67.05C60.5604 67.05 60.4005 67.02 60.2705 66.97C60.1405 66.92 60.0704 66.84 60.0704 66.73C60.0704 66.87 60.0105 66.97 59.8805 67.04C59.7605 67.11 59.6204 67.15 59.4604 67.15C59.3004 67.15 59.1605 67.12 59.0405 67.05C58.9205 66.98 58.8605 66.88 58.8605 66.75C58.8605 66.89 58.8004 67 58.6604 67.09C58.5204 67.18 58.3605 67.23 58.1805 67.24C58.2605 67.34 58.3305 67.44 58.3805 67.55C58.4305 67.66 58.4704 67.76 58.4804 67.85C58.5604 67.76 58.6804 67.68 58.8504 67.62C59.0104 67.55 59.1804 67.51 59.3504 67.5C59.5204 67.48 59.6805 67.5 59.8105 67.53C59.9505 67.57 60.0304 67.64 60.0504 67.76C60.0504 67.62 60.1004 67.51 60.2104 67.44C60.3204 67.37 60.4504 67.33 60.6004 67.33C60.7504 67.33 60.8805 67.37 60.9905 67.44C61.1005 67.51 61.1505 67.62 61.1505 67.76C61.3105 67.79 61.4105 67.86 61.4505 67.96C61.4805 68.06 61.4604 68.15 61.3904 68.23C61.3204 68.31 61.2004 68.33 61.0504 68.3C61.1204 68.41 61.1405 68.51 61.0905 68.63C61.0405 68.74 60.9604 68.83 60.8504 68.91C60.7404 68.99 60.6204 69.03 60.5104 69.04C60.4004 69.05 60.3005 69 60.2205 68.91C60.2705 69.07 60.2505 69.2 60.1505 69.32C60.0605 69.43 59.9304 69.52 59.7804 69.57C59.6304 69.62 59.4805 69.62 59.3305 69.57C59.1905 69.52 59.0905 69.42 59.0405 69.27C59.0605 69.49 59.0005 69.64 58.8605 69.72C58.7205 69.8 58.5404 69.81 58.3204 69.74C58.0904 69.67 57.8605 69.52 57.6105 69.29H57.6204ZM58.1204 65.81C58.1204 65.65 58.1705 65.55 58.2505 65.53C58.3405 65.51 58.4005 65.56 58.4305 65.68C58.4505 65.61 58.5005 65.54 58.5805 65.47C58.6505 65.4 58.7305 65.36 58.8105 65.34C58.7105 65.27 58.6305 65.16 58.5605 65.02C58.4905 64.88 58.4705 64.76 58.5005 64.65C58.4305 64.69 58.3405 64.72 58.2405 64.72C58.1405 64.72 58.0504 64.72 57.9804 64.68C58.0004 64.77 58.0005 64.88 57.9705 65C57.9405 65.12 57.8804 65.23 57.8204 65.33C57.7504 65.43 57.6705 65.48 57.5805 65.49C57.6905 65.51 57.7704 65.57 57.8204 65.66C57.8704 65.75 57.9704 65.79 58.1204 65.79V65.81Z" fill="#603913"/>
<path d="M65.2601 69.29C65.2101 69.46 65.1201 69.57 64.9901 69.63C64.8601 69.69 64.7201 69.69 64.5801 69.65C64.4401 69.61 64.3201 69.54 64.2301 69.42C64.1401 69.31 64.1201 69.16 64.1701 68.99C64.0801 69.11 63.9701 69.18 63.8501 69.19C63.7301 69.2 63.6201 69.17 63.5101 69.1C63.4101 69.03 63.3401 68.93 63.3101 68.81C63.2801 68.69 63.3101 68.57 63.4101 68.44C63.2901 68.5 63.1701 68.47 63.0401 68.36C62.9201 68.25 62.8101 68.1 62.7301 67.92C62.6501 67.74 62.6101 67.56 62.6101 67.4C62.6101 67.24 62.6701 67.13 62.7901 67.07C62.6401 67.07 62.5301 67 62.4601 66.86C62.3901 66.72 62.3501 66.56 62.3501 66.37C62.3501 66.18 62.3901 66.02 62.4601 65.88C62.5301 65.74 62.6401 65.67 62.7801 65.67C62.5601 65.61 62.4301 65.51 62.3901 65.38C62.3501 65.25 62.3901 65.14 62.4801 65.05C62.5801 64.96 62.7401 64.95 62.9701 65.01C62.9001 64.95 62.8701 64.85 62.9001 64.72C62.9301 64.59 62.9901 64.46 63.0901 64.32C63.1901 64.18 63.3001 64.06 63.4201 63.95C63.5401 63.84 63.6601 63.76 63.7801 63.71C63.9001 63.66 64.0001 63.67 64.0701 63.73C64.0301 63.59 64.0701 63.47 64.1901 63.36C64.3101 63.25 64.4601 63.17 64.6401 63.12C64.8201 63.07 64.9901 63.05 65.1401 63.08C65.2901 63.11 65.3901 63.19 65.4401 63.33C65.4401 63.17 65.5401 63.07 65.7201 63C65.9001 62.94 66.0901 62.92 66.3101 62.93C66.5301 62.94 66.7201 63 66.8801 63.09C67.0401 63.18 67.1201 63.3 67.1001 63.46C67.1701 63.3 67.2601 63.22 67.3801 63.21C67.5001 63.2 67.6001 63.24 67.6801 63.33C67.7601 63.42 67.7701 63.54 67.7101 63.7C67.8001 63.61 67.9201 63.6 68.0701 63.66C68.2201 63.72 68.3701 63.82 68.5101 63.96C68.6501 64.1 68.7601 64.25 68.8201 64.4C68.8801 64.56 68.8701 64.68 68.7801 64.77C68.9001 64.75 69.0101 64.79 69.1201 64.89C69.2201 65 69.3001 65.14 69.3701 65.31C69.4401 65.48 69.4701 65.66 69.4701 65.84C69.4701 66.02 69.4601 66.19 69.4101 66.32C69.3601 66.45 69.2701 66.54 69.1401 66.57C69.3801 66.68 69.4801 66.76 69.4601 66.81C69.4401 66.86 69.3001 66.84 69.0701 66.73C69.0701 66.84 69.0001 66.92 68.8701 66.97C68.7401 67.02 68.5801 67.05 68.4101 67.05C68.2401 67.05 68.0801 67.02 67.9501 66.97C67.8101 66.92 67.7501 66.84 67.7501 66.73C67.7501 66.87 67.6901 66.97 67.5701 67.04C67.4501 67.11 67.3101 67.15 67.1501 67.15C66.9901 67.15 66.8501 67.12 66.7301 67.05C66.6101 66.98 66.5501 66.88 66.5501 66.75C66.5501 66.89 66.4901 67 66.3501 67.09C66.2101 67.18 66.0501 67.23 65.8701 67.24C65.9501 67.34 66.0201 67.44 66.0701 67.55C66.1201 67.66 66.1601 67.76 66.1701 67.85C66.2501 67.76 66.3701 67.68 66.5401 67.62C66.7101 67.56 66.8701 67.51 67.0401 67.5C67.2101 67.48 67.3601 67.5 67.5001 67.53C67.6301 67.57 67.7101 67.64 67.7401 67.76C67.7401 67.62 67.7901 67.51 67.9101 67.44C68.0201 67.37 68.1501 67.33 68.3001 67.33C68.4501 67.33 68.5801 67.37 68.6901 67.44C68.8001 67.51 68.8601 67.62 68.8601 67.76C69.0201 67.79 69.1201 67.86 69.1601 67.96C69.1901 68.06 69.1701 68.15 69.1001 68.23C69.0301 68.31 68.9101 68.33 68.7601 68.3C68.8301 68.41 68.8501 68.51 68.8001 68.63C68.7501 68.74 68.6701 68.83 68.5601 68.91C68.4501 68.99 68.3301 69.03 68.2201 69.04C68.1001 69.04 68.0001 69 67.9301 68.91C67.9801 69.07 67.9601 69.2 67.8601 69.32C67.7701 69.43 67.6401 69.52 67.4901 69.57C67.3301 69.62 67.1801 69.62 67.0401 69.57C66.9001 69.52 66.8001 69.42 66.7501 69.27C66.7701 69.49 66.7101 69.64 66.5701 69.72C66.4401 69.8 66.2601 69.81 66.0301 69.74C65.8001 69.67 65.5701 69.52 65.3201 69.29H65.2601ZM65.7601 65.81C65.7601 65.65 65.8101 65.55 65.9001 65.53C65.9901 65.51 66.0501 65.56 66.0801 65.68C66.1001 65.61 66.1501 65.54 66.2301 65.47C66.3001 65.4 66.3801 65.36 66.4601 65.34C66.3601 65.27 66.2801 65.16 66.2101 65.02C66.1401 64.88 66.1201 64.76 66.1501 64.65C66.0801 64.69 65.9901 64.72 65.8901 64.72C65.7901 64.72 65.7001 64.72 65.6301 64.68C65.6501 64.77 65.6501 64.88 65.6201 65C65.5901 65.12 65.5401 65.23 65.4701 65.33C65.4001 65.43 65.3201 65.48 65.2301 65.49C65.3401 65.51 65.4201 65.57 65.4701 65.66C65.5201 65.75 65.6201 65.79 65.7701 65.79L65.7601 65.81Z" fill="#603913"/>
<path d="M31.2203 77.66C31.0003 77.66 30.8303 77.59 30.7203 77.46C30.6103 77.32 30.5503 77.16 30.5503 76.98C30.5503 76.8 30.6103 76.64 30.7203 76.5C30.8303 76.37 31.0003 76.3 31.2203 76.3C31.0203 76.3 30.8603 76.23 30.7503 76.1C30.6403 75.97 30.5903 75.82 30.5903 75.65C30.5903 75.48 30.6403 75.34 30.7503 75.21C30.8603 75.08 31.0103 75.02 31.2203 75.02C31.0603 75.02 30.9403 74.96 30.8503 74.84C30.7603 74.72 30.6903 74.57 30.6703 74.4C30.6503 74.23 30.6403 74.05 30.6703 73.88C30.7003 73.71 30.7603 73.56 30.8503 73.44C30.9403 73.32 31.0703 73.26 31.2203 73.26C30.9303 73.26 30.7403 73.19 30.6403 73.06C30.5403 72.93 30.5403 72.8 30.6403 72.67C30.7403 72.54 30.9303 72.47 31.2203 72.47C31.0403 72.45 30.9103 72.39 30.8203 72.27C30.7303 72.15 30.7003 72.03 30.7003 71.88C30.7003 71.73 30.7603 71.61 30.8603 71.51C30.9603 71.41 31.1003 71.36 31.2803 71.37C31.2803 71.13 31.3503 70.95 31.4903 70.83C31.6303 70.71 31.7903 70.65 31.9703 70.65C32.1503 70.65 32.3103 70.71 32.4503 70.83C32.5903 70.95 32.6603 71.13 32.6603 71.37C32.6603 71.21 32.7203 71.08 32.8503 70.98C32.9803 70.89 33.1303 70.82 33.3203 70.79C33.5003 70.76 33.6903 70.76 33.8703 70.79C34.0503 70.82 34.2103 70.89 34.3403 70.98C34.4703 71.07 34.5303 71.2 34.5303 71.37C34.5303 71.13 34.5903 70.95 34.7003 70.84C34.8103 70.73 34.9503 70.66 35.1003 70.66C35.2503 70.66 35.3803 70.72 35.4903 70.84C35.6003 70.96 35.6603 71.14 35.6603 71.39C35.6803 71.18 35.7403 71.02 35.8403 70.93C35.9303 70.84 36.0403 70.79 36.1503 70.81C36.2603 70.83 36.3503 70.89 36.4303 71C36.5003 71.11 36.5303 71.27 36.5003 71.48C36.5703 71.22 36.6703 71.06 36.7903 70.99C36.9103 70.92 37.0103 70.95 37.0803 71.07C37.1503 71.19 37.1503 71.38 37.0803 71.64C37.1903 71.5 37.3303 71.43 37.4903 71.43C37.6503 71.43 37.7803 71.48 37.9103 71.58C38.0303 71.68 38.1103 71.81 38.1503 71.95C38.1903 72.1 38.1503 72.25 38.0303 72.39C38.2503 72.34 38.4303 72.36 38.5603 72.46C38.7003 72.55 38.7803 72.68 38.8203 72.83C38.8603 72.99 38.8403 73.14 38.7603 73.28C38.6803 73.43 38.5303 73.53 38.3103 73.57C38.5003 73.64 38.6303 73.73 38.6903 73.84C38.7603 73.96 38.7703 74.07 38.7303 74.17C38.6903 74.28 38.6103 74.35 38.4803 74.4C38.3603 74.45 38.2003 74.44 38.0103 74.36C38.2003 74.61 38.2803 74.8 38.2603 74.95C38.2403 75.1 38.1503 75.17 37.9903 75.17C37.8303 75.17 37.6603 75.04 37.4703 74.79C37.5603 74.9 37.6103 75.02 37.6203 75.15C37.8303 75.23 38.0203 75.36 38.1703 75.54C38.3303 75.72 38.3503 75.9 38.2603 76.07C38.4603 76.02 38.6203 76.02 38.7403 76.07C38.8603 76.12 38.9403 76.2 38.9703 76.31C39.0003 76.42 38.9703 76.52 38.9003 76.63C38.8303 76.74 38.6903 76.82 38.4903 76.88C38.7203 76.93 38.8803 77.02 38.9803 77.15C39.0703 77.28 39.1103 77.42 39.0803 77.56C39.0503 77.7 38.9703 77.82 38.8303 77.91C38.7003 78 38.5103 78.02 38.2703 77.97C38.4303 78.13 38.5203 78.28 38.5203 78.45C38.5203 78.62 38.4703 78.75 38.3603 78.86C38.2503 78.97 38.1203 79.03 37.9503 79.03C37.7903 79.03 37.6203 78.96 37.4603 78.8C37.5703 79.05 37.6003 79.24 37.5603 79.36C37.5203 79.48 37.4503 79.51 37.3303 79.46C37.2103 79.41 37.1003 79.25 37.0003 79C37.0203 79.18 36.9803 79.33 36.8603 79.45C36.7403 79.57 36.5903 79.66 36.4103 79.72C36.2303 79.78 36.0403 79.8 35.8403 79.78C35.6403 79.76 35.4803 79.71 35.3403 79.61C35.2003 79.52 35.1203 79.38 35.0903 79.2C35.0903 79.42 35.0203 79.59 34.8903 79.7C34.7603 79.82 34.6103 79.87 34.4303 79.87C34.2503 79.87 34.1003 79.81 33.9703 79.7C33.8403 79.59 33.7703 79.42 33.7703 79.2C33.7703 79.39 33.7203 79.53 33.6203 79.62C33.5203 79.71 33.4003 79.76 33.2603 79.76C33.1203 79.76 33.0003 79.71 32.9003 79.62C32.8003 79.53 32.7503 79.39 32.7503 79.2C32.7503 79.36 32.7003 79.47 32.6003 79.55C32.5003 79.63 32.3703 79.66 32.2103 79.64C32.0503 79.62 31.9003 79.55 31.7503 79.41C31.6003 79.27 31.4703 79.06 31.3703 78.76C31.2703 78.47 31.2203 78.09 31.2303 77.61L31.2203 77.66ZM33.5503 73.78C33.6803 73.78 33.7803 73.83 33.8403 73.94C33.9003 74.05 33.9403 74.17 33.9603 74.3C33.9803 74.43 33.9803 74.53 33.9803 74.58C34.0003 74.45 34.0503 74.36 34.1503 74.31C34.2503 74.26 34.3503 74.26 34.4603 74.29C34.5703 74.33 34.6303 74.4 34.6603 74.52C34.6403 74.37 34.7103 74.26 34.8703 74.19C35.0303 74.12 35.1603 74.11 35.2903 74.17C35.2703 74.08 35.2903 73.99 35.3403 73.89C35.3903 73.8 35.4703 73.73 35.5703 73.7C35.4903 73.65 35.4203 73.57 35.3803 73.46C35.3303 73.35 35.3203 73.25 35.3403 73.16C35.2703 73.21 35.2203 73.22 35.1703 73.18C35.1203 73.15 35.1103 73.09 35.1303 73C35.0303 73.12 34.8903 73.18 34.6903 73.17C34.4903 73.16 34.3603 73.09 34.2803 72.95C34.2803 73.05 34.2403 73.13 34.1703 73.2C34.1003 73.27 34.0103 73.3 33.9103 73.3C33.9503 73.4 33.9403 73.5 33.8803 73.6C33.8203 73.7 33.7103 73.75 33.5503 73.75V73.78ZM34.6703 77.87C34.6703 77.73 34.7203 77.64 34.8403 77.58C34.9603 77.52 35.0703 77.52 35.1903 77.55C35.1503 77.41 35.1603 77.26 35.2203 77.1C35.2803 76.94 35.3703 76.82 35.5003 76.74C35.3703 76.68 35.2503 76.59 35.1403 76.48C35.0303 76.36 34.9703 76.24 34.9603 76.12C34.8903 76.23 34.7903 76.29 34.6403 76.32C34.4903 76.34 34.3503 76.34 34.2203 76.3C34.2403 76.43 34.2103 76.55 34.1203 76.67C34.0303 76.79 33.9103 76.83 33.7603 76.82C33.8803 76.89 33.9603 77.01 34.0103 77.18C34.0503 77.34 34.0603 77.49 34.0303 77.62C34.1503 77.56 34.2903 77.56 34.4503 77.6C34.6103 77.65 34.6803 77.74 34.6803 77.89L34.6703 77.87Z" fill="#603913"/>
<path d="M40.0202 78.7C39.9302 78.7 39.8502 78.65 39.7902 78.54C39.7302 78.43 39.6902 78.29 39.6602 78.12C39.6402 77.95 39.6302 77.78 39.6402 77.61C39.6502 77.44 39.6802 77.29 39.7302 77.17C39.7802 77.05 39.8502 76.99 39.9502 76.99C39.9102 76.92 39.9302 76.83 40.0102 76.72C40.0902 76.61 40.2102 76.51 40.3602 76.41C40.5102 76.31 40.6702 76.22 40.8402 76.15C41.0102 76.08 41.1602 76.03 41.2902 76.02C41.4202 76.01 41.5102 76.03 41.5502 76.11C41.5302 76 41.5702 75.91 41.6702 75.83C41.7702 75.75 41.8802 75.69 42.0302 75.65C42.1802 75.61 42.3202 75.59 42.4702 75.6C42.6102 75.6 42.7302 75.65 42.8102 75.72C42.7802 75.59 42.8102 75.45 42.9302 75.29C42.7202 75.29 42.5402 75.25 42.3602 75.19C42.1902 75.13 42.1102 75.04 42.1102 74.94C42.1102 75.06 42.0602 75.15 41.9602 75.21C41.8602 75.27 41.7502 75.3 41.6202 75.3C41.4902 75.3 41.3802 75.27 41.2802 75.21C41.1802 75.15 41.1302 75.06 41.1302 74.94C41.0602 75.06 40.9602 75.13 40.8502 75.15C40.7402 75.17 40.6202 75.15 40.5102 75.08C40.4002 75.01 40.3202 74.93 40.2702 74.82C40.2202 74.71 40.2302 74.59 40.3102 74.47C40.1702 74.31 40.1202 74.17 40.1602 74.05C40.2002 73.92 40.2802 73.85 40.4102 73.82C40.5402 73.8 40.6802 73.86 40.8202 74.02C40.7202 73.83 40.7002 73.68 40.7502 73.58C40.8002 73.47 40.8802 73.43 40.9902 73.45C41.1002 73.47 41.2002 73.58 41.3002 73.78C41.2702 73.65 41.2902 73.54 41.3502 73.44C41.4202 73.35 41.5102 73.28 41.6302 73.25C41.7502 73.22 41.8602 73.22 41.9702 73.26C42.0802 73.3 42.1502 73.39 42.1802 73.52C42.1802 73.36 42.2302 73.23 42.3402 73.15C42.4502 73.06 42.5902 73.02 42.7502 73.01C42.9102 73.01 43.0402 73.03 43.1702 73.11C43.3002 73.19 43.3602 73.3 43.3702 73.47C43.3902 73.25 43.4402 73.11 43.5402 73.04C43.6402 72.98 43.7302 72.98 43.8102 73.06C43.8902 73.14 43.9202 73.29 43.9102 73.51C43.9502 73.36 44.0302 73.27 44.1402 73.22C44.2502 73.17 44.3802 73.17 44.5002 73.21C44.6302 73.25 44.7302 73.32 44.8002 73.42C44.8702 73.52 44.8902 73.64 44.8502 73.78C44.9402 73.66 45.0502 73.61 45.1702 73.61C45.2902 73.61 45.4102 73.66 45.5102 73.73C45.6102 73.81 45.6802 73.91 45.7102 74.03C45.7402 74.15 45.7102 74.27 45.6202 74.39C45.8202 74.3 45.9802 74.3 46.1002 74.39C46.2202 74.48 46.2802 74.6 46.2602 74.75C46.2402 74.9 46.1402 75.02 45.9402 75.11C46.1002 75.11 46.2302 75.17 46.3102 75.32C46.4002 75.47 46.4502 75.65 46.4602 75.84C46.4702 76.03 46.4402 76.21 46.3702 76.37C46.3002 76.53 46.1802 76.61 46.0102 76.62C46.1402 76.62 46.2402 76.67 46.3002 76.77C46.3702 76.87 46.4002 76.99 46.4002 77.13C46.4002 77.27 46.3702 77.38 46.3002 77.49C46.2302 77.59 46.1402 77.64 46.0102 77.64C46.1602 77.64 46.2802 77.7 46.3702 77.81C46.4602 77.92 46.5202 78.06 46.5602 78.23C46.6002 78.4 46.6002 78.57 46.5802 78.74C46.5602 78.91 46.5002 79.06 46.4202 79.18C46.3402 79.3 46.2302 79.36 46.0902 79.37C46.0902 79.5 46.0202 79.61 45.9002 79.69C45.7802 79.77 45.6402 79.82 45.4602 79.85C45.2902 79.87 45.1102 79.87 44.9402 79.85C44.7602 79.82 44.6202 79.76 44.5002 79.68C44.3802 79.59 44.3302 79.49 44.3302 79.35C44.3302 79.56 44.2902 79.69 44.1902 79.77C44.1002 79.84 44.0102 79.85 43.9202 79.77C43.8302 79.69 43.7802 79.56 43.7802 79.35C43.6702 79.48 43.5602 79.55 43.4502 79.56C43.3402 79.56 43.2402 79.54 43.1602 79.46C43.0802 79.38 43.0502 79.3 43.0602 79.19C42.9302 79.3 42.7202 79.37 42.4302 79.41C42.1402 79.45 41.7902 79.43 41.3702 79.33C40.9502 79.24 40.5002 79.04 40.0102 78.75L40.0202 78.7ZM43.1602 78.1C43.0902 78.06 43.0602 77.99 43.0702 77.88C43.0902 77.77 43.1302 77.66 43.1902 77.54C43.2502 77.42 43.3202 77.31 43.4002 77.23C43.3302 77.21 43.2602 77.18 43.2002 77.12C43.1402 77.06 43.1002 77 43.0802 76.92C43.0202 77 42.9402 77.07 42.8202 77.12C42.7102 77.17 42.5902 77.2 42.4702 77.21C42.3502 77.21 42.2602 77.2 42.1802 77.15C42.2002 77.22 42.1802 77.29 42.1302 77.35C42.2402 77.39 42.3702 77.46 42.5002 77.57C42.6402 77.68 42.7602 77.78 42.8702 77.89C42.9802 78 43.0702 78.07 43.1402 78.1H43.1602Z" fill="#603913"/>
<path d="M47.6801 78.44C47.4401 78.44 47.2801 78.39 47.2001 78.29C47.1201 78.19 47.1201 78.09 47.2001 78C47.2801 77.9 47.4401 77.85 47.6801 77.85C47.5201 77.85 47.3901 77.8 47.3101 77.69C47.2301 77.58 47.1901 77.45 47.1901 77.32C47.1901 77.19 47.2301 77.06 47.3101 76.95C47.3901 76.84 47.5101 76.78 47.6801 76.78C47.5401 76.78 47.4301 76.72 47.3401 76.58C47.2501 76.45 47.2001 76.29 47.1701 76.1C47.1401 75.91 47.1401 75.72 47.1701 75.53C47.2001 75.34 47.2601 75.18 47.3401 75.05C47.4301 74.92 47.5401 74.85 47.6801 74.85C47.5701 74.85 47.4901 74.79 47.4201 74.67C47.3501 74.55 47.3101 74.4 47.2901 74.23C47.2701 74.05 47.2701 73.88 47.2901 73.7C47.3101 73.52 47.3601 73.38 47.4201 73.26C47.4901 73.14 47.5801 73.08 47.6801 73.08C47.5201 73.08 47.3901 73.02 47.3101 72.9C47.2301 72.78 47.1901 72.64 47.1901 72.49C47.1901 72.34 47.2301 72.2 47.3101 72.08C47.3901 71.96 47.5101 71.9 47.6801 71.9C47.4801 71.92 47.3501 71.87 47.2701 71.75C47.1901 71.64 47.1801 71.51 47.2301 71.38C47.2801 71.25 47.4101 71.18 47.6001 71.16C47.6001 71.02 47.6501 70.92 47.7401 70.85C47.8301 70.78 47.9201 70.75 48.0301 70.75C48.1401 70.75 48.2301 70.79 48.3101 70.87C48.3901 70.94 48.4301 71.05 48.4301 71.19C48.4301 71.03 48.4901 70.91 48.6301 70.82C48.7701 70.73 48.9401 70.68 49.1301 70.67C49.3201 70.66 49.4901 70.69 49.6501 70.77C49.8001 70.84 49.8801 70.96 49.8901 71.11C50.0401 71.11 50.1501 71.21 50.2201 71.37C50.2901 71.54 50.3201 71.73 50.3201 71.95C50.3201 72.17 50.2801 72.36 50.2001 72.53C50.1201 72.69 50.0101 72.78 49.8601 72.78C49.9901 72.78 50.0901 72.84 50.1501 72.97C50.2201 73.1 50.2501 73.25 50.2501 73.42C50.2501 73.59 50.2201 73.74 50.1501 73.87C50.0801 74 49.9901 74.06 49.8601 74.06C50.0101 74.06 50.1201 74.12 50.1901 74.26C50.2601 74.4 50.3001 74.55 50.2901 74.7C50.3101 74.7 50.3301 74.72 50.3501 74.74C50.3701 74.59 50.4501 74.47 50.5901 74.37C50.7301 74.27 50.8701 74.27 51.0301 74.37C50.9201 74.3 50.8701 74.2 50.8901 74.08C50.9101 73.96 50.9701 73.86 51.0601 73.79C51.1501 73.72 51.2601 73.72 51.3901 73.79C51.3701 73.66 51.4201 73.55 51.5401 73.45C51.6701 73.36 51.8201 73.29 52.0101 73.25C52.1901 73.21 52.3601 73.21 52.5101 73.25C52.6601 73.29 52.7501 73.38 52.7701 73.51C52.7701 73.32 52.8201 73.2 52.9201 73.14C53.0201 73.08 53.1201 73.08 53.2101 73.14C53.3001 73.2 53.3601 73.33 53.3601 73.51C53.3601 73.31 53.4101 73.17 53.5301 73.1C53.6501 73.03 53.7701 73.03 53.8901 73.1C54.0101 73.17 54.0701 73.3 54.0701 73.51C54.1801 73.58 54.2201 73.69 54.2001 73.83C54.1801 73.97 54.1301 74.11 54.0301 74.24C53.9401 74.37 53.8301 74.47 53.7101 74.53C53.5901 74.59 53.4701 74.59 53.3701 74.51C53.4901 74.6 53.5301 74.74 53.4901 74.93C53.4501 75.12 53.3601 75.31 53.2301 75.49C53.1001 75.67 52.9501 75.81 52.7901 75.89C52.9301 75.95 53.0401 76.05 53.1101 76.2C53.1801 76.35 53.2101 76.5 53.1801 76.65C53.1601 76.8 53.0601 76.91 52.9101 76.98C53.0201 76.93 53.1501 76.96 53.3001 77.06C53.4401 77.16 53.5701 77.3 53.6801 77.48C53.7901 77.66 53.8601 77.83 53.8801 78C53.9001 78.17 53.8601 78.29 53.7401 78.36C53.8601 78.29 53.9901 78.28 54.1101 78.33C54.2301 78.38 54.3301 78.47 54.4001 78.59C54.4701 78.71 54.5101 78.83 54.5001 78.96C54.4901 79.09 54.4301 79.2 54.3101 79.28C54.3101 79.44 54.2401 79.57 54.0901 79.65C53.9501 79.73 53.7801 79.77 53.6001 79.77C53.4201 79.77 53.2501 79.73 53.1101 79.65C52.9701 79.57 52.9001 79.45 52.9001 79.28C52.8801 79.44 52.8101 79.54 52.6701 79.61C52.5301 79.67 52.3801 79.69 52.2101 79.67C52.0401 79.65 51.9001 79.59 51.7701 79.5C51.6501 79.41 51.5901 79.29 51.6101 79.13C51.4301 79.24 51.2901 79.27 51.1801 79.23C51.0701 79.19 51.0301 79.11 51.0501 79C51.0701 78.89 51.1601 78.78 51.3301 78.67C51.2401 78.73 51.1301 78.71 51.0001 78.62C50.8701 78.53 50.7501 78.4 50.6401 78.24C50.5201 78.08 50.4301 77.91 50.3701 77.74C50.2601 77.83 50.1401 77.86 50.0101 77.83C50.0801 77.93 50.1301 78.07 50.1401 78.25C50.1501 78.43 50.1401 78.59 50.0901 78.74C50.0401 78.89 49.9601 78.96 49.8401 78.96C49.9201 79.14 49.9201 79.29 49.8201 79.4C49.7301 79.51 49.6101 79.56 49.4601 79.56C49.3201 79.56 49.2001 79.46 49.1201 79.28C49.1201 79.4 49.0701 79.5 48.9801 79.56C48.8901 79.62 48.7801 79.66 48.6601 79.66C48.5401 79.66 48.4301 79.63 48.3401 79.56C48.2501 79.49 48.2001 79.4 48.2001 79.28C48.2001 79.5 48.1501 79.64 48.0601 79.69C47.9701 79.74 47.8801 79.67 47.7801 79.48C47.6901 79.28 47.6401 78.93 47.6301 78.42L47.6801 78.44Z" fill="#603913"/>
<path d="M57.6204 79.39C57.5704 79.56 57.4804 79.67 57.3504 79.73C57.2204 79.78 57.0804 79.79 56.9404 79.75C56.8004 79.71 56.6805 79.64 56.5905 79.52C56.5005 79.41 56.4804 79.26 56.5304 79.09C56.4404 79.21 56.3304 79.28 56.2104 79.29C56.0904 79.3 55.9804 79.27 55.8704 79.2C55.7604 79.13 55.7004 79.03 55.6704 78.91C55.6404 78.79 55.6705 78.67 55.7705 78.54C55.6505 78.6 55.5205 78.57 55.4005 78.46C55.2805 78.35 55.1705 78.2 55.0905 78.02C55.0105 77.84 54.9705 77.66 54.9705 77.5C54.9705 77.34 55.0305 77.23 55.1505 77.17C55.0005 77.17 54.8904 77.1 54.8204 76.96C54.7504 76.82 54.7104 76.66 54.7104 76.47C54.7104 76.28 54.7504 76.12 54.8204 75.98C54.8904 75.84 55.0004 75.77 55.1404 75.77C54.9204 75.71 54.7905 75.61 54.7505 75.48C54.7105 75.35 54.7405 75.24 54.8405 75.15C54.9405 75.06 55.1004 75.05 55.3204 75.11C55.2504 75.05 55.2205 74.95 55.2505 74.82C55.2805 74.69 55.3404 74.56 55.4404 74.42C55.5404 74.28 55.6505 74.16 55.7705 74.05C55.8905 73.94 56.0105 73.86 56.1305 73.81C56.2505 73.76 56.3404 73.77 56.4204 73.83C56.3804 73.69 56.4205 73.57 56.5405 73.46C56.6605 73.35 56.8105 73.27 56.9905 73.22C57.1705 73.17 57.3405 73.15 57.4905 73.18C57.6505 73.21 57.7404 73.29 57.7804 73.43C57.7804 73.27 57.8805 73.17 58.0605 73.1C58.2405 73.04 58.4305 73.02 58.6505 73.03C58.8705 73.04 59.0605 73.1 59.2205 73.19C59.3805 73.28 59.4604 73.4 59.4404 73.56C59.5004 73.4 59.6005 73.32 59.7205 73.31C59.8405 73.3 59.9404 73.34 60.0104 73.43C60.0904 73.52 60.1005 73.64 60.0405 73.8C60.1305 73.71 60.2505 73.7 60.4005 73.76C60.5505 73.82 60.7005 73.92 60.8405 74.06C60.9805 74.2 61.0905 74.35 61.1505 74.5C61.2105 74.65 61.2005 74.78 61.1105 74.87C61.2305 74.85 61.3405 74.89 61.4505 74.99C61.5505 75.1 61.6304 75.24 61.6904 75.41C61.7504 75.58 61.7905 75.76 61.7905 75.94C61.7905 76.12 61.7804 76.29 61.7304 76.42C61.6804 76.56 61.5904 76.64 61.4604 76.67C61.7004 76.78 61.8004 76.86 61.7804 76.91C61.7604 76.96 61.6204 76.94 61.3904 76.83C61.3904 76.94 61.3204 77.02 61.1904 77.07C61.0504 77.12 60.9004 77.15 60.7304 77.15C60.5604 77.15 60.4005 77.12 60.2705 77.07C60.1405 77.02 60.0704 76.94 60.0704 76.83C60.0704 76.97 60.0105 77.07 59.8805 77.14C59.7605 77.21 59.6204 77.25 59.4604 77.25C59.3004 77.25 59.1605 77.22 59.0405 77.15C58.9205 77.08 58.8605 76.98 58.8605 76.85C58.8605 76.99 58.8004 77.1 58.6604 77.19C58.5204 77.28 58.3605 77.33 58.1805 77.34C58.2605 77.44 58.3305 77.54 58.3805 77.65C58.4305 77.76 58.4704 77.86 58.4804 77.95C58.5604 77.86 58.6804 77.78 58.8504 77.72C59.0104 77.65 59.1804 77.61 59.3504 77.6C59.5204 77.58 59.6805 77.6 59.8105 77.63C59.9505 77.67 60.0304 77.74 60.0504 77.86C60.0504 77.72 60.1004 77.61 60.2104 77.54C60.3204 77.47 60.4504 77.43 60.6004 77.43C60.7504 77.43 60.8805 77.47 60.9905 77.54C61.1005 77.61 61.1505 77.72 61.1505 77.86C61.3105 77.89 61.4105 77.96 61.4505 78.06C61.4805 78.16 61.4604 78.25 61.3904 78.33C61.3204 78.41 61.2004 78.43 61.0504 78.4C61.1204 78.51 61.1405 78.61 61.0905 78.73C61.0405 78.84 60.9604 78.93 60.8504 79.01C60.7404 79.09 60.6204 79.13 60.5104 79.14C60.4004 79.15 60.3005 79.1 60.2205 79.01C60.2705 79.17 60.2505 79.3 60.1505 79.42C60.0605 79.53 59.9304 79.62 59.7804 79.67C59.6304 79.72 59.4805 79.72 59.3305 79.67C59.1905 79.62 59.0905 79.52 59.0405 79.37C59.0605 79.59 59.0005 79.74 58.8605 79.82C58.7205 79.9 58.5404 79.91 58.3204 79.84C58.0904 79.77 57.8605 79.62 57.6105 79.39H57.6204ZM58.1204 75.91C58.1204 75.75 58.1705 75.65 58.2505 75.63C58.3405 75.61 58.4005 75.66 58.4305 75.78C58.4505 75.71 58.5005 75.64 58.5805 75.57C58.6505 75.5 58.7305 75.46 58.8105 75.44C58.7105 75.37 58.6305 75.26 58.5605 75.12C58.4905 74.98 58.4705 74.86 58.5005 74.75C58.4305 74.79 58.3405 74.82 58.2405 74.82C58.1405 74.82 58.0504 74.82 57.9804 74.78C58.0004 74.87 58.0005 74.98 57.9705 75.1C57.9405 75.22 57.8804 75.33 57.8204 75.43C57.7504 75.53 57.6705 75.58 57.5805 75.59C57.6905 75.61 57.7704 75.67 57.8204 75.76C57.8704 75.85 57.9704 75.89 58.1204 75.89V75.91Z" fill="#603913"/>
<path d="M65.2601 79.39C65.2101 79.56 65.1201 79.67 64.9901 79.73C64.8601 79.79 64.7201 79.79 64.5801 79.75C64.4401 79.71 64.3201 79.64 64.2301 79.52C64.1401 79.41 64.1201 79.26 64.1701 79.09C64.0801 79.21 63.9701 79.28 63.8501 79.29C63.7301 79.3 63.6201 79.27 63.5101 79.2C63.4101 79.13 63.3401 79.03 63.3101 78.91C63.2801 78.79 63.3101 78.67 63.4101 78.54C63.2901 78.6 63.1701 78.57 63.0401 78.46C62.9201 78.35 62.8101 78.2 62.7301 78.02C62.6501 77.84 62.6101 77.66 62.6101 77.5C62.6101 77.34 62.6701 77.23 62.7901 77.17C62.6401 77.17 62.5301 77.1 62.4601 76.96C62.3901 76.82 62.3501 76.66 62.3501 76.47C62.3501 76.28 62.3901 76.12 62.4601 75.98C62.5301 75.84 62.6401 75.77 62.7801 75.77C62.5601 75.71 62.4301 75.61 62.3901 75.48C62.3501 75.35 62.3901 75.24 62.4801 75.15C62.5801 75.06 62.7401 75.05 62.9701 75.11C62.9001 75.05 62.8701 74.95 62.9001 74.82C62.9301 74.69 62.9901 74.56 63.0901 74.42C63.1901 74.28 63.3001 74.16 63.4201 74.05C63.5401 73.94 63.6601 73.86 63.7801 73.81C63.9001 73.76 64.0001 73.77 64.0701 73.83C64.0301 73.69 64.0701 73.57 64.1901 73.46C64.3101 73.35 64.4601 73.27 64.6401 73.22C64.8201 73.17 64.9901 73.15 65.1401 73.18C65.2901 73.21 65.3901 73.29 65.4401 73.43C65.4401 73.27 65.5401 73.17 65.7201 73.1C65.9001 73.04 66.0901 73.02 66.3101 73.03C66.5301 73.04 66.7201 73.1 66.8801 73.19C67.0401 73.28 67.1201 73.4 67.1001 73.56C67.1701 73.4 67.2601 73.32 67.3801 73.31C67.5001 73.3 67.6001 73.34 67.6801 73.43C67.7601 73.52 67.7701 73.64 67.7101 73.8C67.8001 73.71 67.9201 73.7 68.0701 73.76C68.2201 73.82 68.3701 73.92 68.5101 74.06C68.6501 74.2 68.7601 74.35 68.8201 74.5C68.8801 74.66 68.8701 74.78 68.7801 74.87C68.9001 74.85 69.0101 74.89 69.1201 74.99C69.2201 75.1 69.3001 75.24 69.3701 75.41C69.4401 75.58 69.4701 75.76 69.4701 75.94C69.4701 76.12 69.4601 76.29 69.4101 76.42C69.3601 76.55 69.2701 76.64 69.1401 76.67C69.3801 76.78 69.4801 76.86 69.4601 76.91C69.4401 76.96 69.3001 76.94 69.0701 76.83C69.0701 76.94 69.0001 77.02 68.8701 77.07C68.7401 77.12 68.5801 77.15 68.4101 77.15C68.2401 77.15 68.0801 77.12 67.9501 77.07C67.8101 77.02 67.7501 76.94 67.7501 76.83C67.7501 76.97 67.6901 77.07 67.5701 77.14C67.4501 77.21 67.3101 77.25 67.1501 77.25C66.9901 77.25 66.8501 77.22 66.7301 77.15C66.6101 77.08 66.5501 76.98 66.5501 76.85C66.5501 76.99 66.4901 77.1 66.3501 77.19C66.2101 77.28 66.0501 77.33 65.8701 77.34C65.9501 77.44 66.0201 77.54 66.0701 77.65C66.1201 77.76 66.1601 77.86 66.1701 77.95C66.2501 77.86 66.3701 77.78 66.5401 77.72C66.7101 77.66 66.8701 77.61 67.0401 77.6C67.2101 77.58 67.3601 77.6 67.5001 77.63C67.6301 77.67 67.7101 77.74 67.7401 77.86C67.7401 77.72 67.7901 77.61 67.9101 77.54C68.0201 77.47 68.1501 77.43 68.3001 77.43C68.4501 77.43 68.5801 77.47 68.6901 77.54C68.8001 77.61 68.8601 77.72 68.8601 77.86C69.0201 77.89 69.1201 77.96 69.1601 78.06C69.1901 78.16 69.1701 78.25 69.1001 78.33C69.0301 78.41 68.9101 78.43 68.7601 78.4C68.8301 78.51 68.8501 78.61 68.8001 78.73C68.7501 78.84 68.6701 78.93 68.5601 79.01C68.4501 79.09 68.3301 79.13 68.2201 79.14C68.1001 79.14 68.0001 79.1 67.9301 79.01C67.9801 79.17 67.9601 79.3 67.8601 79.42C67.7701 79.53 67.6401 79.62 67.4901 79.67C67.3301 79.72 67.1801 79.72 67.0401 79.67C66.9001 79.62 66.8001 79.52 66.7501 79.37C66.7701 79.59 66.7101 79.74 66.5701 79.82C66.4401 79.9 66.2601 79.91 66.0301 79.84C65.8001 79.77 65.5701 79.62 65.3201 79.39H65.2601ZM65.7601 75.91C65.7601 75.75 65.8101 75.65 65.9001 75.63C65.9901 75.61 66.0501 75.66 66.0801 75.78C66.1001 75.71 66.1501 75.64 66.2301 75.57C66.3001 75.5 66.3801 75.46 66.4601 75.44C66.3601 75.37 66.2801 75.26 66.2101 75.12C66.1401 74.98 66.1201 74.86 66.1501 74.75C66.0801 74.79 65.9901 74.82 65.8901 74.82C65.7901 74.82 65.7001 74.82 65.6301 74.78C65.6501 74.87 65.6501 74.98 65.6201 75.1C65.5901 75.22 65.5401 75.33 65.4701 75.43C65.4001 75.53 65.3201 75.58 65.2301 75.59C65.3401 75.61 65.4201 75.67 65.4701 75.76C65.5201 75.85 65.6201 75.89 65.7701 75.89L65.7601 75.91Z" fill="#603913"/>
<path d="M31.2203 87.83C31.0003 87.83 30.8303 87.76 30.7203 87.63C30.6103 87.49 30.5503 87.33 30.5503 87.15C30.5503 86.97 30.6103 86.81 30.7203 86.67C30.8303 86.54 31.0003 86.47 31.2203 86.47C31.0203 86.47 30.8603 86.4 30.7503 86.27C30.6403 86.14 30.5903 85.99 30.5903 85.82C30.5903 85.65 30.6403 85.51 30.7503 85.38C30.8603 85.25 31.0103 85.19 31.2203 85.19C31.0603 85.19 30.9403 85.13 30.8503 85.01C30.7603 84.89 30.6903 84.74 30.6703 84.57C30.6503 84.4 30.6403 84.22 30.6703 84.05C30.7003 83.88 30.7603 83.73 30.8503 83.61C30.9403 83.49 31.0703 83.43 31.2203 83.43C30.9303 83.43 30.7403 83.36 30.6403 83.23C30.5403 83.1 30.5403 82.97 30.6403 82.84C30.7403 82.71 30.9303 82.64 31.2203 82.64C31.0403 82.62 30.9103 82.56 30.8203 82.44C30.7303 82.32 30.7003 82.2 30.7003 82.05C30.7003 81.9 30.7603 81.78 30.8603 81.68C30.9603 81.58 31.1003 81.53 31.2803 81.54C31.2803 81.3 31.3503 81.12 31.4903 81C31.6303 80.88 31.7903 80.82 31.9703 80.82C32.1503 80.82 32.3103 80.88 32.4503 81C32.5903 81.12 32.6603 81.3 32.6603 81.54C32.6603 81.38 32.7203 81.25 32.8503 81.15C32.9803 81.06 33.1303 80.99 33.3203 80.96C33.5003 80.93 33.6903 80.93 33.8703 80.96C34.0503 80.99 34.2103 81.06 34.3403 81.15C34.4703 81.24 34.5303 81.37 34.5303 81.54C34.5303 81.3 34.5903 81.12 34.7003 81.01C34.8103 80.9 34.9503 80.83 35.1003 80.83C35.2503 80.83 35.3803 80.89 35.4903 81.01C35.6003 81.13 35.6603 81.31 35.6603 81.56C35.6803 81.35 35.7403 81.19 35.8403 81.1C35.9303 81.01 36.0403 80.96 36.1503 80.98C36.2603 81 36.3503 81.06 36.4303 81.17C36.5003 81.28 36.5303 81.44 36.5003 81.65C36.5703 81.39 36.6703 81.23 36.7903 81.16C36.9103 81.09 37.0103 81.12 37.0803 81.24C37.1503 81.36 37.1503 81.55 37.0803 81.81C37.1903 81.67 37.3303 81.6 37.4903 81.6C37.6503 81.6 37.7803 81.65 37.9103 81.75C38.0303 81.85 38.1103 81.98 38.1503 82.12C38.1903 82.27 38.1503 82.42 38.0303 82.56C38.2503 82.51 38.4303 82.53 38.5603 82.63C38.7003 82.72 38.7803 82.85 38.8203 83C38.8603 83.16 38.8403 83.31 38.7603 83.45C38.6803 83.6 38.5303 83.7 38.3103 83.74C38.5003 83.81 38.6303 83.9 38.6903 84.01C38.7603 84.13 38.7703 84.24 38.7303 84.34C38.6903 84.45 38.6103 84.52 38.4803 84.57C38.3603 84.62 38.2003 84.61 38.0103 84.53C38.2003 84.78 38.2803 84.97 38.2603 85.12C38.2403 85.27 38.1503 85.34 37.9903 85.34C37.8303 85.34 37.6603 85.21 37.4703 84.96C37.5603 85.07 37.6103 85.19 37.6203 85.32C37.8303 85.4 38.0203 85.53 38.1703 85.71C38.3303 85.89 38.3503 86.07 38.2603 86.24C38.4603 86.19 38.6203 86.19 38.7403 86.24C38.8603 86.29 38.9403 86.37 38.9703 86.48C39.0003 86.59 38.9703 86.69 38.9003 86.8C38.8303 86.91 38.6903 86.99 38.4903 87.05C38.7203 87.1 38.8803 87.19 38.9803 87.32C39.0703 87.45 39.1103 87.59 39.0803 87.73C39.0503 87.87 38.9703 87.99 38.8303 88.08C38.7003 88.17 38.5103 88.19 38.2703 88.14C38.4303 88.3 38.5203 88.45 38.5203 88.62C38.5203 88.79 38.4703 88.92 38.3603 89.03C38.2503 89.14 38.1203 89.2 37.9503 89.2C37.7903 89.2 37.6203 89.13 37.4603 88.97C37.5703 89.22 37.6003 89.41 37.5603 89.53C37.5203 89.65 37.4503 89.68 37.3303 89.63C37.2103 89.58 37.1003 89.42 37.0003 89.17C37.0203 89.35 36.9803 89.5 36.8603 89.62C36.7403 89.74 36.5903 89.83 36.4103 89.89C36.2303 89.95 36.0403 89.97 35.8403 89.95C35.6403 89.93 35.4803 89.88 35.3403 89.78C35.2003 89.69 35.1203 89.55 35.0903 89.37C35.0903 89.59 35.0203 89.76 34.8903 89.87C34.7603 89.99 34.6103 90.04 34.4303 90.04C34.2503 90.04 34.1003 89.98 33.9703 89.87C33.8403 89.76 33.7703 89.59 33.7703 89.37C33.7703 89.56 33.7203 89.7 33.6203 89.79C33.5203 89.88 33.4003 89.93 33.2603 89.93C33.1203 89.93 33.0003 89.88 32.9003 89.79C32.8003 89.7 32.7503 89.56 32.7503 89.37C32.7503 89.53 32.7003 89.64 32.6003 89.72C32.5003 89.8 32.3703 89.83 32.2103 89.81C32.0503 89.79 31.9003 89.72 31.7503 89.58C31.6003 89.44 31.4703 89.23 31.3703 88.93C31.2703 88.64 31.2203 88.26 31.2303 87.78L31.2203 87.83ZM33.5503 83.95C33.6803 83.95 33.7803 84 33.8403 84.11C33.9003 84.22 33.9403 84.34 33.9603 84.47C33.9803 84.6 33.9803 84.7 33.9803 84.75C34.0003 84.62 34.0503 84.53 34.1503 84.48C34.2503 84.43 34.3503 84.43 34.4603 84.46C34.5703 84.5 34.6303 84.57 34.6603 84.69C34.6403 84.54 34.7103 84.43 34.8703 84.36C35.0303 84.29 35.1603 84.28 35.2903 84.34C35.2703 84.25 35.2903 84.16 35.3403 84.06C35.3903 83.97 35.4703 83.9 35.5703 83.87C35.4903 83.82 35.4203 83.74 35.3803 83.63C35.3303 83.52 35.3203 83.42 35.3403 83.33C35.2703 83.38 35.2203 83.39 35.1703 83.35C35.1203 83.32 35.1103 83.26 35.1303 83.17C35.0303 83.29 34.8903 83.35 34.6903 83.34C34.4903 83.33 34.3603 83.26 34.2803 83.12C34.2803 83.22 34.2403 83.3 34.1703 83.37C34.1003 83.44 34.0103 83.47 33.9103 83.47C33.9503 83.57 33.9403 83.67 33.8803 83.77C33.8203 83.87 33.7103 83.92 33.5503 83.92V83.95ZM34.6703 88.04C34.6703 87.9 34.7203 87.81 34.8403 87.75C34.9603 87.69 35.0703 87.69 35.1903 87.72C35.1503 87.58 35.1603 87.43 35.2203 87.27C35.2803 87.11 35.3703 86.99 35.5003 86.91C35.3703 86.85 35.2503 86.76 35.1403 86.65C35.0303 86.53 34.9703 86.41 34.9603 86.29C34.8903 86.4 34.7903 86.46 34.6403 86.49C34.4903 86.51 34.3503 86.51 34.2203 86.47C34.2403 86.6 34.2103 86.72 34.1203 86.84C34.0303 86.96 33.9103 87 33.7603 86.99C33.8803 87.06 33.9603 87.18 34.0103 87.35C34.0503 87.51 34.0603 87.66 34.0303 87.79C34.1503 87.73 34.2903 87.73 34.4503 87.77C34.6103 87.82 34.6803 87.91 34.6803 88.06L34.6703 88.04Z" fill="#603913"/>
<path d="M40.0202 88.88C39.9302 88.88 39.8502 88.83 39.7902 88.72C39.7302 88.61 39.6902 88.47 39.6602 88.3C39.6402 88.13 39.6302 87.96 39.6402 87.79C39.6502 87.62 39.6802 87.47 39.7302 87.35C39.7802 87.23 39.8502 87.17 39.9502 87.17C39.9102 87.1 39.9302 87.01 40.0102 86.9C40.0902 86.79 40.2102 86.69 40.3602 86.59C40.5102 86.49 40.6702 86.4 40.8402 86.33C41.0102 86.26 41.1602 86.21 41.2902 86.2C41.4202 86.19 41.5102 86.21 41.5502 86.29C41.5302 86.18 41.5702 86.09 41.6702 86.01C41.7702 85.93 41.8802 85.87 42.0302 85.83C42.1802 85.79 42.3202 85.77 42.4702 85.78C42.6102 85.78 42.7302 85.83 42.8102 85.9C42.7802 85.77 42.8102 85.63 42.9302 85.47C42.7202 85.47 42.5402 85.43 42.3602 85.37C42.1902 85.31 42.1102 85.22 42.1102 85.12C42.1102 85.24 42.0602 85.33 41.9602 85.39C41.8602 85.45 41.7502 85.48 41.6202 85.48C41.4902 85.48 41.3802 85.45 41.2802 85.39C41.1802 85.33 41.1302 85.24 41.1302 85.12C41.0602 85.24 40.9602 85.31 40.8502 85.33C40.7402 85.35 40.6202 85.33 40.5102 85.26C40.4002 85.19 40.3202 85.11 40.2702 85C40.2202 84.89 40.2302 84.77 40.3102 84.65C40.1702 84.49 40.1202 84.35 40.1602 84.23C40.2002 84.1 40.2802 84.03 40.4102 84C40.5402 83.98 40.6802 84.04 40.8202 84.2C40.7202 84.01 40.7002 83.86 40.7502 83.76C40.8002 83.65 40.8802 83.61 40.9902 83.63C41.1002 83.65 41.2002 83.76 41.3002 83.96C41.2702 83.83 41.2902 83.72 41.3502 83.62C41.4202 83.53 41.5102 83.46 41.6302 83.43C41.7502 83.4 41.8602 83.4 41.9702 83.44C42.0802 83.48 42.1502 83.57 42.1802 83.7C42.1802 83.54 42.2302 83.41 42.3402 83.33C42.4502 83.24 42.5902 83.2 42.7502 83.19C42.9102 83.19 43.0402 83.21 43.1702 83.29C43.3002 83.37 43.3602 83.48 43.3702 83.65C43.3902 83.43 43.4402 83.29 43.5402 83.22C43.6402 83.16 43.7302 83.16 43.8102 83.24C43.8902 83.32 43.9202 83.47 43.9102 83.69C43.9502 83.54 44.0302 83.45 44.1402 83.4C44.2502 83.35 44.3802 83.35 44.5002 83.39C44.6302 83.43 44.7302 83.5 44.8002 83.6C44.8702 83.7 44.8902 83.82 44.8502 83.96C44.9402 83.84 45.0502 83.79 45.1702 83.79C45.2902 83.79 45.4102 83.84 45.5102 83.91C45.6102 83.99 45.6802 84.09 45.7102 84.21C45.7402 84.33 45.7102 84.45 45.6202 84.57C45.8202 84.48 45.9802 84.48 46.1002 84.57C46.2202 84.66 46.2802 84.78 46.2602 84.93C46.2402 85.08 46.1402 85.2 45.9402 85.29C46.1002 85.29 46.2302 85.35 46.3102 85.5C46.4002 85.65 46.4502 85.83 46.4602 86.02C46.4702 86.21 46.4402 86.39 46.3702 86.55C46.3002 86.71 46.1802 86.79 46.0102 86.8C46.1402 86.8 46.2402 86.85 46.3002 86.95C46.3702 87.05 46.4002 87.17 46.4002 87.31C46.4002 87.45 46.3702 87.56 46.3002 87.67C46.2302 87.77 46.1402 87.82 46.0102 87.82C46.1602 87.82 46.2802 87.88 46.3702 87.99C46.4602 88.1 46.5202 88.24 46.5602 88.41C46.6002 88.58 46.6002 88.75 46.5802 88.92C46.5602 89.09 46.5002 89.24 46.4202 89.36C46.3402 89.48 46.2302 89.54 46.0902 89.55C46.0902 89.68 46.0202 89.79 45.9002 89.87C45.7802 89.95 45.6402 90 45.4602 90.03C45.2902 90.05 45.1102 90.05 44.9402 90.03C44.7602 90 44.6202 89.94 44.5002 89.86C44.3802 89.77 44.3302 89.67 44.3302 89.53C44.3302 89.74 44.2902 89.87 44.1902 89.95C44.1002 90.02 44.0102 90.03 43.9202 89.95C43.8302 89.87 43.7802 89.74 43.7802 89.53C43.6702 89.66 43.5602 89.73 43.4502 89.74C43.3402 89.74 43.2402 89.72 43.1602 89.64C43.0802 89.56 43.0502 89.48 43.0602 89.37C42.9302 89.48 42.7202 89.55 42.4302 89.59C42.1402 89.63 41.7902 89.61 41.3702 89.51C40.9502 89.42 40.5002 89.22 40.0102 88.93L40.0202 88.88ZM43.1602 88.28C43.0902 88.24 43.0602 88.17 43.0702 88.06C43.0902 87.95 43.1302 87.84 43.1902 87.72C43.2502 87.6 43.3202 87.49 43.4002 87.41C43.3302 87.39 43.2602 87.36 43.2002 87.3C43.1402 87.24 43.1002 87.18 43.0802 87.1C43.0202 87.18 42.9402 87.25 42.8202 87.3C42.7102 87.35 42.5902 87.38 42.4702 87.39C42.3502 87.39 42.2602 87.38 42.1802 87.33C42.2002 87.4 42.1802 87.47 42.1302 87.53C42.2402 87.57 42.3702 87.64 42.5002 87.75C42.6402 87.86 42.7602 87.96 42.8702 88.07C42.9802 88.18 43.0702 88.25 43.1402 88.28H43.1602Z" fill="#603913"/>
<path d="M47.6801 88.62C47.4401 88.62 47.2801 88.57 47.2001 88.47C47.1201 88.37 47.1201 88.27 47.2001 88.18C47.2801 88.08 47.4401 88.03 47.6801 88.03C47.5201 88.03 47.3901 87.98 47.3101 87.87C47.2301 87.76 47.1901 87.63 47.1901 87.5C47.1901 87.37 47.2301 87.24 47.3101 87.13C47.3901 87.02 47.5101 86.96 47.6801 86.96C47.5401 86.96 47.4301 86.9 47.3401 86.76C47.2501 86.63 47.2001 86.47 47.1701 86.28C47.1401 86.09 47.1401 85.9 47.1701 85.71C47.2001 85.52 47.2601 85.36 47.3401 85.23C47.4301 85.1 47.5401 85.03 47.6801 85.03C47.5701 85.03 47.4901 84.97 47.4201 84.85C47.3501 84.73 47.3101 84.58 47.2901 84.41C47.2701 84.23 47.2701 84.06 47.2901 83.88C47.3101 83.7 47.3601 83.56 47.4201 83.44C47.4901 83.32 47.5801 83.26 47.6801 83.26C47.5201 83.26 47.3901 83.2 47.3101 83.08C47.2301 82.96 47.1901 82.82 47.1901 82.67C47.1901 82.52 47.2301 82.38 47.3101 82.26C47.3901 82.14 47.5101 82.08 47.6801 82.08C47.4801 82.1 47.3501 82.05 47.2701 81.93C47.1901 81.82 47.1801 81.69 47.2301 81.56C47.2801 81.43 47.4101 81.36 47.6001 81.34C47.6001 81.2 47.6501 81.1 47.7401 81.03C47.8301 80.96 47.9201 80.93 48.0301 80.93C48.1401 80.93 48.2301 80.97 48.3101 81.05C48.3901 81.12 48.4301 81.23 48.4301 81.37C48.4301 81.21 48.4901 81.09 48.6301 81C48.7701 80.91 48.9401 80.86 49.1301 80.85C49.3201 80.84 49.4901 80.87 49.6501 80.95C49.8001 81.02 49.8801 81.14 49.8901 81.29C50.0401 81.29 50.1501 81.39 50.2201 81.55C50.2901 81.72 50.3201 81.91 50.3201 82.13C50.3201 82.35 50.2801 82.54 50.2001 82.71C50.1201 82.87 50.0101 82.96 49.8601 82.96C49.9901 82.96 50.0901 83.02 50.1501 83.15C50.2201 83.28 50.2501 83.43 50.2501 83.6C50.2501 83.77 50.2201 83.92 50.1501 84.05C50.0801 84.18 49.9901 84.24 49.8601 84.24C50.0101 84.24 50.1201 84.3 50.1901 84.44C50.2601 84.58 50.3001 84.73 50.2901 84.88C50.3101 84.88 50.3301 84.9 50.3501 84.92C50.3701 84.77 50.4501 84.65 50.5901 84.55C50.7301 84.45 50.8701 84.45 51.0301 84.55C50.9201 84.48 50.8701 84.38 50.8901 84.26C50.9101 84.14 50.9701 84.04 51.0601 83.97C51.1501 83.9 51.2601 83.9 51.3901 83.97C51.3701 83.84 51.4201 83.73 51.5401 83.63C51.6701 83.54 51.8201 83.47 52.0101 83.43C52.1901 83.39 52.3601 83.39 52.5101 83.43C52.6601 83.47 52.7501 83.56 52.7701 83.69C52.7701 83.5 52.8201 83.38 52.9201 83.32C53.0201 83.26 53.1201 83.26 53.2101 83.32C53.3001 83.38 53.3601 83.51 53.3601 83.69C53.3601 83.49 53.4101 83.35 53.5301 83.28C53.6501 83.21 53.7701 83.21 53.8901 83.28C54.0101 83.35 54.0701 83.48 54.0701 83.69C54.1801 83.76 54.2201 83.87 54.2001 84.01C54.1801 84.15 54.1301 84.29 54.0301 84.42C53.9401 84.55 53.8301 84.65 53.7101 84.71C53.5901 84.77 53.4701 84.77 53.3701 84.69C53.4901 84.78 53.5301 84.92 53.4901 85.11C53.4501 85.3 53.3601 85.49 53.2301 85.67C53.1001 85.85 52.9501 85.99 52.7901 86.07C52.9301 86.13 53.0401 86.23 53.1101 86.38C53.1801 86.53 53.2101 86.68 53.1801 86.83C53.1601 86.98 53.0601 87.09 52.9101 87.16C53.0201 87.11 53.1501 87.14 53.3001 87.24C53.4401 87.34 53.5701 87.48 53.6801 87.66C53.7901 87.84 53.8601 88.01 53.8801 88.18C53.9001 88.35 53.8601 88.47 53.7401 88.54C53.8601 88.47 53.9901 88.46 54.1101 88.51C54.2301 88.56 54.3301 88.65 54.4001 88.77C54.4701 88.89 54.5101 89.01 54.5001 89.14C54.4901 89.27 54.4301 89.38 54.3101 89.46C54.3101 89.62 54.2401 89.75 54.0901 89.83C53.9501 89.91 53.7801 89.95 53.6001 89.95C53.4201 89.95 53.2501 89.91 53.1101 89.83C52.9701 89.75 52.9001 89.63 52.9001 89.46C52.8801 89.62 52.8101 89.72 52.6701 89.79C52.5301 89.85 52.3801 89.87 52.2101 89.85C52.0401 89.83 51.9001 89.77 51.7701 89.68C51.6501 89.59 51.5901 89.47 51.6101 89.31C51.4301 89.42 51.2901 89.45 51.1801 89.41C51.0701 89.37 51.0301 89.29 51.0501 89.18C51.0701 89.07 51.1601 88.96 51.3301 88.85C51.2401 88.91 51.1301 88.89 51.0001 88.8C50.8701 88.71 50.7501 88.58 50.6401 88.42C50.5201 88.26 50.4301 88.09 50.3701 87.92C50.2601 88.01 50.1401 88.04 50.0101 88.01C50.0801 88.11 50.1301 88.25 50.1401 88.43C50.1501 88.61 50.1401 88.77 50.0901 88.92C50.0401 89.07 49.9601 89.14 49.8401 89.14C49.9201 89.32 49.9201 89.47 49.8201 89.58C49.7301 89.69 49.6101 89.74 49.4601 89.74C49.3201 89.74 49.2001 89.64 49.1201 89.46C49.1201 89.58 49.0701 89.68 48.9801 89.74C48.8901 89.8 48.7801 89.84 48.6601 89.84C48.5401 89.84 48.4301 89.81 48.3401 89.74C48.2501 89.67 48.2001 89.58 48.2001 89.46C48.2001 89.68 48.1501 89.82 48.0601 89.87C47.9701 89.92 47.8801 89.85 47.7801 89.66C47.6901 89.46 47.6401 89.11 47.6301 88.6L47.6801 88.62Z" fill="#603913"/>
<path d="M57.6204 89.57C57.5704 89.74 57.4804 89.85 57.3504 89.91C57.2204 89.96 57.0804 89.97 56.9404 89.93C56.8004 89.89 56.6805 89.82 56.5905 89.7C56.5005 89.59 56.4804 89.44 56.5304 89.27C56.4404 89.39 56.3304 89.46 56.2104 89.47C56.0904 89.48 55.9804 89.45 55.8704 89.38C55.7604 89.31 55.7004 89.21 55.6704 89.09C55.6404 88.97 55.6705 88.85 55.7705 88.72C55.6505 88.78 55.5205 88.75 55.4005 88.64C55.2805 88.53 55.1705 88.38 55.0905 88.2C55.0105 88.02 54.9705 87.84 54.9705 87.68C54.9705 87.52 55.0305 87.41 55.1505 87.35C55.0005 87.35 54.8904 87.28 54.8204 87.14C54.7504 87 54.7104 86.84 54.7104 86.65C54.7104 86.46 54.7504 86.3 54.8204 86.16C54.8904 86.02 55.0004 85.95 55.1404 85.95C54.9204 85.89 54.7905 85.79 54.7505 85.66C54.7105 85.53 54.7405 85.42 54.8405 85.33C54.9405 85.24 55.1004 85.23 55.3204 85.29C55.2504 85.23 55.2205 85.13 55.2505 85C55.2805 84.87 55.3404 84.74 55.4404 84.6C55.5404 84.46 55.6505 84.34 55.7705 84.23C55.8905 84.12 56.0105 84.04 56.1305 83.99C56.2505 83.94 56.3404 83.95 56.4204 84.01C56.3804 83.87 56.4205 83.75 56.5405 83.64C56.6605 83.53 56.8105 83.45 56.9905 83.4C57.1705 83.35 57.3405 83.33 57.4905 83.36C57.6505 83.39 57.7404 83.47 57.7804 83.61C57.7804 83.45 57.8805 83.35 58.0605 83.28C58.2405 83.22 58.4305 83.2 58.6505 83.21C58.8705 83.22 59.0605 83.28 59.2205 83.37C59.3805 83.46 59.4604 83.58 59.4404 83.74C59.5004 83.58 59.6005 83.5 59.7205 83.49C59.8405 83.48 59.9404 83.52 60.0104 83.61C60.0904 83.7 60.1005 83.82 60.0405 83.98C60.1305 83.89 60.2505 83.88 60.4005 83.94C60.5505 84 60.7005 84.1 60.8405 84.24C60.9805 84.38 61.0905 84.53 61.1505 84.68C61.2105 84.83 61.2005 84.96 61.1105 85.05C61.2305 85.03 61.3405 85.07 61.4505 85.17C61.5505 85.28 61.6304 85.42 61.6904 85.59C61.7504 85.76 61.7905 85.94 61.7905 86.12C61.7905 86.3 61.7804 86.47 61.7304 86.6C61.6804 86.74 61.5904 86.82 61.4604 86.85C61.7004 86.96 61.8004 87.04 61.7804 87.09C61.7604 87.14 61.6204 87.12 61.3904 87.01C61.3904 87.12 61.3204 87.2 61.1904 87.25C61.0504 87.3 60.9004 87.33 60.7304 87.33C60.5604 87.33 60.4005 87.3 60.2705 87.25C60.1405 87.2 60.0704 87.12 60.0704 87.01C60.0704 87.15 60.0105 87.25 59.8805 87.32C59.7605 87.39 59.6204 87.43 59.4604 87.43C59.3004 87.43 59.1605 87.4 59.0405 87.33C58.9205 87.26 58.8605 87.16 58.8605 87.03C58.8605 87.17 58.8004 87.28 58.6604 87.37C58.5204 87.46 58.3605 87.51 58.1805 87.52C58.2605 87.62 58.3305 87.72 58.3805 87.83C58.4305 87.94 58.4704 88.04 58.4804 88.13C58.5604 88.04 58.6804 87.96 58.8504 87.9C59.0104 87.83 59.1804 87.79 59.3504 87.78C59.5204 87.76 59.6805 87.78 59.8105 87.81C59.9505 87.85 60.0304 87.92 60.0504 88.04C60.0504 87.9 60.1004 87.79 60.2104 87.72C60.3204 87.65 60.4504 87.61 60.6004 87.61C60.7504 87.61 60.8805 87.65 60.9905 87.72C61.1005 87.79 61.1505 87.9 61.1505 88.04C61.3105 88.07 61.4105 88.14 61.4505 88.24C61.4805 88.34 61.4604 88.43 61.3904 88.51C61.3204 88.59 61.2004 88.61 61.0504 88.58C61.1204 88.69 61.1405 88.79 61.0905 88.91C61.0405 89.02 60.9604 89.11 60.8504 89.19C60.7404 89.27 60.6204 89.31 60.5104 89.32C60.4004 89.33 60.3005 89.28 60.2205 89.19C60.2705 89.35 60.2505 89.48 60.1505 89.6C60.0605 89.71 59.9304 89.8 59.7804 89.85C59.6304 89.9 59.4805 89.9 59.3305 89.85C59.1905 89.8 59.0905 89.7 59.0405 89.55C59.0605 89.77 59.0005 89.92 58.8605 90C58.7205 90.08 58.5404 90.09 58.3204 90.02C58.0904 89.95 57.8605 89.8 57.6105 89.57H57.6204ZM58.1204 86.09C58.1204 85.93 58.1705 85.83 58.2505 85.81C58.3405 85.79 58.4005 85.84 58.4305 85.96C58.4505 85.89 58.5005 85.82 58.5805 85.75C58.6505 85.68 58.7305 85.64 58.8105 85.62C58.7105 85.55 58.6305 85.44 58.5605 85.3C58.4905 85.16 58.4705 85.04 58.5005 84.93C58.4305 84.97 58.3405 85 58.2405 85C58.1405 85 58.0504 85 57.9804 84.96C58.0004 85.05 58.0005 85.16 57.9705 85.28C57.9405 85.4 57.8804 85.51 57.8204 85.61C57.7504 85.71 57.6705 85.76 57.5805 85.77C57.6905 85.79 57.7704 85.85 57.8204 85.94C57.8704 86.03 57.9704 86.07 58.1204 86.07V86.09Z" fill="#603913"/>
<path d="M65.2601 89.57C65.2101 89.74 65.1201 89.85 64.9901 89.91C64.8601 89.97 64.7201 89.97 64.5801 89.93C64.4401 89.89 64.3201 89.82 64.2301 89.7C64.1401 89.59 64.1201 89.44 64.1701 89.27C64.0801 89.39 63.9701 89.46 63.8501 89.47C63.7301 89.48 63.6201 89.45 63.5101 89.38C63.4101 89.31 63.3401 89.21 63.3101 89.09C63.2801 88.97 63.3101 88.85 63.4101 88.72C63.2901 88.78 63.1701 88.75 63.0401 88.64C62.9201 88.53 62.8101 88.38 62.7301 88.2C62.6501 88.02 62.6101 87.84 62.6101 87.68C62.6101 87.52 62.6701 87.41 62.7901 87.35C62.6401 87.35 62.5301 87.28 62.4601 87.14C62.3901 87 62.3501 86.84 62.3501 86.65C62.3501 86.46 62.3901 86.3 62.4601 86.16C62.5301 86.02 62.6401 85.95 62.7801 85.95C62.5601 85.89 62.4301 85.79 62.3901 85.66C62.3501 85.53 62.3901 85.42 62.4801 85.33C62.5801 85.24 62.7401 85.23 62.9701 85.29C62.9001 85.23 62.8701 85.13 62.9001 85C62.9301 84.87 62.9901 84.74 63.0901 84.6C63.1901 84.46 63.3001 84.34 63.4201 84.23C63.5401 84.12 63.6601 84.04 63.7801 83.99C63.9001 83.94 64.0001 83.95 64.0701 84.01C64.0301 83.87 64.0701 83.75 64.1901 83.64C64.3101 83.53 64.4601 83.45 64.6401 83.4C64.8201 83.35 64.9901 83.33 65.1401 83.36C65.2901 83.39 65.3901 83.47 65.4401 83.61C65.4401 83.45 65.5401 83.35 65.7201 83.28C65.9001 83.22 66.0901 83.2 66.3101 83.21C66.5301 83.22 66.7201 83.28 66.8801 83.37C67.0401 83.46 67.1201 83.58 67.1001 83.74C67.1701 83.58 67.2601 83.5 67.3801 83.49C67.5001 83.48 67.6001 83.52 67.6801 83.61C67.7601 83.7 67.7701 83.82 67.7101 83.98C67.8001 83.89 67.9201 83.88 68.0701 83.94C68.2201 84 68.3701 84.1 68.5101 84.24C68.6501 84.38 68.7601 84.53 68.8201 84.68C68.8801 84.84 68.8701 84.96 68.7801 85.05C68.9001 85.03 69.0101 85.07 69.1201 85.17C69.2201 85.28 69.3001 85.42 69.3701 85.59C69.4401 85.76 69.4701 85.94 69.4701 86.12C69.4701 86.3 69.4601 86.47 69.4101 86.6C69.3601 86.73 69.2701 86.82 69.1401 86.85C69.3801 86.96 69.4801 87.04 69.4601 87.09C69.4401 87.14 69.3001 87.12 69.0701 87.01C69.0701 87.12 69.0001 87.2 68.8701 87.25C68.7401 87.3 68.5801 87.33 68.4101 87.33C68.2401 87.33 68.0801 87.3 67.9501 87.25C67.8101 87.2 67.7501 87.12 67.7501 87.01C67.7501 87.15 67.6901 87.25 67.5701 87.32C67.4501 87.39 67.3101 87.43 67.1501 87.43C66.9901 87.43 66.8501 87.4 66.7301 87.33C66.6101 87.26 66.5501 87.16 66.5501 87.03C66.5501 87.17 66.4901 87.28 66.3501 87.37C66.2101 87.46 66.0501 87.51 65.8701 87.52C65.9501 87.62 66.0201 87.72 66.0701 87.83C66.1201 87.94 66.1601 88.04 66.1701 88.13C66.2501 88.04 66.3701 87.96 66.5401 87.9C66.7101 87.84 66.8701 87.79 67.0401 87.78C67.2101 87.76 67.3601 87.78 67.5001 87.81C67.6301 87.85 67.7101 87.92 67.7401 88.04C67.7401 87.9 67.7901 87.79 67.9101 87.72C68.0201 87.65 68.1501 87.61 68.3001 87.61C68.4501 87.61 68.5801 87.65 68.6901 87.72C68.8001 87.79 68.8601 87.9 68.8601 88.04C69.0201 88.07 69.1201 88.14 69.1601 88.24C69.1901 88.34 69.1701 88.43 69.1001 88.51C69.0301 88.59 68.9101 88.61 68.7601 88.58C68.8301 88.69 68.8501 88.79 68.8001 88.91C68.7501 89.02 68.6701 89.11 68.5601 89.19C68.4501 89.27 68.3301 89.31 68.2201 89.32C68.1001 89.32 68.0001 89.28 67.9301 89.19C67.9801 89.35 67.9601 89.48 67.8601 89.6C67.7701 89.71 67.6401 89.8 67.4901 89.85C67.3301 89.9 67.1801 89.9 67.0401 89.85C66.9001 89.8 66.8001 89.7 66.7501 89.55C66.7701 89.77 66.7101 89.92 66.5701 90C66.4401 90.08 66.2601 90.09 66.0301 90.02C65.8001 89.95 65.5701 89.8 65.3201 89.57H65.2601ZM65.7601 86.09C65.7601 85.93 65.8101 85.83 65.9001 85.81C65.9901 85.79 66.0501 85.84 66.0801 85.96C66.1001 85.89 66.1501 85.82 66.2301 85.75C66.3001 85.68 66.3801 85.64 66.4601 85.62C66.3601 85.55 66.2801 85.44 66.2101 85.3C66.1401 85.16 66.1201 85.04 66.1501 84.93C66.0801 84.97 65.9901 85 65.8901 85C65.7901 85 65.7001 85 65.6301 84.96C65.6501 85.05 65.6501 85.16 65.6201 85.28C65.5901 85.4 65.5401 85.51 65.4701 85.61C65.4001 85.71 65.3201 85.76 65.2301 85.77C65.3401 85.79 65.4201 85.85 65.4701 85.94C65.5201 86.03 65.6201 86.07 65.7701 86.07L65.7601 86.09Z" fill="#603913"/>
<path d="M66.1202 56.28C59.1802 57.21 52.1402 57.66 45.1402 57.15C41.6402 56.89 38.1602 56.38 34.7402 55.57C31.7802 54.86 28.3202 54.1 26.1302 51.83C23.9402 49.56 23.2702 46.24 22.8302 43.27C22.3602 40.1 22.3602 36.81 23.1002 33.69C24.4302 28.08 28.5402 22.97 34.4002 21.78C35.8102 21.49 37.3702 21.45 38.7702 21.83C40.4202 22.28 41.4002 23.43 41.8602 25.05C42.2702 26.49 42.5802 28.27 42.2002 29.74C41.8802 30.97 40.3302 32.45 39.1302 31.25C38.1402 30.26 38.1602 28.39 38.3102 27.11C38.4902 25.54 39.1002 24.01 40.0502 22.75C41.9102 20.27 45.0202 19.03 48.0702 19.31C49.7502 19.46 51.5002 19.94 53.0602 20.56C54.6202 21.18 55.6002 22.19 55.9902 23.79C56.3302 25.18 56.2502 26.68 56.1802 28.1C56.1202 29.37 55.8302 31.64 54.2702 32.02C53.5402 32.2 53.5402 31 53.4802 30.45C53.4102 29.8 53.4102 29.14 53.4802 28.49C53.6102 27.14 54.0202 25.81 54.6602 24.62C56.0402 22.04 58.4202 20.31 61.2702 19.66C64.4802 18.93 67.8302 19.62 70.7502 21.04C72.1902 21.74 73.6602 22.58 74.8502 23.66C76.0402 24.74 76.7202 26.22 77.0702 27.81C78.4702 34.2 76.6702 41.19 73.9602 46.99C73.2802 48.45 72.5202 49.87 71.7002 51.27C71.2402 52.05 72.4602 52.76 72.9102 51.98C76.8602 45.24 79.6202 37.36 78.7402 29.45C78.5502 27.74 78.2002 26.01 77.3302 24.51C76.4002 22.9 74.8902 21.81 73.3302 20.86C70.1602 18.93 66.4302 17.67 62.6802 18.03C59.3102 18.36 56.2402 19.9 54.2402 22.66C52.4202 25.17 51.6602 28.44 52.2302 31.49C52.3502 32.1 52.4702 32.89 53.0202 33.28C53.6402 33.72 54.5202 33.49 55.1502 33.17C56.6402 32.4 57.3102 30.77 57.5102 29.19C57.9002 26.09 57.9502 21.99 55.0702 20.03C53.5902 19.02 51.6302 18.54 49.9002 18.19C48.0802 17.81 46.2202 17.74 44.4102 18.24C41.0802 19.16 38.4102 21.71 37.3502 25C36.5802 27.39 36.2802 32.59 39.7502 33.08C41.1602 33.28 42.5502 32.34 43.1902 31.13C44.0302 29.54 43.7902 27.6 43.4902 25.9C43.1902 24.2 42.6102 22.56 41.2302 21.5C39.8502 20.44 38.1602 20.18 36.5302 20.19C33.3002 20.2 30.2302 21.52 27.7402 23.53C21.9002 28.25 20.4602 36.11 21.4302 43.22C21.9002 46.63 22.7402 50.43 25.2602 52.95C27.8902 55.58 32.0102 56.45 35.5202 57.21C43.6802 59 52.1102 59.12 60.4002 58.37C62.4502 58.19 64.4802 57.94 66.5202 57.67C67.4102 57.55 67.0302 56.19 66.1502 56.31L66.1202 56.28Z" fill="#603913"/>
<path d="M42.5101 42.12C43.4101 42.12 43.4201 40.71 42.5101 40.71C41.6001 40.71 41.6001 42.12 42.5101 42.12Z" fill="#603913"/>
<path d="M55.85 40.88C56.75 40.88 56.76 39.47 55.85 39.47C54.94 39.47 54.94 40.88 55.85 40.88Z" fill="#603913"/>
<path d="M38.3803 47.24C39.1103 49.31 40.8203 50.66 42.7403 51.58C45.0903 52.7 47.6703 53.47 50.2603 53.73C54.7803 54.19 59.3003 52.58 62.6903 49.6C64.5503 47.96 65.9803 45.93 66.9403 43.65C67.2903 42.82 65.9303 42.45 65.5803 43.28C63.6503 47.88 59.2803 51.25 54.4103 52.18C51.5803 52.72 48.6903 52.27 45.9803 51.37C43.6103 50.59 40.6203 49.44 39.7203 46.87C39.4203 46.02 38.0603 46.39 38.3603 47.24H38.3803Z" fill="#603913"/>
<path d="M66.0904 13.44C66.3504 13.03 66.6204 12.63 66.9004 12.23C66.9704 12.13 67.0404 12.04 67.1104 11.94C67.1504 11.89 67.1804 11.84 67.2204 11.8C67.2404 11.78 67.2604 11.75 67.2704 11.73C67.3304 11.66 67.1804 11.84 67.2404 11.77C67.3904 11.58 67.5504 11.38 67.7004 11.2C67.8204 11.05 67.9104 10.9 67.9104 10.7C67.9104 10.53 67.8304 10.32 67.7004 10.2C67.4404 9.96001 66.9604 9.90001 66.7104 10.2C66.0404 11 65.4304 11.84 64.8704 12.73C64.6704 13.04 64.7904 13.52 65.1204 13.69C65.4704 13.87 65.8704 13.77 66.0804 13.44H66.0904Z" fill="#603913"/>
<path d="M69.2303 15.91C69.3003 15.9 69.3803 15.89 69.4503 15.88L69.2603 15.91C69.9603 15.82 70.6703 15.8 71.3803 15.86C71.5503 15.87 71.7603 15.77 71.8803 15.65C72.0003 15.53 72.0903 15.33 72.0903 15.15C72.0703 14.74 71.7803 14.48 71.3903 14.45C70.5403 14.38 69.7003 14.42 68.8603 14.55C68.7003 14.58 68.5203 14.74 68.4403 14.87C68.3503 15.02 68.3103 15.24 68.3703 15.41C68.4303 15.58 68.5303 15.74 68.6903 15.83C68.8703 15.92 69.0303 15.93 69.2303 15.9V15.91Z" fill="#603913"/>
</g>
<defs>
<clipPath id="clip0_458_3812">
<rect width="100" height="100" fill="white"/>
</clipPath>
</defs>
</svg>
